<svg id="Grupo_1102363" data-name="Grupo 1102363" xmlns="http://www.w3.org/2000/svg" xmlns:xlink="http://www.w3.org/1999/xlink" width="80.793" height="71.808" viewBox="0 0 80.793 71.808">
  <defs>
    <clipPath id="clip-path">
      <rect id="Rectángulo_404590" data-name="Rectángulo 404590" width="80.793" height="71.808" fill="#fff"/>
    </clipPath>
  </defs>
  <g id="Grupo_1102362" data-name="Grupo 1102362" clip-path="url(#clip-path)">
    <path id="Trazado_889085" data-name="Trazado 889085" d="M85.613,111.479a5.233,5.233,0,0,0,1.033-3.277v-7.257a1.162,1.162,0,0,1,.194-.777,1.05,1.05,0,0,1,.7-.194h1.211a2.642,2.642,0,0,0,1.774-.623,2.6,2.6,0,0,0,.016-3.682l-.016-.016a2.644,2.644,0,0,0-1.773-.623h-2.84a5.216,5.216,0,0,0-3.878,1.417,5.272,5.272,0,0,0-1.385,3.855v7.333a2.91,2.91,0,0,1-.382,1.768,2.039,2.039,0,0,1-1.374.527,2.57,2.57,0,0,0-1.81.741,2.586,2.586,0,0,0,1.659,4.306c.041,0,.082,0,.124,0a2.068,2.068,0,0,1,1.4.528,2.9,2.9,0,0,1,.383,1.768v7.333a5.275,5.275,0,0,0,1.385,3.849,5.218,5.218,0,0,0,3.878,1.416h2.839a2.643,2.643,0,0,0,1.774-.623,2.6,2.6,0,0,0,.015-3.682l-.015-.015a2.644,2.644,0,0,0-1.773-.62H87.541a1.047,1.047,0,0,1-.7-.195,1.162,1.162,0,0,1-.193-.776v-7.255a5.15,5.15,0,0,0-1.039-3.262,4.984,4.984,0,0,0-1-.974,4.968,4.968,0,0,0,1-.992m-2.794,1.672a2.94,2.94,0,0,1,1.7,1.152,3.759,3.759,0,0,1,.742,2.408v7.257a2.391,2.391,0,0,0,.6,1.756,2.284,2.284,0,0,0,1.681.6h1.211a1.282,1.282,0,0,1,.872.288,1.251,1.251,0,0,1,0,1.593,1.285,1.285,0,0,1-.872.287H85.913a3.846,3.846,0,0,1-2.89-1,3.9,3.9,0,0,1-.988-2.879v-7.333a4.191,4.191,0,0,0-.674-2.618,3.23,3.23,0,0,0-2.407-1.06,1.183,1.183,0,0,1-.863-.328,1.166,1.166,0,0,1-.288-.831,1.09,1.09,0,0,1,.277-.805,1.265,1.265,0,0,1,.9-.319,3.212,3.212,0,0,0,2.38-1.059,4.2,4.2,0,0,0,.674-2.618V100.3a3.9,3.9,0,0,1,.992-2.877,3.844,3.844,0,0,1,2.888-1h2.839a1.283,1.283,0,0,1,.872.287,1.25,1.25,0,0,1,0,1.593,1.282,1.282,0,0,1-.873.288h-1.21a2.278,2.278,0,0,0-1.68.6,2.388,2.388,0,0,0-.6,1.757V108.2a3.83,3.83,0,0,1-.745,2.431,2.909,2.909,0,0,1-1.7,1.164.692.692,0,0,0,0,1.353Z" transform="translate(-55.327 -68.799)" fill="#fff"/>
    <path id="Trazado_889086" data-name="Trazado 889086" d="M168.118,113.462a5.149,5.149,0,0,0-1.035,3.262v7.257a1.157,1.157,0,0,1-.195.777,1.045,1.045,0,0,1-.7.194h-1.21a2.636,2.636,0,0,0-1.773.62,2.6,2.6,0,0,0-.02,3.678l.02.02a2.638,2.638,0,0,0,1.773.623h2.835a5.22,5.22,0,0,0,3.878-1.416,5.275,5.275,0,0,0,1.385-3.849v-7.336a2.908,2.908,0,0,1,.383-1.768,2.042,2.042,0,0,1,1.373-.527,2.506,2.506,0,0,0,1.85-.78,2.571,2.571,0,0,0,.629-1.765,2.459,2.459,0,0,0-.665-1.764,2.551,2.551,0,0,0-1.782-.737,2.069,2.069,0,0,1-1.4-.529,2.9,2.9,0,0,1-.384-1.768v-7.335a5.275,5.275,0,0,0-1.389-3.849,5.219,5.219,0,0,0-3.878-1.416h-2.833a2.639,2.639,0,0,0-1.773.623,2.6,2.6,0,0,0-.02,3.678l.02.02a2.638,2.638,0,0,0,1.773.623h1.21a1.051,1.051,0,0,1,.7.194,1.161,1.161,0,0,1,.194.777v7.257a5.224,5.224,0,0,0,1.032,3.277,4.967,4.967,0,0,0,1,.992,5,5,0,0,0-1,.968m2.791-1.648a2.911,2.911,0,0,1-1.7-1.165,3.834,3.834,0,0,1-.744-2.431v-7.256a2.39,2.39,0,0,0-.6-1.756,2.28,2.28,0,0,0-1.681-.6h-1.21a1.279,1.279,0,0,1-.872-.288,1.246,1.246,0,0,1,0-1.593,1.28,1.28,0,0,1,.872-.287h2.835a3.85,3.85,0,0,1,2.89,1,3.9,3.9,0,0,1,.991,2.878v7.333a4.189,4.189,0,0,0,.675,2.618,3.232,3.232,0,0,0,2.407,1.06,1.236,1.236,0,0,1,.872.317,1.108,1.108,0,0,1,.277.805,1.049,1.049,0,0,1-1.177,1.163,3.207,3.207,0,0,0-2.38,1.058,4.2,4.2,0,0,0-.675,2.618v7.333a3.9,3.9,0,0,1-.99,2.877,3.848,3.848,0,0,1-2.891,1h-2.834a1.284,1.284,0,0,1-.872-.287,1.246,1.246,0,0,1,0-1.593,1.28,1.28,0,0,1,.872-.287h1.21a2.282,2.282,0,0,0,1.681-.6,2.39,2.39,0,0,0,.6-1.756v-7.26a3.756,3.756,0,0,1,.741-2.408,2.935,2.935,0,0,1,1.7-1.149.692.692,0,0,0,0-1.353Z" transform="translate(-117.607 -68.816)" fill="#fff"/>
    <path id="Trazado_889087" data-name="Trazado 889087" d="M288.44,158.739a.693.693,0,0,0-.693.692v8.483a.693.693,0,1,0,1.385,0v-8.483a.692.692,0,0,0-.692-.692" transform="translate(-208.339 -114.933)" fill="#fff"/>
    <path id="Trazado_889088" data-name="Trazado 889088" d="M77.33,6.392H37.184a3.733,3.733,0,0,1-3.066-1.606l-1.785-2.58A5.123,5.123,0,0,0,28.121,0H3.462A3.466,3.466,0,0,0,0,3.462V68.346a3.466,3.466,0,0,0,3.462,3.462H77.33a3.466,3.466,0,0,0,3.463-3.462V56.213a.693.693,0,0,0-1.385,0V68.345a2.077,2.077,0,0,1-2.077,2.077H3.462a2.077,2.077,0,0,1-2.077-2.077V16.627H79.408V41.036a.693.693,0,1,0,1.385,0V9.854A3.466,3.466,0,0,0,77.33,6.392M1.385,3.462A2.077,2.077,0,0,1,3.462,1.385H28.121A3.733,3.733,0,0,1,31.19,2.993l1.785,2.579a5.12,5.12,0,0,0,4.208,2.2H77.33a2.077,2.077,0,0,1,2.077,2.077v5.388H1.385Z" fill="#fff"/>
  </g>
</svg>
