<svg xmlns="http://www.w3.org/2000/svg" width="95" height="95" viewBox="0 0 95 95">
  <g id="Grupo_1103712" data-name="Grupo 1103712" transform="translate(-423 -1276)">
    <g id="_11-Develop" data-name="11-Develop" transform="translate(432 1285)">
      <path id="Trazado_889410" data-name="Trazado 889410" d="M76.563,11V71.938a2.445,2.445,0,0,1-2.437,2.438H3.438A2.445,2.445,0,0,1,1,71.938V11Z" transform="translate(0.219 2.406)" fill="#dfe1ea"/>
      <path id="Trazado_889411" data-name="Trazado 889411" d="M74.125,1a2.445,2.445,0,0,1,2.438,2.438v9.75H1V3.438A2.445,2.445,0,0,1,3.438,1Z" transform="translate(0.219 0.219)" fill="#adb2c7"/>
      <path id="Trazado_889412" data-name="Trazado 889412" d="M48.044,21.438C38.781,21.438,38.781,19,29.519,19s-9.263,2.438-18.525,2.438A32.593,32.593,0,0,1,1,20.029v9.75a32.593,32.593,0,0,0,9.994,1.409c9.262,0,9.262-2.437,18.525-2.437s9.263,2.438,18.525,2.438,9.263-2.437,18.525-2.437a32.647,32.647,0,0,1,9.994,1.41v-9.75A32.647,32.647,0,0,0,66.569,19C57.306,19,57.306,21.438,48.044,21.438Z" transform="translate(0.219 4.156)" fill="#cdd2e1"/>
      <path id="Trazado_889413" data-name="Trazado 889413" d="M1,11V21.779a32.593,32.593,0,0,0,9.994,1.409c9.262,0,9.262-2.437,18.525-2.437s9.263,2.438,18.525,2.438,9.263-2.437,18.525-2.437a32.647,32.647,0,0,1,9.994,1.41V11Z" transform="translate(0.219 2.406)" fill="#f6fafd"/>
      <path id="Trazado_889414" data-name="Trazado 889414" d="M56.781,45.063,58,47.5l-1.219,2.438-5.265.707a13.163,13.163,0,0,1-1.584,3.839L53.149,58.7l-.865,2.584-2.584.865-4.217-3.217a13.163,13.163,0,0,1-3.839,1.584l-.707,5.265L38.5,67l-2.437-1.219-.707-5.265a13.162,13.162,0,0,1-3.839-1.584L27.3,62.149l-2.584-.865L23.851,58.7l3.217-4.217a13.163,13.163,0,0,1-1.584-3.839l-5.265-.707L19,47.5l1.219-2.437,5.265-.707a13.162,13.162,0,0,1,1.584-3.839L23.851,36.3l.865-2.584,2.584-.865,4.217,3.217a13.163,13.163,0,0,1,3.839-1.584l.707-5.265L38.5,28l2.438,1.219.707,5.265a13.162,13.162,0,0,1,3.839,1.584L49.7,32.851l2.584.865.865,2.584-3.217,4.217a13.162,13.162,0,0,1,1.584,3.839ZM45.813,47.5A7.313,7.313,0,1,0,38.5,54.813,7.312,7.312,0,0,0,45.813,47.5Z" transform="translate(4.156 6.125)" fill="#adb2c7"/>
      <rect id="Rectángulo_404773" data-name="Rectángulo 404773" width="24" height="17" transform="translate(27 28)" fill="#fff"/>
      <rect id="Rectángulo_404774" data-name="Rectángulo 404774" width="21" height="12" transform="translate(51 32)" fill="#fff"/>
      <rect id="Rectángulo_404775" data-name="Rectángulo 404775" width="24" height="10" transform="translate(27 18)" fill="#73c6b2"/>
      <rect id="Rectángulo_404776" data-name="Rectángulo 404776" width="21" height="10" transform="translate(51 22)" fill="#ffc247"/>
      <rect id="Rectángulo_404777" data-name="Rectángulo 404777" width="21" height="12" transform="translate(6 32)" fill="#fff"/>
      <rect id="Rectángulo_404778" data-name="Rectángulo 404778" width="21" height="10" transform="translate(6 22)" fill="#ffc247"/>
      <rect id="Rectángulo_404779" data-name="Rectángulo 404779" width="18" height="9" transform="translate(30 32)" fill="#dfe1ea"/>
      <rect id="Rectángulo_404780" data-name="Rectángulo 404780" width="5" height="10" transform="translate(22 22)" fill="#ffa426"/>
      <rect id="Rectángulo_404781" data-name="Rectángulo 404781" width="5" height="10" transform="translate(51 22)" fill="#ffa426"/>
      <path id="Trazado_889415" data-name="Trazado 889415" d="M53.781,44.063,55,46.5l-1.219,2.438-5.265.707a13.162,13.162,0,0,1-1.584,3.839L50.149,57.7l-.865,2.584-2.584.865-4.217-3.217a13.163,13.163,0,0,1-3.839,1.584l-.707,5.265L35.5,66l-2.437-1.219-.707-5.265a13.162,13.162,0,0,1-3.839-1.584L24.3,61.149l-2.584-.865L20.851,57.7l3.217-4.217a13.162,13.162,0,0,1-1.584-3.839l-5.265-.707L16,46.5l1.219-2.437,5.265-.707a13.163,13.163,0,0,1,1.584-3.839L20.851,35.3l.865-2.584,2.584-.865,4.217,3.217a13.162,13.162,0,0,1,3.839-1.584l.707-5.265L35.5,27l2.438,1.219.707,5.265a13.163,13.163,0,0,1,3.839,1.584L46.7,31.851l2.584.865.865,2.584-3.217,4.217a13.163,13.163,0,0,1,1.584,3.839ZM42.813,46.5A7.313,7.313,0,1,0,35.5,53.813,7.313,7.313,0,0,0,42.813,46.5Z" transform="translate(3.5 5.906)" fill="#fff"/>
      <rect id="Rectángulo_404782" data-name="Rectángulo 404782" width="3" height="3" transform="translate(6 6)" fill="#fff"/>
      <rect id="Rectángulo_404783" data-name="Rectángulo 404783" width="55" height="3" transform="translate(17 6)" fill="#fff"/>
      <rect id="Rectángulo_404784" data-name="Rectángulo 404784" width="3" height="2" transform="translate(30 22)" fill="#fff"/>
      <rect id="Rectángulo_404785" data-name="Rectángulo 404785" width="3" height="2" transform="translate(56 26)" fill="#fff"/>
      <rect id="Rectángulo_404786" data-name="Rectángulo 404786" width="2" height="2" transform="translate(10 26)" fill="#fff"/>
      <path id="Trazado_889416" data-name="Trazado 889416" d="M74.344,0H3.656A3.656,3.656,0,0,0,0,3.656V74.344A3.656,3.656,0,0,0,3.656,78H74.344A3.656,3.656,0,0,0,78,74.344V3.656A3.656,3.656,0,0,0,74.344,0ZM3.656,2.438H74.344a1.219,1.219,0,0,1,1.219,1.219v8.531H2.438V3.656A1.219,1.219,0,0,1,3.656,2.438ZM74.344,75.563H3.656a1.219,1.219,0,0,1-1.219-1.219V14.625H75.563V74.344A1.219,1.219,0,0,1,74.344,75.563Z"/>
      <rect id="Rectángulo_404787" data-name="Rectángulo 404787" width="2" height="3" transform="translate(11 6)"/>
      <path id="Trazado_889417" data-name="Trazado 889417" d="M55.1,43.736a1.219,1.219,0,0,0-.93-.663l-4.457-.595a14.569,14.569,0,0,0-1.1-2.65l2.732-3.573a1.219,1.219,0,0,0,.189-1.126l-.863-2.585a1.219,1.219,0,0,0-.77-.77l-2.585-.863a1.219,1.219,0,0,0-1.126.189l-3.573,2.732a14.569,14.569,0,0,0-2.65-1.1l-.595-4.457a1.219,1.219,0,0,0-.663-.93L36.27,26.13a1.219,1.219,0,0,0-1.09,0l-2.437,1.219a1.219,1.219,0,0,0-.663.93l-.595,4.457a14.569,14.569,0,0,0-2.65,1.1L25.262,31.1a1.219,1.219,0,0,0-1.126-.189l-2.585.863a1.219,1.219,0,0,0-.77.77l-.863,2.585a1.219,1.219,0,0,0,.189,1.126l2.732,3.573a14.569,14.569,0,0,0-1.1,2.65l-4.457.595a1.219,1.219,0,0,0-.93.663l-1.219,2.438a1.219,1.219,0,0,0,0,1.09L16.356,49.7a1.219,1.219,0,0,0,.93.663l4.457.595a14.569,14.569,0,0,0,1.1,2.65l-2.732,3.573a1.219,1.219,0,0,0-.189,1.126l.863,2.585a1.219,1.219,0,0,0,.77.77l2.585.863a1.228,1.228,0,0,0,1.126-.189L28.836,59.6a14.569,14.569,0,0,0,2.65,1.1l.595,4.457a1.219,1.219,0,0,0,.663.93l2.438,1.219a1.219,1.219,0,0,0,1.09,0l2.438-1.219a1.219,1.219,0,0,0,.663-.93l.595-4.457a14.57,14.57,0,0,0,2.65-1.1l3.573,2.732a1.227,1.227,0,0,0,1.126.189l2.585-.863a1.219,1.219,0,0,0,.77-.77l.863-2.585a1.219,1.219,0,0,0-.189-1.126l-2.732-3.573a14.569,14.569,0,0,0,1.1-2.65l4.457-.595a1.219,1.219,0,0,0,.93-.663l1.219-2.437a1.219,1.219,0,0,0,0-1.09Zm-1.892,4.3-4.62.615a1.219,1.219,0,0,0-1.024.923,12.107,12.107,0,0,1-1.45,3.5,1.219,1.219,0,0,0,.072,1.377l2.832,3.7-.466,1.394-1.394.466-3.71-2.832a1.219,1.219,0,0,0-1.377-.072,12.107,12.107,0,0,1-3.5,1.45,1.219,1.219,0,0,0-.923,1.024l-.615,4.62-1.315.657L34.4,64.2l-.609-4.62a1.219,1.219,0,0,0-.923-1.024,12.107,12.107,0,0,1-3.5-1.45A1.219,1.219,0,0,0,28,57.176l-3.7,2.832L22.9,59.543l-.466-1.394,2.832-3.7a1.219,1.219,0,0,0,.072-1.377,12.107,12.107,0,0,1-1.45-3.5,1.219,1.219,0,0,0-1.024-.923l-4.62-.615-.663-1.315.657-1.315,4.62-.615a1.219,1.219,0,0,0,1.024-.923,12.107,12.107,0,0,1,1.45-3.5,1.219,1.219,0,0,0-.072-1.377l-2.826-3.7.466-1.394,1.394-.466L28,36.26a1.219,1.219,0,0,0,1.377.072,12.107,12.107,0,0,1,3.5-1.45,1.219,1.219,0,0,0,.923-1.024l.609-4.62,1.315-.657,1.315.657.615,4.62a1.219,1.219,0,0,0,.923,1.024,12.107,12.107,0,0,1,3.5,1.45,1.219,1.219,0,0,0,1.377-.072l3.7-2.826,1.394.466.466,1.394-2.832,3.7a1.219,1.219,0,0,0-.072,1.377,12.107,12.107,0,0,1,1.45,3.5,1.219,1.219,0,0,0,1.024.923l4.62.615.657,1.315Z" transform="translate(3.283 5.688)"/>
      <path id="Trazado_889418" data-name="Trazado 889418" d="M33.531,36a8.531,8.531,0,1,0,8.531,8.531A8.531,8.531,0,0,0,33.531,36Zm0,14.625a6.094,6.094,0,1,1,6.094-6.094,6.094,6.094,0,0,1-6.094,6.094Z" transform="translate(5.469 7.875)"/>
      <rect id="Rectángulo_404788" data-name="Rectángulo 404788" width="3" height="2" transform="translate(35 22)"/>
      <path id="Trazado_889419" data-name="Trazado 889419" d="M71.031,17.656h-19.5V15.219A1.219,1.219,0,0,0,50.313,14H25.938a1.219,1.219,0,0,0-1.219,1.219v2.438H5.219A1.219,1.219,0,0,0,4,18.875V40.813a1.219,1.219,0,0,0,1.219,1.219H19.844V39.594H6.438v-9.75H24.719v1.219h2.438V26.188H49.094v4.875h2.438V29.844H69.813v9.75H56.406v2.438H71.031a1.219,1.219,0,0,0,1.219-1.219V18.875A1.219,1.219,0,0,0,71.031,17.656ZM6.438,27.406V20.094H24.719v7.313ZM27.156,23.75V16.438H49.094V23.75Zm24.375,3.656V20.094H69.813v7.313Z" transform="translate(0.875 3.063)"/>
      <rect id="Rectángulo_404789" data-name="Rectángulo 404789" width="2" height="2" transform="translate(15 26)"/>
      <path id="Trazado_889420" data-name="Trazado 889420" d="M57.875,48.094a.987.987,0,0,1-.865-.355c-.745-.9-.575-3.276-.377-4.283A1.219,1.219,0,0,0,55.438,42H53v2.438h1.054a7.155,7.155,0,0,0,1.069,4.847,3.309,3.309,0,0,0,1.533,1.058v.378a3.309,3.309,0,0,0-1.533,1.058,7.155,7.155,0,0,0-1.069,4.847H53v2.438h2.438a1.219,1.219,0,0,0,1.2-1.463c-.2-1.007-.366-3.378.377-4.283a.987.987,0,0,1,.865-.349,1.219,1.219,0,0,0,1.219-1.219V49.313A1.219,1.219,0,0,0,57.875,48.094Z" transform="translate(11.594 9.188)"/>
      <path id="Trazado_889421" data-name="Trazado 889421" d="M8.715,42.446a1.219,1.219,0,0,0-.255,1.01c.2,1.007.366,3.378-.377,4.283a.987.987,0,0,1-.865.355A1.219,1.219,0,0,0,6,49.313V51.75a1.219,1.219,0,0,0,1.219,1.219.987.987,0,0,1,.865.355c.745.9.575,3.276.377,4.283a1.219,1.219,0,0,0,1.2,1.456h2.438V56.625H11.04a7.155,7.155,0,0,0-1.069-4.847A3.309,3.309,0,0,0,8.438,50.72v-.378a3.309,3.309,0,0,0,1.533-1.058,7.155,7.155,0,0,0,1.069-4.847h1.054V42H9.656a1.219,1.219,0,0,0-.941.446Z" transform="translate(1.313 9.188)"/>
    </g>
    <rect id="Rectángulo_404790" data-name="Rectángulo 404790" width="95" height="95" transform="translate(423 1276)" fill="none"/>
  </g>
</svg>
