<svg xmlns="http://www.w3.org/2000/svg" width="412" height="402.5" viewBox="0 0 412 402.5">
  <g id="Grupo_1103719" data-name="Grupo 1103719" transform="translate(3904 8399.5)">
    <g id="Trazado_889430" data-name="Trazado 889430" transform="translate(-3565 -8399.5) rotate(90)" fill="#3a1d71">
      <path d="M 84.5 251.5 L 0.5 251.5 L 0.5 0.5 L 84.5 0.5 L 84.5 251.5 Z" stroke="none"/>
      <path d="M 1 1 L 1 251 L 84 251 L 84 1 L 1 1 M 0 0 L 85 0 L 85 252 L 0 252 L 0 0 Z" stroke="none" fill="#707070"/>
    </g>
    <path id="Trazado_889432" data-name="Trazado 889432" d="M0,0H87V55H0Z" transform="translate(-3904 -8187)" fill="#beb4d0"/>
    <path id="Trazado_889436" data-name="Trazado 889436" d="M10.547-11H6.557V0H4.351V-11H.4V-12.8H10.547ZM14.317,0H12.182V-9.51h2.136Zm-.4-13.438h2.435l-2.435,2.663-1.714,0Zm5.511,1.617V-9.51H21.1v1.582H19.424v5.309a1.169,1.169,0,0,0,.215.787,1,1,0,0,0,.769.242,3.29,3.29,0,0,0,.747-.088V-.026a5.26,5.26,0,0,1-1.406.2q-2.461,0-2.461-2.716V-7.928H15.724V-9.51h1.564v-2.312Zm9.07,10.89A3.312,3.312,0,0,1,25.822.176,2.952,2.952,0,0,1,23.48-.729a3.851,3.851,0,0,1-.8-2.619V-9.51H24.82v6.135q0,1.811,1.5,1.811a2.111,2.111,0,0,0,2.1-1.116V-9.51H30.56V0H28.547ZM35.007,0H32.871V-13.5h2.136Zm1.925-4.843a5.607,5.607,0,0,1,.554-2.518,4.044,4.044,0,0,1,1.556-1.723,4.383,4.383,0,0,1,2.3-.6,4.154,4.154,0,0,1,3.125,1.239,4.874,4.874,0,0,1,1.3,3.287l.009.5a5.658,5.658,0,0,1-.541,2.514A4,4,0,0,1,43.686-.431a4.415,4.415,0,0,1-2.325.606,4.125,4.125,0,0,1-3.221-1.34,5.133,5.133,0,0,1-1.208-3.573Zm2.136.185a3.832,3.832,0,0,0,.606,2.3,1.971,1.971,0,0,0,1.688.831,1.95,1.95,0,0,0,1.683-.844,4.232,4.232,0,0,0,.6-2.47,3.782,3.782,0,0,0-.62-2.285,1.979,1.979,0,0,0-1.683-.844,1.96,1.96,0,0,0-1.661.831A4.152,4.152,0,0,0,39.067-4.658Z" transform="translate(-3884 -8152)" fill="#12263f"/>
    <path id="Trazado_889433" data-name="Trazado 889433" d="M0,0H84V55H0Z" transform="translate(-3812 -8187)" fill="#beb4d0"/>
    <path id="Trazado_889437" data-name="Trazado 889437" d="M8.464-2.979H3.507L2.47,0H.158L4.992-12.8h2L11.83,0H9.51ZM4.131-4.772H7.84L5.985-10.081ZM18.738-.932A3.312,3.312,0,0,1,16.066.176a2.952,2.952,0,0,1-2.342-.905,3.851,3.851,0,0,1-.8-2.619V-9.51h2.136v6.135q0,1.811,1.5,1.811a2.111,2.111,0,0,0,2.1-1.116V-9.51H20.8V0H18.791Zm6.917-10.89V-9.51h1.679v1.582H25.655v5.309a1.169,1.169,0,0,0,.215.787,1,1,0,0,0,.769.242,3.29,3.29,0,0,0,.747-.088V-.026a5.26,5.26,0,0,1-1.406.2Q23.52.176,23.52-2.54V-7.928H21.955V-9.51H23.52v-2.312ZM28.3-4.843a5.607,5.607,0,0,1,.554-2.518A4.044,4.044,0,0,1,30.41-9.083a4.383,4.383,0,0,1,2.3-.6,4.154,4.154,0,0,1,3.125,1.239,4.874,4.874,0,0,1,1.3,3.287l.009.5A5.658,5.658,0,0,1,36.6-2.145,4,4,0,0,1,35.055-.431,4.415,4.415,0,0,1,32.73.176a4.125,4.125,0,0,1-3.221-1.34A5.133,5.133,0,0,1,28.3-4.737Zm2.136.185a3.832,3.832,0,0,0,.606,2.3,1.971,1.971,0,0,0,1.688.831,1.95,1.95,0,0,0,1.683-.844,4.232,4.232,0,0,0,.6-2.47,3.782,3.782,0,0,0-.62-2.285,1.979,1.979,0,0,0-1.683-.844,1.96,1.96,0,0,0-1.661.831A4.152,4.152,0,0,0,30.437-4.658Zm13.491-2.9a5.285,5.285,0,0,0-.87-.07A1.959,1.959,0,0,0,41.08-6.5V0H38.944V-9.51h2.039l.053,1.063a2.406,2.406,0,0,1,2.145-1.239,2,2,0,0,1,.756.123Z" transform="translate(-3797 -8152)" fill="#12263f"/>
    <path id="Trazado_889444" data-name="Trazado 889444" d="M0,0H87V55H0Z" transform="translate(-3904 -8052)" fill="#d6e1fd"/>
    <path id="Trazado_889448" data-name="Trazado 889448" d="M8.464-2.979H3.507L2.47,0H.158L4.992-12.8h2L11.83,0H9.51ZM4.131-4.772H7.84L5.985-10.081ZM18.738-.932A3.312,3.312,0,0,1,16.066.176a2.952,2.952,0,0,1-2.342-.905,3.851,3.851,0,0,1-.8-2.619V-9.51h2.136v6.135q0,1.811,1.5,1.811a2.111,2.111,0,0,0,2.1-1.116V-9.51H20.8V0H18.791Zm6.917-10.89V-9.51h1.679v1.582H25.655v5.309a1.169,1.169,0,0,0,.215.787,1,1,0,0,0,.769.242,3.29,3.29,0,0,0,.747-.088V-.026a5.26,5.26,0,0,1-1.406.2Q23.52.176,23.52-2.54V-7.928H21.955V-9.51H23.52v-2.312ZM28.3-4.843a5.607,5.607,0,0,1,.554-2.518A4.044,4.044,0,0,1,30.41-9.083a4.383,4.383,0,0,1,2.3-.6,4.154,4.154,0,0,1,3.125,1.239,4.874,4.874,0,0,1,1.3,3.287l.009.5A5.658,5.658,0,0,1,36.6-2.145,4,4,0,0,1,35.055-.431,4.415,4.415,0,0,1,32.73.176a4.125,4.125,0,0,1-3.221-1.34A5.133,5.133,0,0,1,28.3-4.737Zm2.136.185a3.832,3.832,0,0,0,.606,2.3,1.971,1.971,0,0,0,1.688.831,1.95,1.95,0,0,0,1.683-.844,4.232,4.232,0,0,0,.6-2.47,3.782,3.782,0,0,0-.62-2.285,1.979,1.979,0,0,0-1.683-.844,1.96,1.96,0,0,0-1.661.831A4.152,4.152,0,0,0,30.437-4.658Zm13.491-2.9a5.285,5.285,0,0,0-.87-.07A1.959,1.959,0,0,0,41.08-6.5V0H38.944V-9.51h2.039l.053,1.063a2.406,2.406,0,0,1,2.145-1.239,2,2,0,0,1,.756.123ZM55.406,0H53.279V-10.281l-3.138,1.07V-11l4.992-1.837h.272Z" transform="translate(-3890 -8017)" fill="#12263f"/>
    <path id="Trazado_889445" data-name="Trazado 889445" d="M0,0H84V55H0Z" transform="translate(-3708 -8052)" fill="#d6e1fd"/>
    <path id="Trazado_889449" data-name="Trazado 889449" d="M4.184-12.8,7.875-2.988,11.558-12.8h2.874V0H12.217V-4.219l.22-5.643L8.657,0H7.066L3.3-9.853l.22,5.634V0H1.3V-12.8Zm12.27,7.954a5.607,5.607,0,0,1,.554-2.518,4.044,4.044,0,0,1,1.556-1.723,4.383,4.383,0,0,1,2.3-.6A4.154,4.154,0,0,1,23.99-8.446a4.874,4.874,0,0,1,1.3,3.287l.009.5a5.658,5.658,0,0,1-.541,2.514A4,4,0,0,1,23.208-.431a4.415,4.415,0,0,1-2.325.606,4.125,4.125,0,0,1-3.221-1.34,5.133,5.133,0,0,1-1.208-3.573Zm2.136.185a3.832,3.832,0,0,0,.606,2.3,1.971,1.971,0,0,0,1.688.831,1.95,1.95,0,0,0,1.683-.844,4.232,4.232,0,0,0,.6-2.47,3.782,3.782,0,0,0-.62-2.285,1.979,1.979,0,0,0-1.683-.844,1.96,1.96,0,0,0-1.661.831A4.152,4.152,0,0,0,18.589-4.658ZM29.083-9.51l.062,1.1a3.419,3.419,0,0,1,2.769-1.274q2.971,0,3.023,3.4V0H32.8V-6.161A1.958,1.958,0,0,0,32.41-7.5a1.645,1.645,0,0,0-1.279-.435,2.058,2.058,0,0,0-1.925,1.169V0H27.07V-9.51ZM41.3.176A4.419,4.419,0,0,1,38.008-1.1a4.639,4.639,0,0,1-1.261-3.406v-.264A5.706,5.706,0,0,1,37.3-7.317a4.181,4.181,0,0,1,1.542-1.745,4.078,4.078,0,0,1,2.215-.624,3.733,3.733,0,0,1,3,1.239,5.24,5.24,0,0,1,1.059,3.507v.861H38.9a2.856,2.856,0,0,0,.787,1.863,2.362,2.362,0,0,0,1.736.686,2.892,2.892,0,0,0,2.391-1.187l1.151,1.1A3.845,3.845,0,0,1,43.44-.294,4.774,4.774,0,0,1,41.3.176Zm-.255-8.147a1.8,1.8,0,0,0-1.419.615,3.189,3.189,0,0,0-.69,1.714H43V-5.8a2.6,2.6,0,0,0-.571-1.622A1.785,1.785,0,0,0,41.045-7.972Zm5.326,3.146a5.654,5.654,0,0,1,1.02-3.529,3.267,3.267,0,0,1,2.733-1.332,3.1,3.1,0,0,1,2.443,1.055V-13.5H54.7V0H52.77l-.105-.984A3.148,3.148,0,0,1,50.106.176a3.248,3.248,0,0,1-2.7-1.345A5.861,5.861,0,0,1,46.371-4.825Zm2.136.185a3.958,3.958,0,0,0,.558,2.263,1.811,1.811,0,0,0,1.586.813,2.017,2.017,0,0,0,1.916-1.169V-6.794a1.986,1.986,0,0,0-1.9-1.143,1.824,1.824,0,0,0-1.6.822A4.408,4.408,0,0,0,48.507-4.641ZM62.613,0a3.3,3.3,0,0,1-.246-.888,3.325,3.325,0,0,1-2.5,1.063,3.355,3.355,0,0,1-2.338-.817,2.615,2.615,0,0,1-.905-2.021A2.7,2.7,0,0,1,57.757-5a5.473,5.473,0,0,1,3.23-.813H62.3v-.624a1.666,1.666,0,0,0-.413-1.182,1.638,1.638,0,0,0-1.257-.444,1.881,1.881,0,0,0-1.2.365,1.129,1.129,0,0,0-.466.927H56.83a2.37,2.37,0,0,1,.519-1.463A3.455,3.455,0,0,1,58.759-9.3a4.955,4.955,0,0,1,1.991-.387,3.99,3.99,0,0,1,2.663.839,2.993,2.993,0,0,1,1.02,2.36V-2.2a4.861,4.861,0,0,0,.36,2.048V0ZM60.267-1.538a2.429,2.429,0,0,0,1.191-.308,2.055,2.055,0,0,0,.839-.826V-4.465H61.146a3.148,3.148,0,0,0-1.784.413,1.338,1.338,0,0,0-.6,1.169,1.248,1.248,0,0,0,.409.98A1.583,1.583,0,0,0,60.267-1.538Z" transform="translate(-3699 -8018)" fill="#12263f"/>
    <path id="Trazado_889129" data-name="Trazado 889129" d="M-4698-8328h-34.988v113.2H-4698" transform="translate(-12075.798 -3354) rotate(90)" fill="none" stroke="#000" stroke-width="1"/>
    <path id="Trazado_889130" data-name="Trazado 889130" d="M-5033.817-8290.5h45.012" transform="translate(-12065.5 -3098.182) rotate(90)" fill="none" stroke="#000" stroke-width="1"/>
    <path id="Trazado_889440" data-name="Trazado 889440" d="M5585,11706h-24v-11h24v-8l23,13.5-23,13.5Z" transform="translate(8035.002 -13670) rotate(90)" fill="#3a1d71"/>
    <g id="Grupo_1103714" data-name="Grupo 1103714" transform="translate(-507 -3)">
      <path id="Trazado_889125" data-name="Trazado 889125" d="M-4981-8355.5h-52.818v311.406H-4981" transform="translate(-11391 -3230) rotate(90)" fill="none" stroke="#000" stroke-width="1"/>
      <path id="Trazado_889126" data-name="Trazado 889126" d="M-5033.818-8290.5H-4981" transform="translate(-11448 -3230) rotate(90)" fill="none" stroke="#000" stroke-width="1"/>
      <path id="Trazado_889127" data-name="Trazado 889127" d="M-5033.818-8290.5H-4981" transform="translate(-11553 -3230) rotate(90)" fill="none" stroke="#000" stroke-width="1"/>
      <path id="Trazado_889128" data-name="Trazado 889128" d="M-5033.818-8290.5H-4981" transform="translate(-11477 -3282.182) rotate(90)" fill="none" stroke="#000" stroke-width="1"/>
      <path id="Polígono_9" data-name="Polígono 9" d="M8.5,0,17,14H0Z" transform="translate(-3028 -8197) rotate(180)" fill="#3a1d71"/>
      <path id="Polígono_10" data-name="Polígono 10" d="M8.5,0,17,14H0Z" transform="translate(-3149 -8197) rotate(180)" fill="#3a1d71"/>
      <path id="Polígono_11" data-name="Polígono 11" d="M8.5,0,17,14H0Z" transform="translate(-3254 -8197) rotate(180)" fill="#3a1d71"/>
      <path id="Polígono_12" data-name="Polígono 12" d="M8.5,0,17,14H0Z" transform="translate(-3338 -8197) rotate(180)" fill="#3a1d71"/>
    </g>
    <path id="Trazado_889442" data-name="Trazado 889442" d="M8.5,0,17,14H0Z" transform="translate(-3853 -8052) rotate(180)" fill="#3a1d71"/>
    <path id="Trazado_889443" data-name="Trazado 889443" d="M8.5,0,17,14H0Z" transform="translate(-3739 -8052) rotate(180)" fill="#3a1d71"/>
    <path id="Trazado_889431" data-name="Trazado 889431" d="M3.524-1.775h5.81V0H1.3V-12.8H3.524ZM13.1,0H10.969V-9.51H13.1ZM10.837-11.979a1.133,1.133,0,0,1,.312-.817,1.179,1.179,0,0,1,.892-.325,1.193,1.193,0,0,1,.9.325,1.125,1.125,0,0,1,.316.817,1.1,1.1,0,0,1-.316.8,1.2,1.2,0,0,1-.9.321,1.188,1.188,0,0,1-.892-.321A1.107,1.107,0,0,1,10.837-11.979ZM23.774-4.658a5.712,5.712,0,0,1-.989,3.524,3.221,3.221,0,0,1-2.72,1.31,3.1,3.1,0,0,1-2.6-1.2L17.358,0H15.425V-13.5h2.136v4.9a3.091,3.091,0,0,1,2.487-1.09,3.258,3.258,0,0,1,2.733,1.292,5.807,5.807,0,0,1,.993,3.612Zm-2.136-.185a4.037,4.037,0,0,0-.545-2.32,1.815,1.815,0,0,0-1.582-.773,1.983,1.983,0,0,0-1.951,1.213V-2.8a2,2,0,0,0,1.969,1.239,1.8,1.8,0,0,0,1.547-.747,3.912,3.912,0,0,0,.563-2.259Zm8.9-2.716a5.285,5.285,0,0,0-.87-.07A1.959,1.959,0,0,0,27.694-6.5V0H25.559V-9.51H27.6l.053,1.063a2.406,2.406,0,0,1,2.145-1.239,2,2,0,0,1,.756.123Zm.633,2.716a5.607,5.607,0,0,1,.554-2.518,4.044,4.044,0,0,1,1.556-1.723,4.383,4.383,0,0,1,2.3-.6,4.154,4.154,0,0,1,3.125,1.239,4.874,4.874,0,0,1,1.3,3.287l.009.5a5.658,5.658,0,0,1-.541,2.514A4,4,0,0,1,37.929-.431,4.415,4.415,0,0,1,35.6.176a4.125,4.125,0,0,1-3.221-1.34,5.133,5.133,0,0,1-1.208-3.573Zm2.136.185a3.832,3.832,0,0,0,.606,2.3,1.971,1.971,0,0,0,1.688.831,1.95,1.95,0,0,0,1.683-.844,4.232,4.232,0,0,0,.6-2.47,3.782,3.782,0,0,0-.62-2.285,1.979,1.979,0,0,0-1.683-.844,1.96,1.96,0,0,0-1.661.831A4.152,4.152,0,0,0,33.311-4.658Z" transform="translate(-3714 -8350.5)" fill="#fff"/>
    <path id="Trazado_889434" data-name="Trazado 889434" d="M0,0H79V55H0Z" transform="translate(-3704 -8187)" fill="#beb4d0"/>
    <path id="Trazado_889438" data-name="Trazado 889438" d="M3.524-4.746V0H1.3V-12.8H6.2A4.95,4.95,0,0,1,9.6-11.679a3.757,3.757,0,0,1,1.261,2.956,3.633,3.633,0,0,1-1.235,2.93A5.19,5.19,0,0,1,6.17-4.746Zm0-1.793H6.2A2.632,2.632,0,0,0,8.007-7.1,2.051,2.051,0,0,0,8.631-8.71,2.213,2.213,0,0,0,8-10.367,2.439,2.439,0,0,0,6.258-11H3.524Zm14.054-1.02a5.285,5.285,0,0,0-.87-.07A1.959,1.959,0,0,0,14.73-6.5V0H12.595V-9.51h2.039l.053,1.063a2.406,2.406,0,0,1,2.145-1.239,2,2,0,0,1,.756.123ZM23.115.176A4.419,4.419,0,0,1,19.824-1.1a4.639,4.639,0,0,1-1.261-3.406v-.264a5.706,5.706,0,0,1,.549-2.544,4.181,4.181,0,0,1,1.542-1.745,4.078,4.078,0,0,1,2.215-.624,3.733,3.733,0,0,1,3,1.239A5.24,5.24,0,0,1,26.93-4.939v.861H20.716A2.856,2.856,0,0,0,21.5-2.215a2.362,2.362,0,0,0,1.736.686,2.892,2.892,0,0,0,2.391-1.187l1.151,1.1A3.845,3.845,0,0,1,25.255-.294,4.774,4.774,0,0,1,23.115.176ZM22.86-7.972a1.8,1.8,0,0,0-1.419.615,3.189,3.189,0,0,0-.69,1.714H24.82V-5.8a2.6,2.6,0,0,0-.571-1.622A1.785,1.785,0,0,0,22.86-7.972Zm9.633,6.442A1.931,1.931,0,0,0,33.82-2a1.591,1.591,0,0,0,.563-1.151H36.4a3.137,3.137,0,0,1-.554,1.657A3.632,3.632,0,0,1,34.436-.272,4.191,4.191,0,0,1,32.52.176a4.055,4.055,0,0,1-3.164-1.292,5.124,5.124,0,0,1-1.169-3.568V-4.9a5.039,5.039,0,0,1,1.16-3.476,4.018,4.018,0,0,1,3.164-1.305,3.907,3.907,0,0,1,2.764.989A3.542,3.542,0,0,1,36.4-6.1H34.383a1.956,1.956,0,0,0-.558-1.345,1.8,1.8,0,0,0-1.332-.527,1.879,1.879,0,0,0-1.6.751,3.834,3.834,0,0,0-.571,2.281V-4.6A3.9,3.9,0,0,0,30.88-2.29,1.878,1.878,0,0,0,32.493-1.529ZM40.28,0H38.145V-9.51H40.28ZM38.013-11.979a1.133,1.133,0,0,1,.312-.817,1.179,1.179,0,0,1,.892-.325,1.193,1.193,0,0,1,.9.325,1.125,1.125,0,0,1,.316.817,1.1,1.1,0,0,1-.316.8,1.2,1.2,0,0,1-.9.321,1.188,1.188,0,0,1-.892-.321A1.107,1.107,0,0,1,38.013-11.979Zm4.192,7.137a5.607,5.607,0,0,1,.554-2.518,4.044,4.044,0,0,1,1.556-1.723,4.383,4.383,0,0,1,2.3-.6,4.154,4.154,0,0,1,3.125,1.239,4.874,4.874,0,0,1,1.3,3.287l.009.5a5.658,5.658,0,0,1-.541,2.514A4,4,0,0,1,48.959-.431a4.415,4.415,0,0,1-2.325.606,4.125,4.125,0,0,1-3.221-1.34,5.133,5.133,0,0,1-1.208-3.573Zm2.136.185a3.832,3.832,0,0,0,.606,2.3,1.971,1.971,0,0,0,1.688.831,1.95,1.95,0,0,0,1.683-.844,4.232,4.232,0,0,0,.6-2.47,3.782,3.782,0,0,0-.62-2.285,1.979,1.979,0,0,0-1.683-.844,1.96,1.96,0,0,0-1.661.831A4.152,4.152,0,0,0,44.341-4.658Z" transform="translate(-3691 -8152)" fill="#12263f"/>
    <path id="Trazado_889435" data-name="Trazado 889435" d="M0,0H128V55H0Z" transform="translate(-3620 -8187)" fill="#beb4d0"/>
    <path id="Trazado_889439" data-name="Trazado 889439" d="M1.3,0V-12.8H5.08a5.928,5.928,0,0,1,3.01.756A5.154,5.154,0,0,1,10.125-9.9a6.807,6.807,0,0,1,.721,3.182v.642a6.779,6.779,0,0,1-.725,3.2A5.092,5.092,0,0,1,8.055-.747,6.2,6.2,0,0,1,4.983,0ZM3.524-11v9.229h1.45A3.339,3.339,0,0,0,7.66-2.87a4.766,4.766,0,0,0,.954-3.142v-.712a4.891,4.891,0,0,0-.905-3.182A3.209,3.209,0,0,0,5.08-11ZM17.042.176A4.419,4.419,0,0,1,13.75-1.1a4.639,4.639,0,0,1-1.261-3.406v-.264a5.706,5.706,0,0,1,.549-2.544,4.181,4.181,0,0,1,1.542-1.745A4.078,4.078,0,0,1,16.8-9.686a3.733,3.733,0,0,1,3,1.239,5.24,5.24,0,0,1,1.059,3.507v.861H14.643a2.856,2.856,0,0,0,.787,1.863,2.362,2.362,0,0,0,1.736.686,2.892,2.892,0,0,0,2.391-1.187l1.151,1.1A3.845,3.845,0,0,1,19.182-.294,4.774,4.774,0,0,1,17.042.176Zm-.255-8.147a1.8,1.8,0,0,0-1.419.615,3.189,3.189,0,0,0-.69,1.714h4.069V-5.8a2.6,2.6,0,0,0-.571-1.622A1.785,1.785,0,0,0,16.787-7.972ZM27.844-2.584a.968.968,0,0,0-.47-.87,5,5,0,0,0-1.56-.527,8.02,8.02,0,0,1-1.819-.58,2.428,2.428,0,0,1-1.6-2.241,2.531,2.531,0,0,1,1.037-2.057,4.1,4.1,0,0,1,2.637-.826,4.266,4.266,0,0,1,2.755.844,2.677,2.677,0,0,1,1.05,2.188H27.738a1.316,1.316,0,0,0-.457-1.024,1.752,1.752,0,0,0-1.213-.409,1.893,1.893,0,0,0-1.147.325,1.025,1.025,0,0,0-.444.87.866.866,0,0,0,.413.765,5.68,5.68,0,0,0,1.67.549,7.9,7.9,0,0,1,1.973.659A2.794,2.794,0,0,1,29.6-4a2.342,2.342,0,0,1,.347,1.3A2.478,2.478,0,0,1,28.881-.62a4.535,4.535,0,0,1-2.786.8,4.917,4.917,0,0,1-2.083-.422,3.428,3.428,0,0,1-1.424-1.16A2.746,2.746,0,0,1,22.078-3h2.074a1.5,1.5,0,0,0,.571,1.165,2.22,2.22,0,0,0,1.4.409A2.16,2.16,0,0,0,27.4-1.745.993.993,0,0,0,27.844-2.584ZM35.71-1.529A1.931,1.931,0,0,0,37.037-2,1.591,1.591,0,0,0,37.6-3.146h2.013a3.137,3.137,0,0,1-.554,1.657A3.632,3.632,0,0,1,37.652-.272a4.191,4.191,0,0,1-1.916.448,4.055,4.055,0,0,1-3.164-1.292A5.124,5.124,0,0,1,31.4-4.685V-4.9a5.039,5.039,0,0,1,1.16-3.476,4.018,4.018,0,0,1,3.164-1.305,3.907,3.907,0,0,1,2.764.989,3.542,3.542,0,0,1,1.121,2.6H37.6a1.956,1.956,0,0,0-.558-1.345,1.8,1.8,0,0,0-1.332-.527,1.879,1.879,0,0,0-1.6.751,3.834,3.834,0,0,0-.571,2.281V-4.6A3.9,3.9,0,0,0,34.1-2.29,1.878,1.878,0,0,0,35.71-1.529ZM46.2-7.559a5.285,5.285,0,0,0-.87-.07A1.959,1.959,0,0,0,43.356-6.5V0H41.221V-9.51H43.26l.053,1.063a2.406,2.406,0,0,1,2.145-1.239,2,2,0,0,1,.756.123ZM49.825,0H47.689V-9.51h2.136ZM47.558-11.979a1.133,1.133,0,0,1,.312-.817,1.179,1.179,0,0,1,.892-.325,1.193,1.193,0,0,1,.9.325,1.125,1.125,0,0,1,.316.817,1.1,1.1,0,0,1-.316.8,1.2,1.2,0,0,1-.9.321,1.188,1.188,0,0,1-.892-.321A1.107,1.107,0,0,1,47.558-11.979Zm12.92,7.321a5.662,5.662,0,0,1-1,3.52A3.209,3.209,0,0,1,56.786.176a3.23,3.23,0,0,1-2.5-1.028V3.656H52.146V-9.51h1.969l.088.967A3.137,3.137,0,0,1,56.76-9.686a3.242,3.242,0,0,1,2.729,1.3,5.813,5.813,0,0,1,.989,3.6Zm-2.127-.185A3.966,3.966,0,0,0,57.784-7.1a1.843,1.843,0,0,0-1.622-.835,1.965,1.965,0,0,0-1.881,1.081v4.219a1.983,1.983,0,0,0,1.9,1.107,1.841,1.841,0,0,0,1.6-.822A4.366,4.366,0,0,0,58.351-4.843Zm6.609-6.979V-9.51h1.679v1.582H64.96v5.309a1.169,1.169,0,0,0,.215.787,1,1,0,0,0,.769.242,3.29,3.29,0,0,0,.747-.088V-.026a5.26,5.26,0,0,1-1.406.2q-2.461,0-2.461-2.716V-7.928H61.26V-9.51h1.564v-2.312Zm2.646,6.979a5.607,5.607,0,0,1,.554-2.518,4.044,4.044,0,0,1,1.556-1.723,4.383,4.383,0,0,1,2.3-.6,4.154,4.154,0,0,1,3.125,1.239,4.874,4.874,0,0,1,1.3,3.287l.009.5a5.658,5.658,0,0,1-.541,2.514A4,4,0,0,1,74.36-.431a4.415,4.415,0,0,1-2.325.606,4.125,4.125,0,0,1-3.221-1.34,5.133,5.133,0,0,1-1.208-3.573Zm2.136.185a3.832,3.832,0,0,0,.606,2.3,1.971,1.971,0,0,0,1.688.831,1.95,1.95,0,0,0,1.683-.844,4.232,4.232,0,0,0,.6-2.47,3.782,3.782,0,0,0-.62-2.285,1.979,1.979,0,0,0-1.683-.844,1.96,1.96,0,0,0-1.661.831A4.152,4.152,0,0,0,69.741-4.658Zm13.491-2.9a5.285,5.285,0,0,0-.87-.07A1.959,1.959,0,0,0,80.385-6.5V0H78.249V-9.51h2.039l.053,1.063a2.406,2.406,0,0,1,2.145-1.239,2,2,0,0,1,.756.123ZM88.77.176A4.419,4.419,0,0,1,85.478-1.1a4.639,4.639,0,0,1-1.261-3.406v-.264a5.706,5.706,0,0,1,.549-2.544,4.181,4.181,0,0,1,1.542-1.745,4.078,4.078,0,0,1,2.215-.624,3.733,3.733,0,0,1,3,1.239,5.24,5.24,0,0,1,1.059,3.507v.861H86.37a2.856,2.856,0,0,0,.787,1.863,2.362,2.362,0,0,0,1.736.686,2.892,2.892,0,0,0,2.391-1.187l1.151,1.1A3.845,3.845,0,0,1,90.91-.294,4.774,4.774,0,0,1,88.77.176Zm-.255-8.147a1.8,1.8,0,0,0-1.419.615,3.189,3.189,0,0,0-.69,1.714h4.069V-5.8A2.6,2.6,0,0,0,89.9-7.422,1.785,1.785,0,0,0,88.515-7.972ZM99.571-2.584a.968.968,0,0,0-.47-.87,5,5,0,0,0-1.56-.527,8.02,8.02,0,0,1-1.819-.58,2.428,2.428,0,0,1-1.6-2.241,2.531,2.531,0,0,1,1.037-2.057A4.1,4.1,0,0,1,97.8-9.686a4.266,4.266,0,0,1,2.755.844,2.677,2.677,0,0,1,1.05,2.188H99.466a1.316,1.316,0,0,0-.457-1.024A1.752,1.752,0,0,0,97.8-8.086a1.893,1.893,0,0,0-1.147.325,1.025,1.025,0,0,0-.444.87.866.866,0,0,0,.413.765,5.68,5.68,0,0,0,1.67.549,7.9,7.9,0,0,1,1.973.659A2.794,2.794,0,0,1,101.325-4a2.342,2.342,0,0,1,.347,1.3A2.478,2.478,0,0,1,100.608-.62a4.535,4.535,0,0,1-2.786.8,4.917,4.917,0,0,1-2.083-.422,3.428,3.428,0,0,1-1.424-1.16A2.746,2.746,0,0,1,93.806-3H95.88a1.5,1.5,0,0,0,.571,1.165,2.22,2.22,0,0,0,1.4.409,2.16,2.16,0,0,0,1.283-.321A.993.993,0,0,0,99.571-2.584Z" transform="translate(-3607 -8152)" fill="#12263f"/>
    <path id="Trazado_889446" data-name="Trazado 889446" d="M0,0H87V55H0Z" transform="translate(-3812 -8052)" fill="#d6e1fd"/>
    <path id="Trazado_889450" data-name="Trazado 889450" d="M8.464-2.979H3.507L2.47,0H.158L4.992-12.8h2L11.83,0H9.51ZM4.131-4.772H7.84L5.985-10.081ZM18.738-.932A3.312,3.312,0,0,1,16.066.176a2.952,2.952,0,0,1-2.342-.905,3.851,3.851,0,0,1-.8-2.619V-9.51h2.136v6.135q0,1.811,1.5,1.811a2.111,2.111,0,0,0,2.1-1.116V-9.51H20.8V0H18.791Zm6.917-10.89V-9.51h1.679v1.582H25.655v5.309a1.169,1.169,0,0,0,.215.787,1,1,0,0,0,.769.242,3.29,3.29,0,0,0,.747-.088V-.026a5.26,5.26,0,0,1-1.406.2Q23.52.176,23.52-2.54V-7.928H21.955V-9.51H23.52v-2.312ZM28.3-4.843a5.607,5.607,0,0,1,.554-2.518A4.044,4.044,0,0,1,30.41-9.083a4.383,4.383,0,0,1,2.3-.6,4.154,4.154,0,0,1,3.125,1.239,4.874,4.874,0,0,1,1.3,3.287l.009.5A5.658,5.658,0,0,1,36.6-2.145,4,4,0,0,1,35.055-.431,4.415,4.415,0,0,1,32.73.176a4.125,4.125,0,0,1-3.221-1.34A5.133,5.133,0,0,1,28.3-4.737Zm2.136.185a3.832,3.832,0,0,0,.606,2.3,1.971,1.971,0,0,0,1.688.831,1.95,1.95,0,0,0,1.683-.844,4.232,4.232,0,0,0,.6-2.47,3.782,3.782,0,0,0-.62-2.285,1.979,1.979,0,0,0-1.683-.844,1.96,1.96,0,0,0-1.661.831A4.152,4.152,0,0,0,30.437-4.658Zm13.491-2.9a5.285,5.285,0,0,0-.87-.07A1.959,1.959,0,0,0,41.08-6.5V0H38.944V-9.51h2.039l.053,1.063a2.406,2.406,0,0,1,2.145-1.239,2,2,0,0,1,.756.123ZM58.228,0h-8.6V-1.468l4.263-4.649A10.615,10.615,0,0,0,55.2-7.835a2.784,2.784,0,0,0,.391-1.384,2.1,2.1,0,0,0-.514-1.477,1.783,1.783,0,0,0-1.384-.562,2.056,2.056,0,0,0-1.608.633,2.489,2.489,0,0,0-.571,1.731H49.377a4.186,4.186,0,0,1,.532-2.1,3.662,3.662,0,0,1,1.521-1.455,4.84,4.84,0,0,1,2.281-.519,4.329,4.329,0,0,1,2.94.936,3.249,3.249,0,0,1,1.077,2.588,4.392,4.392,0,0,1-.541,2.008,11.42,11.42,0,0,1-1.771,2.386L52.286-1.705h5.941Z" transform="translate(-3798 -8017)" fill="#12263f"/>
    <path id="Trazado_889441" data-name="Trazado 889441" d="M5585,11706h-24v-11h24v-8l23,13.5-23,13.5Z" transform="translate(8158.002 -13670) rotate(90)" fill="#3a1d71"/>
    <path id="Trazado_889447" data-name="Trazado 889447" d="M0,0H127V55H0Z" transform="translate(-3619 -8052)" fill="#d6e1fd"/>
    <path id="Trazado_889451" data-name="Trazado 889451" d="M3.524-1.775h5.81V0H1.3V-12.8H3.524ZM15.021.176A4.419,4.419,0,0,1,11.729-1.1a4.639,4.639,0,0,1-1.261-3.406v-.264a5.706,5.706,0,0,1,.549-2.544A4.181,4.181,0,0,1,12.56-9.062a4.078,4.078,0,0,1,2.215-.624,3.733,3.733,0,0,1,3,1.239,5.24,5.24,0,0,1,1.059,3.507v.861H12.621a2.856,2.856,0,0,0,.787,1.863,2.362,2.362,0,0,0,1.736.686,2.892,2.892,0,0,0,2.391-1.187l1.151,1.1A3.845,3.845,0,0,1,17.161-.294,4.774,4.774,0,0,1,15.021.176Zm-.255-8.147a1.8,1.8,0,0,0-1.419.615,3.189,3.189,0,0,0-.69,1.714h4.069V-5.8a2.6,2.6,0,0,0-.571-1.622A1.785,1.785,0,0,0,14.766-7.972ZM22.474-9.51l.062,1.1A3.419,3.419,0,0,1,25.3-9.686q2.971,0,3.023,3.4V0H26.191V-6.161A1.958,1.958,0,0,0,25.8-7.5a1.645,1.645,0,0,0-1.279-.435A2.058,2.058,0,0,0,22.6-6.768V0H20.461V-9.51Zm7.655,4.685A5.562,5.562,0,0,1,31.17-8.363a3.343,3.343,0,0,1,2.764-1.323,3.132,3.132,0,0,1,2.558,1.134l.1-.958h1.925V-.29a3.832,3.832,0,0,1-1.165,2.953,4.436,4.436,0,0,1-3.142,1.081,5.064,5.064,0,0,1-2.043-.435,3.631,3.631,0,0,1-1.516-1.138L31.658.888a3.053,3.053,0,0,0,2.426,1.169,2.359,2.359,0,0,0,1.679-.576,2.206,2.206,0,0,0,.615-1.692V-.853A3.144,3.144,0,0,1,33.917.176a3.335,3.335,0,0,1-2.729-1.327A5.742,5.742,0,0,1,30.129-4.825Zm2.127.185a3.829,3.829,0,0,0,.584,2.254,1.879,1.879,0,0,0,1.622.822,2.055,2.055,0,0,0,1.916-1.107V-6.855a2.026,2.026,0,0,0-1.9-1.081A1.887,1.887,0,0,0,32.84-7.1,4.287,4.287,0,0,0,32.256-4.641ZM46.468-.932A3.312,3.312,0,0,1,43.8.176a2.952,2.952,0,0,1-2.342-.905,3.851,3.851,0,0,1-.8-2.619V-9.51h2.136v6.135q0,1.811,1.5,1.811a2.111,2.111,0,0,0,2.1-1.116V-9.51h2.136V0H46.521ZM56.391,0a3.3,3.3,0,0,1-.246-.888,3.325,3.325,0,0,1-2.5,1.063,3.355,3.355,0,0,1-2.338-.817,2.615,2.615,0,0,1-.905-2.021A2.7,2.7,0,0,1,51.535-5a5.473,5.473,0,0,1,3.23-.813h1.31v-.624a1.666,1.666,0,0,0-.413-1.182A1.638,1.638,0,0,0,54.4-8.06a1.881,1.881,0,0,0-1.2.365,1.129,1.129,0,0,0-.466.927H50.607a2.37,2.37,0,0,1,.519-1.463A3.455,3.455,0,0,1,52.537-9.3a4.955,4.955,0,0,1,1.991-.387,3.99,3.99,0,0,1,2.663.839,2.993,2.993,0,0,1,1.02,2.36V-2.2a4.861,4.861,0,0,0,.36,2.048V0ZM54.044-1.538a2.429,2.429,0,0,0,1.191-.308,2.055,2.055,0,0,0,.839-.826V-4.465H54.923a3.148,3.148,0,0,0-1.784.413,1.338,1.338,0,0,0-.6,1.169,1.248,1.248,0,0,0,.409.98A1.583,1.583,0,0,0,54.044-1.538ZM62.675-9.51V.844a3.129,3.129,0,0,1-.725,2.228,2.779,2.779,0,0,1-2.123.769,4.268,4.268,0,0,1-1.134-.149V2a3.291,3.291,0,0,0,.756.079q1.063,0,1.09-1.16V-9.51Zm-2.32-2.47a1.133,1.133,0,0,1,.312-.817,1.179,1.179,0,0,1,.892-.325,1.193,1.193,0,0,1,.9.325,1.125,1.125,0,0,1,.316.817,1.1,1.1,0,0,1-.316.8,1.2,1.2,0,0,1-.9.321,1.188,1.188,0,0,1-.892-.321A1.107,1.107,0,0,1,60.354-11.979ZM69.144.176A4.419,4.419,0,0,1,65.852-1.1a4.639,4.639,0,0,1-1.261-3.406v-.264a5.706,5.706,0,0,1,.549-2.544,4.181,4.181,0,0,1,1.542-1.745A4.078,4.078,0,0,1,68.9-9.686a3.733,3.733,0,0,1,3,1.239,5.24,5.24,0,0,1,1.059,3.507v.861H66.744a2.856,2.856,0,0,0,.787,1.863,2.362,2.362,0,0,0,1.736.686,2.892,2.892,0,0,0,2.391-1.187l1.151,1.1A3.845,3.845,0,0,1,71.284-.294,4.774,4.774,0,0,1,69.144.176Zm-.255-8.147a1.8,1.8,0,0,0-1.419.615,3.189,3.189,0,0,0-.69,1.714h4.069V-5.8a2.6,2.6,0,0,0-.571-1.622A1.785,1.785,0,0,0,68.889-7.972ZM79.945-2.584a.968.968,0,0,0-.47-.87,5,5,0,0,0-1.56-.527,8.02,8.02,0,0,1-1.819-.58A2.428,2.428,0,0,1,74.5-6.8a2.531,2.531,0,0,1,1.037-2.057,4.1,4.1,0,0,1,2.637-.826,4.266,4.266,0,0,1,2.755.844,2.677,2.677,0,0,1,1.05,2.188H79.84a1.316,1.316,0,0,0-.457-1.024,1.752,1.752,0,0,0-1.213-.409,1.893,1.893,0,0,0-1.147.325,1.025,1.025,0,0,0-.444.87.866.866,0,0,0,.413.765,5.68,5.68,0,0,0,1.67.549,7.9,7.9,0,0,1,1.973.659A2.794,2.794,0,0,1,81.7-4a2.342,2.342,0,0,1,.347,1.3A2.478,2.478,0,0,1,80.982-.62a4.535,4.535,0,0,1-2.786.8,4.917,4.917,0,0,1-2.083-.422,3.428,3.428,0,0,1-1.424-1.16A2.746,2.746,0,0,1,74.18-3h2.074a1.5,1.5,0,0,0,.571,1.165,2.22,2.22,0,0,0,1.4.409,2.16,2.16,0,0,0,1.283-.321A.993.993,0,0,0,79.945-2.584Z" transform="translate(-3597 -8018)" fill="#12263f"/>
  </g>
</svg>
