<svg xmlns="http://www.w3.org/2000/svg" xmlns:xlink="http://www.w3.org/1999/xlink" width="429.323" height="280.594" viewBox="0 0 429.323 280.594">
  <defs>
    <clipPath id="clip-path">
      <rect id="Rect치ngulo_404617" data-name="Rect치ngulo 404617" width="429.323" height="280.594" fill="none"/>
    </clipPath>
  </defs>
  <g id="Grupo_1102386" data-name="Grupo 1102386" transform="translate(0 0)">
    <g id="Grupo_1102385" data-name="Grupo 1102385" transform="translate(0 0)" clip-path="url(#clip-path)">
      <path id="Trazado_889131" data-name="Trazado 889131" d="M25.473,114.584s30.7.255,49.225,25.941L105.353,18.1s-60.689,4.727-79.88,96.483" transform="translate(149.802 106.446)" fill="#f9bb4f"/>
      <path id="Trazado_889132" data-name="Trazado 889132" d="M75.378,142.01a.805.805,0,0,1-.647-.33c-18.083-25.067-48.283-25.61-48.586-25.61a.786.786,0,0,1-.612-.3.773.773,0,0,1-.158-.654C44.469,23.839,105.357,18.052,105.97,18c.385-.117.819.282.846.729a.786.786,0,0,1-.722.846c-.592.048-59.925,5.766-78.978,94.949,5.4.323,32.2,3.076,48.9,26.223a.786.786,0,0,1-.179,1.108.77.77,0,0,1-.461.151" transform="translate(149.123 105.752)" fill="#000100"/>
      <path id="Trazado_889133" data-name="Trazado 889133" d="M209.449,120.387c0-38.285,7.067-89.306-28.666-97.921-35.175-8.491-73.529-3.963-101.059-1.184L45.954,77.148c-9.674,31.982-16.122,71.918-16.122,99.394H220.8s-11.346-17.863-11.346-56.155" transform="translate(175.437 103.265)" fill="#f9bb4f"/>
      <path id="Trazado_889134" data-name="Trazado 889134" d="M221.473,178H30.5a.79.79,0,0,1-.784-.791c0-27.654,6.489-67.687,16.149-99.621a.79.79,0,1,1,1.514.454c-9.53,31.5-15.964,70.893-16.08,98.375H220.1c-2.511-4.631-10.769-22.37-10.769-55.363,0-5.333.138-10.8.268-16.6.846-34.349,1.8-73.288-28.335-80.561C147.9,15.856,111.263,19.6,84.517,22.324l-4.053.413a.862.862,0,0,1-.86-.709.784.784,0,0,1,.7-.867l4.053-.413c26.87-2.745,63.648-6.5,97.281,1.61,31.383,7.576,30.413,47.182,29.553,82.137-.138,5.78-.275,11.236-.275,16.555,0,37.576,11.113,55.549,11.223,55.728a.784.784,0,0,1-.667,1.218" transform="translate(174.767 102.595)" fill="#000100"/>
      <path id="Trazado_889135" data-name="Trazado 889135" d="M51.562,52.172c2.284-3.674,6.31-3.743,14.711-.839S90.948,55.44,97.327,55.44c3.64,0,24.867-2.911,64.776-2.58l-8.236-14.443,55.1-8.532s44.911,74.169-11.346,74.169c-55.59,0-98.623-24.53-98.623-24.53-7.569,8.03-23.78-6.124-25.191-1.92s-1.693,15.977-6.1,15.468c-2.642-.3-4.548-8.429-4.548-8.429s-3.179,6.606-7.872,9.888-5.271-2.03-5.271-2.03c-1.479,3.22-9.1,4.245-8.842-.344.124-2.174,4-11.925,4-11.925s-5.546,8.2-9.778,6.571c-4.534-1.761,1.259-8.044,6.709-18.785,4.507-8.9,6.041-10.383,9.447-15.847" transform="translate(198.625 175.746)" fill="#fff"/>
      <path id="Trazado_889136" data-name="Trazado 889136" d="M198.294,105.524c-51.861,0-93.359-21.571-98.485-24.351-4.989,4.638-12.75,1.356-18.461-1.046-2.429-1.011-5.168-2.167-5.959-1.8a.31.31,0,0,0-.158.2,39.656,39.656,0,0,0-1.011,4.782c-.908,5.278-1.94,11.243-5.532,11.243a2.628,2.628,0,0,1-.392-.028c-2.284-.261-3.9-4.424-4.7-7.087-1.314,2.25-3.86,6.09-7.184,8.415-1.693,1.177-3.124,1.5-4.335.956a3.564,3.564,0,0,1-1.713-1.906,7.678,7.678,0,0,1-6.468,1.651,3.5,3.5,0,0,1-2.835-3.778c.076-1.28,1.266-4.748,2.339-7.672-2.106,2.112-4.947,4.128-7.6,3.1a3.117,3.117,0,0,1-1.968-1.858c-.771-2.181,1.087-5.36,3.888-10.17,1.349-2.291,2.862-4.9,4.362-7.851a100.546,100.546,0,0,1,6.943-11.98c.771-1.163,1.576-2.388,2.539-3.922,2.814-4.514,8.051-3.805,15.64-1.177,8.181,2.842,24.351,4.067,30.8,4.067.778,0,2.463-.145,5.03-.365,9.193-.784,28.253-2.45,58.377-2.222l-7.555-13.252a.758.758,0,0,1-.028-.736.8.8,0,0,1,.592-.44l55.1-8.525a.754.754,0,0,1,.8.372c1.053,1.741,25.707,42.923,13.941,63.8-4.321,7.679-13.067,11.574-25.968,11.574M99.671,79.4a.815.815,0,0,1,.392.1c.427.248,43.514,24.434,98.231,24.434,12.289,0,20.56-3.619,24.592-10.768,10.672-18.943-10.968-57.145-13.652-61.749L155.8,39.7,163.47,53.14a.794.794,0,0,1-.688,1.183h-.007a576.792,576.792,0,0,0-59.6,2.209c-2.6.227-4.314.372-5.168.372-6.75,0-22.851-1.218-31.322-4.149-8.161-2.828-11.773-2.69-13.775.509-.97,1.555-1.789,2.787-2.56,3.956A100.673,100.673,0,0,0,43.5,69.049c-1.521,2.993-3.048,5.622-4.4,7.934C36.7,81.1,34.8,84.338,35.321,85.838c.089.241.289.6,1.053.895,2.979,1.156,7.383-4.135,8.828-6.275a.794.794,0,0,1,1.4.736c-1.541,3.874-3.867,10.177-3.956,11.677a1.9,1.9,0,0,0,1.631,2.154c2.044.5,4.975-.606,5.7-2.181a.751.751,0,0,1,.839-.447.789.789,0,0,1,.667.695c.055.5.4,1.9,1.245,2.284.805.344,1.954-.248,2.773-.819,4.479-3.131,7.6-9.516,7.624-9.578a.792.792,0,0,1,1.486.158c.853,3.647,2.58,7.672,3.867,7.824l.158.007c2.3,0,3.3-5.718,4.018-9.922a40.467,40.467,0,0,1,1.073-5.023,1.852,1.852,0,0,1,1.012-1.128c1.438-.654,3.853.358,7.218,1.768,5.477,2.305,12.929,5.45,17.14.991a.792.792,0,0,1,.571-.248" transform="translate(197.946 175.074)" fill="#000100"/>
      <path id="Trazado_889137" data-name="Trazado 889137" d="M47.073,35.177,36.78,54.829l-1.5-.778L45.566,34.4Z" transform="translate(207.473 202.294)"/>
      <path id="Trazado_889138" data-name="Trazado 889138" d="M42.21,45.487c1.521-3.564,3.255-7.61,4.6-10.438l1.534.722c-1.342,2.8-3.062,6.826-4.576,10.376-1.211,2.835-2.278,5.284-2.952,6.723a74.241,74.241,0,0,0-3.165,9.475l-1.638-.427a72.229,72.229,0,0,1,3.275-9.764c.667-1.4,1.706-3.846,2.917-6.668" transform="translate(211.81 206.115)"/>
      <path id="Trazado_889139" data-name="Trazado 889139" d="M40.695,43.324a62.333,62.333,0,0,1,2.89-7.851l1.507.784A62.7,62.7,0,0,0,42.3,43.84c-.42,1.321-.784,2.456-1.073,3.206-.819,2.2-1.679,5.477-1.686,5.512L37.9,52.132c.034-.138.874-3.385,1.741-5.67.261-.722.626-1.844,1.053-3.138" transform="translate(222.889 208.608)"/>
      <path id="Trazado_889140" data-name="Trazado 889140" d="M62.009,18.272,50.029,99.108c2.856,6.805,12.269,25.328,12.269,25.328s16.232,7.5,41.485,1.789c22.61-5.106,30.537-17.243,30.537-17.243S108.888,31.3,62.009,18.272" transform="translate(294.212 107.452)" fill="#f9bb4f"/>
      <path id="Trazado_889141" data-name="Trazado 889141" d="M85.673,129.858c-14.092,0-22.542-3.805-23.037-4.025a.725.725,0,0,1-.365-.365c-.1-.186-9.461-18.626-12.289-25.377a.782.782,0,0,1,.413-1.039.771.771,0,0,1,1.032.427c2.628,6.268,10.982,22.762,12.124,25.019,2.112.881,17.759,6.826,40.735,1.631,20.009-4.521,28.418-14.718,29.828-16.6-2.009-5.883-27.372-77.513-71.636-89.816a.787.787,0,0,1-.557-.97.8.8,0,0,1,.97-.557c46.755,13,72.6,90.442,72.854,91.226a.793.793,0,0,1-.083.681c-.33.509-8.36,12.468-31.019,17.587a86.358,86.358,0,0,1-18.97,2.181" transform="translate(293.536 106.778)" fill="#000100"/>
      <path id="Trazado_889142" data-name="Trazado 889142" d="M48.737,14.188a12.7,12.7,0,0,1-9.179-7.927S42.7,7.644,60.076,3.626C84.145-1.934,85.8,11.793,85.8,11.793,100.763,1.108,115.13,41.436,99.07,65.086,82.494,89.5,57.427,74.567,46.2,66.3S45.73,51.64,45.6,45.764s-7.968-7.686-8.7-20.415S48.737,14.188,48.737,14.188" transform="translate(216.836 13.525)"/>
      <path id="Trazado_889143" data-name="Trazado 889143" d="M39.443,17.254c-1.989,2.092-2.876,5.071-2.663,8.869.44,7.762,3.433,11.587,5.835,14.656,1.569,2,2.807,3.585,2.856,5.725.028,1.624-.95,3.427-2,5.326-2.374,4.349-5.34,9.75,2.938,15.86,11.078,8.174,21.324,12.317,30.413,12.317,9.53,0,17.484-4.617,23.67-13.727,9.661-14.216,8.69-35.326,2.174-47.505-3.055-5.718-7.018-8.869-11.133-8.869a9.009,9.009,0,0,0-4.5,1.259c-.9-2.718-4.245-8.986-15.881-8.986A47.108,47.108,0,0,0,60.609,3.527C50.432,5.88,45.189,6.375,42.581,6.375a7.49,7.49,0,0,1-1.989-.165.822.822,0,0,0-.894.138.85.85,0,0,0-.227.888,13.265,13.265,0,0,0,5.945,7.012,10.732,10.732,0,0,0-5.973,3.007m1.232,1.156c2.25-2.36,5.677-2.718,7.521-2.718a10.846,10.846,0,0,1,1.163.055.843.843,0,0,0,.289-1.658A11.95,11.95,0,0,1,41.673,8.04c2.346.117,7.665-.179,19.321-2.876a46.081,46.081,0,0,1,10.163-1.3c13.239,0,14.464,8.395,14.512,8.746a.878.878,0,0,0,.509.674A.845.845,0,0,0,87,13.194a7.8,7.8,0,0,1,4.535-1.6c3.468,0,6.895,2.828,9.64,7.975,6.275,11.739,7.211,32.078-2.085,45.771-5.849,8.615-13.342,12.991-22.266,12.991-8.6,0-18.771-4.149-29.4-12-7.1-5.229-4.844-9.337-2.456-13.686,1.149-2.112,2.243-4.1,2.195-6.179-.048-2.69-1.514-4.555-3.206-6.716-2.264-2.89-5.071-6.489-5.484-13.72-.193-3.31.557-5.876,2.2-7.617" transform="translate(216.118 12.806)"/>
      <path id="Trazado_889144" data-name="Trazado 889144" d="M41,15.927,89.434,10.4C88.7,17.31,91.32,59.9,91.32,59.9,51.879,79.375,39.1,61.974,39.1,61.974,42.032,50.579,41,15.927,41,15.927" transform="translate(229.947 61.17)" fill="#fff"/>
      <path id="Trazado_889145" data-name="Trazado 889145" d="M59.084,70.662c-14.161,0-19.6-7.067-19.948-7.541a.777.777,0,0,1-.124-.661c2.876-11.161,1.878-45.482,1.872-45.833a.787.787,0,0,1,.7-.805L90.02,10.3a.75.75,0,0,1,.654.22.833.833,0,0,1,.234.647c-.723,6.764,1.851,48.936,1.872,49.363a.792.792,0,0,1-.433.764c-14.353,7.08-25.211,9.372-33.262,9.372M40.644,62.453c1.865,2.064,15.344,14.835,50.533-2.36-.3-4.913-2.36-39.468-1.927-48.118L42.488,17.308c.131,5.126.764,34.225-1.844,45.145" transform="translate(229.271 60.491)" fill="#000100"/>
      <path id="Trazado_889146" data-name="Trazado 889146" d="M43.3,17.354c4.418-20.484,58.4-18.275,58.4,5.415,0,3.585.633,10.466.475,17.539l.124-.007a12.124,12.124,0,1,1-2.56,23.973C98.4,73.523,96.7,85.378,88.86,92.452c-5,4.5-15.248-1.19-18.475,7.445C58.639,99.353,48.236,96.291,40.6,87.4c-5.67-6.592-3.585-19.934-2.917-29.092.647-9.158,3.709-32.127,5.622-40.955" transform="translate(216.133 19.834)" fill="#fff"/>
      <path id="Trazado_889147" data-name="Trazado 889147" d="M37.245,62.707c-.771,8.883-1.734,19.961,3.434,25.968,6.95,8.078,16.6,12.145,30.386,12.785h.021a.859.859,0,0,0,.812-.544c1.686-4.514,5.367-4.651,9.647-4.81,3.1-.117,6.3-.234,8.608-2.312,7.824-7.053,9.661-18.448,11.03-27.812a12.967,12.967,0,1,0,2.58-25.776c.062-4.2-.145-8.285-.3-11.6-.1-2.044-.172-3.812-.172-5.112,0-13.28-16.122-20.243-32.051-20.243C59.752,3.25,45.515,7.09,43.19,17.9c-1.913,8.849-4.989,32.037-5.642,41.079-.089,1.17-.193,2.422-.3,3.729m1.686.138c.11-1.3.227-2.567.31-3.75.647-8.986,3.716-32.044,5.608-40.852,1.982-9.186,14.684-13.3,26.388-13.3,15.083,0,30.344,6.372,30.344,18.551,0,1.349.089,3.131.193,5.188.158,3.523.385,7.9.282,12.33a.861.861,0,0,0,.234.619.888.888,0,0,0,.612.248h.124a11.274,11.274,0,1,1,0,22.548,11.658,11.658,0,0,1-2.381-.248.793.793,0,0,0-.179-.021.889.889,0,0,0-.489.151.915.915,0,0,0-.358.571l-.014.124c-1.342,9.227-3.014,20.7-10.6,27.537-1.837,1.672-4.6,1.768-7.528,1.885-4.1.144-8.746.317-10.941,5.319-12.957-.709-22.053-4.583-28.583-12.165C37.265,82.1,38.194,71.425,38.93,62.845" transform="translate(215.413 19.11)"/>
      <path id="Trazado_889148" data-name="Trazado 889148" d="M37.675,15.229c-.661,9.158-2.745,22.5,2.924,29.092,7.631,8.89,18.035,11.952,29.78,12.5,3.234-8.635,13.486-2.945,18.482-7.445C97.7,41.4,98.729,27.339,100.257,17.809a19.833,19.833,0,0,1-9.895,2.45c-7.08,0-11.071-3.145-15.482-6.289a19.432,19.432,0,0,0-14.009-3.028c-4.012.626-6.97,2.835-12.186,2.835A19.591,19.591,0,0,1,38.1,10.908c-.2,1.665-.344,3.138-.427,4.321m15.509,3.282c0-2.539,20.243-.963,20.243,1.569,0,5.78-8.113,9.461-14.491,7.252-5.1-1.761-5.752-5.594-5.752-8.821" transform="translate(216.138 62.914)"/>
      <path id="Trazado_889149" data-name="Trazado 889149" d="M39.018,13.657c0,3.193.661,7.665,6.317,9.619a12.945,12.945,0,0,0,4.239.695c5.477,0,11.381-3.344,11.381-8.746,0-3.482-15.021-3.7-15.165-3.7-6.007,0-6.771,1.135-6.771,2.133m1.693.165c.261-.158,1.362-.612,5.078-.612,6.5,0,12.688,1.259,13.473,2.119-.083,4.163-5.05,6.957-9.688,6.957a11.192,11.192,0,0,1-3.681-.6c-4.479-1.555-5.154-4.823-5.181-7.865" transform="translate(229.458 67.768)"/>
      <path id="Trazado_889150" data-name="Trazado 889150" d="M37.245,19.615c-.771,8.883-1.734,19.961,3.434,25.968,6.95,8.078,16.6,12.145,30.386,12.785h.021a.859.859,0,0,0,.812-.544c1.686-4.514,5.367-4.651,9.647-4.81,3.1-.117,6.3-.234,8.608-2.312,8.03-7.239,9.757-19.046,11.147-28.542.165-1.218.344-2.395.523-3.509a.874.874,0,0,0-.358-.826.864.864,0,0,0-.908-.041,18.925,18.925,0,0,1-9.468,2.346c-6.447,0-10.266-2.745-14.312-5.656l-.681-.482a20.549,20.549,0,0,0-14.629-3.172,25.844,25.844,0,0,0-4.61,1.28,21.29,21.29,0,0,1-7.445,1.541A18.6,18.6,0,0,1,39.281,10.9a.863.863,0,0,0-.819-.041.824.824,0,0,0-.475.661c-.206,1.761-.351,3.227-.44,4.369-.089,1.17-.193,2.422-.3,3.729m1.686.138c.11-1.3.227-2.567.31-3.75.062-.826.151-1.83.289-3.007a20.665,20.665,0,0,0,9.881,2.333,22.616,22.616,0,0,0,8.016-1.638,24.382,24.382,0,0,1,4.307-1.2A18.812,18.812,0,0,1,75.11,15.362l.667.482c4.28,3.069,8.319,5.973,15.31,5.973a21.257,21.257,0,0,0,8.794-1.8c-.083.612-.179,1.252-.268,1.9-1.349,9.227-3.021,20.7-10.6,27.53-1.837,1.672-4.6,1.768-7.528,1.885-4.1.144-8.746.317-10.941,5.319-12.957-.709-22.053-4.583-28.583-12.165-4.693-5.477-3.764-16.156-3.028-24.737" transform="translate(215.413 62.202)"/>
      <path id="Trazado_889151" data-name="Trazado 889151" d="M38.343,8.369c8.484-2.814,13.342-1.06,13.548-.984a.843.843,0,0,1,.489,1.08.858.858,0,0,1-1.087.5c-.041-.021-4.555-1.6-12.406,1a.981.981,0,0,1-.268.041.84.84,0,0,1-.275-1.638" transform="translate(222.104 39.842)"/>
      <path id="Trazado_889152" data-name="Trazado 889152" d="M42.979,6.275c.213-.028,5.346-.647,12.963,4a.857.857,0,0,1,.289,1.163.859.859,0,0,1-1.17.275C48,7.417,43.248,7.94,43.2,7.947a.855.855,0,0,1-.956-.722.865.865,0,0,1,.736-.95" transform="translate(248.39 36.652)"/>
      <path id="Trazado_889153" data-name="Trazado 889153" d="M44.414,8.322a1.985,1.985,0,1,1-2,1.989,1.987,1.987,0,0,1,2-1.989" transform="translate(249.418 48.938)"/>
      <path id="Trazado_889154" data-name="Trazado 889154" d="M42.29,11.034A2.845,2.845,0,1,0,45.132,8.2a2.835,2.835,0,0,0-2.842,2.835m1.686,0a1.153,1.153,0,0,1,2.305,0,1.153,1.153,0,0,1-2.305,0" transform="translate(248.7 48.214)"/>
      <path id="Trazado_889155" data-name="Trazado 889155" d="M40.15,7.835a1.985,1.985,0,1,1-2.009,1.989A2,2,0,0,1,40.15,7.835" transform="translate(224.301 46.074)"/>
      <path id="Trazado_889156" data-name="Trazado 889156" d="M38.019,10.547a2.842,2.842,0,1,0,2.849-2.835,2.832,2.832,0,0,0-2.849,2.835m1.693,0a1.149,1.149,0,1,1,1.156,1.135,1.147,1.147,0,0,1-1.156-1.135" transform="translate(223.583 45.35)"/>
      <path id="Trazado_889157" data-name="Trazado 889157" d="M42.689,9.385a.845.845,0,0,1,.385,1.645c-.619.138-1.39.42-1.555.929-.213.667.468,1.672.729,1.968a.845.845,0,0,1-.076,1.184.863.863,0,0,1-1.2-.083c-.158-.186-1.61-1.9-1.067-3.578a3.413,3.413,0,0,1,2.787-2.064" transform="translate(233.948 55.059)"/>
      <path id="Trazado_889158" data-name="Trazado 889158" d="M54.336,10.036a6.99,6.99,0,0,1,4.4,6.9c-.213,5.842-5.787,7.934-8.7,8.223l-.158-1.679c.275-.034,6.957-.784,7.163-6.606a5.261,5.261,0,0,0-3.372-5.284,6.29,6.29,0,0,0-6.764,1.08L45.68,11.508a7.936,7.936,0,0,1,8.656-1.473" transform="translate(268.636 55.13)" fill="#00162c"/>
      <path id="Trazado_889159" data-name="Trazado 889159" d="M48.845,13.76A4.166,4.166,0,0,0,48.57,10.2l1.548-.688a5.736,5.736,0,0,1,.248,5.009,5.9,5.9,0,0,1-3.654,2.766l-.385-1.638a4.162,4.162,0,0,0,2.518-1.885" transform="translate(272.441 55.912)" fill="#00162c"/>
      <path id="Trazado_889160" data-name="Trazado 889160" d="M54.535.97c14.7-4.383,48.716,8.4,45.18,31.081-1.018,6.571-6,17.126-6,17.126S93.1,27.667,39.067,19.617c0,0,.764-14.257,15.468-18.647" transform="translate(229.747 0.672)" fill="#f9bb4f"/>
      <path id="Trazado_889161" data-name="Trazado 889161" d="M94.392,50.641l-.151-.014a.8.8,0,0,1-.64-.75c-.007-.206-1.411-20.973-53.973-28.8a.8.8,0,0,1-.674-.833C38.96,20.1,39.916,5.379,54.992.885c9.083-2.725,26.264.86,37.322,10.507,7.032,6.138,10.087,13.555,8.863,21.454-1.032,6.606-5.862,16.906-6.062,17.34a.812.812,0,0,1-.722.454M40.6,19.622C83.671,26.193,92.761,41.269,94.667,47.29c1.507-3.427,4.239-10.1,4.947-14.684,1.438-9.268-3.743-16-8.346-20.016C80.761,3.418,63.965-.133,55.439,2.406A20.484,20.484,0,0,0,40.6,19.622" transform="translate(229.069 -0.001)" fill="#000100"/>
      <path id="Trazado_889162" data-name="Trazado 889162" d="M34.467,2.191H92.817c12.5,0,35.023,15.372,39.351,21.11a18.193,18.193,0,0,1,3.365,12.413,16.011,16.011,0,0,0-6.461-10.583c-6.427-4.6-41.712-12.344-50.485-10.3-12.929,3.014-11.752,14.2-11.752,14.2S20.341,2.191,34.467,2.191" transform="translate(186.985 12.882)"/>
      <path id="Trazado_889163" data-name="Trazado 889163" d="M31.764,3.692c-.3,1.087-.984,3.633,17.347,15.668,8.835,5.8,17.952,11.064,18.028,11.119a.869.869,0,0,0,.894-.021.843.843,0,0,0,.385-.8c-.048-.427-.922-10.486,11.1-13.287a17.539,17.539,0,0,1,3.716-.31c12.048,0,40.473,6.461,46.074,10.473a15.171,15.171,0,0,1,6.124,10.012.851.851,0,0,0,.839.729.842.842,0,0,0,.846-.722,18.874,18.874,0,0,0-3.523-13.046c-4.424-5.869-27.014-21.441-40.04-21.441H35.211c-.743,0-3.007,0-3.447,1.624m1.631.44c.021-.083.4-.385,1.817-.385H93.553c12.069,0,34.294,14.952,38.677,20.773a16.175,16.175,0,0,1,2.7,5.684,17.726,17.726,0,0,0-4.631-5.037c-5.918-4.232-34.521-10.8-47.072-10.8a19.2,19.2,0,0,0-4.1.358c-10.535,2.463-12.179,10.2-12.4,13.548-2.807-1.645-9.833-5.828-16.686-10.328C33.215,6.905,33.319,4.387,33.394,4.132" transform="translate(186.242 12.159)"/>
      <path id="Trazado_889164" data-name="Trazado 889164" d="M170.328,39.513a7.926,7.926,0,0,1-7.92,7.92H27.743v-7.92Z" transform="translate(163.152 232.367)" fill="#000100"/>
      <path id="Trazado_889165" data-name="Trazado 889165" d="M163.072,48.9H28.414a.781.781,0,0,1-.784-.791v-7.92a.781.781,0,0,1,.784-.791H171a.786.786,0,0,1,.784.791,8.722,8.722,0,0,1-8.711,8.711M29.206,47.318H163.072a7.126,7.126,0,0,0,7.08-6.337H29.206Z" transform="translate(162.487 231.69)" fill="#000100"/>
      <path id="Trazado_889166" data-name="Trazado 889166" d="M5.961,22.246h174.5a5.829,5.829,0,0,1,5.6,4.08l35.588,115.213a5.721,5.721,0,0,1-.9,5.112,5.827,5.827,0,0,1-4.7,2.326H41.562a5.79,5.79,0,0,1-5.6-4.08L.374,29.684a5.657,5.657,0,0,1,.895-5.112,5.834,5.834,0,0,1,4.693-2.326" transform="translate(0.679 130.822)" fill="#fff"/>
      <path id="Trazado_889167" data-name="Trazado 889167" d="M216.735,150.445H42.244a6.583,6.583,0,0,1-6.358-4.638L.291,30.594a6.443,6.443,0,0,1,1.025-5.821,6.59,6.59,0,0,1,5.326-2.642h174.5a6.618,6.618,0,0,1,6.358,4.638l35.581,115.213a6.448,6.448,0,0,1-1.018,5.821,6.613,6.613,0,0,1-5.333,2.642M6.642,23.714a5.038,5.038,0,0,0-4.06,2.009,4.859,4.859,0,0,0-.771,4.4L37.4,145.339a5.01,5.01,0,0,0,4.844,3.523H216.735a5.048,5.048,0,0,0,4.067-2.016,4.845,4.845,0,0,0,.771-4.4L185.984,27.237a5.02,5.02,0,0,0-4.837-3.523Z" transform="translate(-0.002 130.146)" fill="#000100"/>
      <rect id="Rect치ngulo_404616" data-name="Rect치ngulo 404616" width="101.286" height="13.11" transform="translate(87.22 262.055) rotate(-68.74)" fill="#0b47db"/>
      <path id="Trazado_889168" data-name="Trazado 889168" d="M31.323,92.375,6.656,59.587l24.668-32.78L41.8,34.686l-18.73,24.9,18.73,24.9Z" transform="translate(39.14 157.645)" fill="#0b47db"/>
      <path id="Trazado_889169" data-name="Trazado 889169" d="M31.181,92.375,20.7,84.489l18.73-24.9L20.7,34.686l10.48-7.879,24.661,32.78Z" transform="translate(121.739 157.645)" fill="#0b47db"/>
    </g>
  </g>
</svg>
