<svg xmlns="http://www.w3.org/2000/svg" xmlns:xlink="http://www.w3.org/1999/xlink" width="66.718" height="69.268" viewBox="0 0 66.718 69.268">
  <defs>
    <clipPath id="clip-path">
      <rect id="Rectángulo_404723" data-name="Rectángulo 404723" width="64" height="67" transform="translate(0 0)" fill="none" stroke="#707070" stroke-width="3"/>
    </clipPath>
  </defs>
  <g id="Grupo_1103639" data-name="Grupo 1103639" transform="translate(2.436 2.541)">
    <path id="Trazado_889337" data-name="Trazado 889337" d="M9.976.5V9.976H.5v54.49H50.252V.5Z" transform="translate(0.685 0.58)" fill="#e2d7c7" stroke="#707070" stroke-width="3"/>
    <rect id="Rectángulo_404721" data-name="Rectángulo 404721" width="45.013" height="21.322" transform="translate(17.768 8.188)" fill="#5c9adb" stroke="#707070" stroke-width="3"/>
    <path id="Trazado_889338" data-name="Trazado 889338" d="M.5,9.977H9.977V.5Z" transform="translate(0.685 0.58)" fill="#ede8df" stroke="#707070" stroke-width="3"/>
    <g id="Grupo_1103638" data-name="Grupo 1103638" transform="translate(0 -0.273)">
      <g id="Grupo_1103637" data-name="Grupo 1103637" clip-path="url(#clip-path)">
        <path id="Trazado_889339" data-name="Trazado 889339" d="M50.252,33.668v30.8H.5V9.976H9.976V.5H50.252V2.869" transform="translate(0.685 0.853)" fill="none" stroke="#414042" stroke-linecap="round" stroke-linejoin="round" stroke-width="3"/>
        <line id="Línea_553" data-name="Línea 553" x1="9.476" y2="9.476" transform="translate(1.185 1.353)" fill="none" stroke="#414042" stroke-linecap="round" stroke-linejoin="round" stroke-width="3"/>
        <rect id="Rectángulo_404722" data-name="Rectángulo 404722" width="45.013" height="21.322" transform="translate(17.768 8.46)" fill="none" stroke="#414042" stroke-linecap="round" stroke-linejoin="round" stroke-width="3"/>
        <path id="Trazado_889340" data-name="Trazado 889340" d="M10.5,17.346V5.5h3.554a3.554,3.554,0,0,1,0,7.107H10.5" transform="translate(14.376 7.699)" fill="none" stroke="#414042" stroke-linecap="round" stroke-linejoin="round" stroke-width="3"/>
        <line id="Línea_554" data-name="Línea 554" y2="11.846" transform="translate(36.721 13.199)" fill="none" stroke="#414042" stroke-linecap="round" stroke-linejoin="round" stroke-width="3"/>
        <line id="Línea_555" data-name="Línea 555" y2="11.846" transform="translate(43.829 13.199)" fill="none" stroke="#414042" stroke-linecap="round" stroke-linejoin="round" stroke-width="3"/>
        <line id="Línea_556" data-name="Línea 556" x2="7.107" transform="translate(36.721 19.121)" fill="none" stroke="#414042" stroke-linecap="round" stroke-linejoin="round" stroke-width="3"/>
        <path id="Trazado_889341" data-name="Trazado 889341" d="M20.5,17.346V5.5h3.554a3.554,3.554,0,0,1,0,7.107H20.5" transform="translate(28.067 7.699)" fill="none" stroke="#414042" stroke-linecap="round" stroke-linejoin="round" stroke-width="3"/>
      </g>
    </g>
  </g>
</svg>
