<svg id="Grupo_1102372" data-name="Grupo 1102372" xmlns="http://www.w3.org/2000/svg" xmlns:xlink="http://www.w3.org/1999/xlink" width="84.98" height="76.94" viewBox="0 0 84.98 76.94">
  <defs>
    <clipPath id="clip-path">
      <rect id="Rectángulo_404594" data-name="Rectángulo 404594" width="84.98" height="76.94" fill="none"/>
    </clipPath>
  </defs>
  <g id="Grupo_1102371" data-name="Grupo 1102371" clip-path="url(#clip-path)">
    <path id="Trazado_889102" data-name="Trazado 889102" d="M88.318,18.275H22.633a4.363,4.363,0,0,0-4.358,4.358v39.79a4.363,4.363,0,0,0,4.358,4.358H88.318a4.363,4.363,0,0,0,4.358-4.358V22.633a4.363,4.363,0,0,0-4.358-4.358m2.905,44.147a2.905,2.905,0,0,1-2.905,2.905H22.633a2.905,2.905,0,0,1-2.905-2.905V22.633a2.909,2.909,0,0,1,2.905-2.905H88.318a2.909,2.909,0,0,1,2.905,2.905Z" transform="translate(-12.985 -12.985)"/>
    <path id="Trazado_889103" data-name="Trazado 889103" d="M143.781,107.519H165.8a.726.726,0,0,0,0-1.453H143.781a.726.726,0,1,0,0,1.453" transform="translate(-101.646 -75.364)"/>
    <path id="Trazado_889104" data-name="Trazado 889104" d="M62.652,107.519H80.931a.726.726,0,1,0,0-1.453H62.652a.726.726,0,1,0,0,1.453" transform="translate(-44.001 -75.364)"/>
    <path id="Trazado_889105" data-name="Trazado 889105" d="M148.257,123.63H108.874a.726.726,0,0,0,0,1.453h39.382a.726.726,0,0,0,0-1.453" transform="translate(-76.843 -87.844)"/>
    <path id="Trazado_889106" data-name="Trazado 889106" d="M62.652,125.084H71.61a.726.726,0,0,0,0-1.453H62.652a.726.726,0,0,0,0,1.453" transform="translate(-44.001 -87.845)"/>
    <path id="Trazado_889107" data-name="Trazado 889107" d="M115.413,141.2H62.652a.726.726,0,1,0,0,1.453h52.762a.726.726,0,0,0,0-1.453" transform="translate(-44 -100.324)"/>
    <path id="Trazado_889108" data-name="Trazado 889108" d="M151.655,58.683l7.228,2.949a1.548,1.548,0,0,0,.573.122,1.073,1.073,0,0,0,.789-.317,1.1,1.1,0,0,0,.317-.809.93.93,0,0,0-.154-.522.962.962,0,0,0-.439-.359l-6.7-2.682,6.7-2.682a.907.907,0,0,0,.593-.881,1.079,1.079,0,0,0-.307-.8,1.053,1.053,0,0,0-.777-.307,1.588,1.588,0,0,0-.594.123l-7.228,2.949a1.742,1.742,0,0,0-.8,2.57,1.828,1.828,0,0,0,.8.645" transform="translate(-106.986 -37.229)"/>
    <path id="Trazado_889109" data-name="Trazado 889109" d="M189.631,52a1.233,1.233,0,0,0,.707-.218,1.111,1.111,0,0,0,.44-.645l4.709-14.745a1.636,1.636,0,0,0,.062-.43,1.017,1.017,0,0,0-.369-.809,1.277,1.277,0,0,0-.859-.318,1.188,1.188,0,0,0-1.147.86l-4.689,14.745a1.611,1.611,0,0,0-.062.43,1.022,1.022,0,0,0,.368.808,1.253,1.253,0,0,0,.84.321" transform="translate(-133.882 -24.753)"/>
    <path id="Trazado_889110" data-name="Trazado 889110" d="M225.337,55.471l-7.228-2.948a1.588,1.588,0,0,0-.594-.123,1.054,1.054,0,0,0-.778.307,1.083,1.083,0,0,0-.307.8.908.908,0,0,0,.594.881l6.7,2.682-6.7,2.682a.963.963,0,0,0-.44.359.934.934,0,0,0-.154.521,1.1,1.1,0,0,0,.318.809,1.07,1.07,0,0,0,.789.317,1.548,1.548,0,0,0,.573-.122l7.228-2.949a1.836,1.836,0,0,0,.8-.645,1.741,1.741,0,0,0-.8-2.57Z" transform="translate(-153.781 -37.232)"/>
    <path id="Trazado_889111" data-name="Trazado 889111" d="M289.289,91.01a.726.726,0,0,0-.726.726v6.9a.726.726,0,0,0,1.453,0v-6.9a.726.726,0,0,0-.726-.726" transform="translate(-205.035 -64.666)"/>
    <path id="Trazado_889112" data-name="Trazado 889112" d="M79.17,0H5.811A5.817,5.817,0,0,0,0,5.811V57.053a5.817,5.817,0,0,0,5.811,5.811H33.895l-.877,5.867a3.926,3.926,0,0,1-3.86,3.326h-.373a4.161,4.161,0,0,0-4.156,4.156.726.726,0,0,0,.726.726H59.626a.726.726,0,0,0,.727-.726A4.161,4.161,0,0,0,56.2,72.058h-.373a3.926,3.926,0,0,1-3.86-3.326l-.877-5.867H79.17a5.817,5.817,0,0,0,5.811-5.811V36.967a.726.726,0,0,0-1.453,0V57.053a4.363,4.363,0,0,1-4.358,4.358H5.811a4.363,4.363,0,0,1-4.358-4.358V5.811A4.363,4.363,0,0,1,5.811,1.453H79.17a4.363,4.363,0,0,1,4.358,4.358V23.62a.726.726,0,1,0,1.453,0V5.811A5.818,5.818,0,0,0,79.17,0M49.617,62.864l.909,6.082a5.389,5.389,0,0,0,5.3,4.564H56.2a2.709,2.709,0,0,1,2.6,1.977H26.18a2.709,2.709,0,0,1,2.6-1.977h.373a5.389,5.389,0,0,0,5.3-4.564l.909-6.082Z"/>
  </g>
</svg>
