<svg xmlns="http://www.w3.org/2000/svg" width="95" height="95" viewBox="0 0 95 95">
  <g id="Grupo_1103711" data-name="Grupo 1103711" transform="translate(-843 -1277)">
    <g id="_14-Programming" data-name="14-Programming" transform="translate(852 1286)">
      <rect id="Rectángulo_404762" data-name="Rectángulo 404762" width="32" height="4" transform="translate(23 71.061)" fill="#979faf"/>
      <path id="Trazado_889397" data-name="Trazado 889397" d="M44.424,50l6.053,10.9H19L25.053,50Z" transform="translate(4.002 10.322)" fill="#adb2c7"/>
      <path id="Trazado_889398" data-name="Trazado 889398" d="M76.061,4.421v46H1v-46A2.429,2.429,0,0,1,3.421,2H73.639A2.429,2.429,0,0,1,76.061,4.421Z" transform="translate(0.211 0.211)" fill="#8dd5f6"/>
      <path id="Trazado_889399" data-name="Trazado 889399" d="M76.061,42v7.264a2.429,2.429,0,0,1-2.421,2.421H3.421A2.429,2.429,0,0,1,1,49.264V42Z" transform="translate(0.211 8.637)" fill="#dfe1ea"/>
      <path id="Trazado_889400" data-name="Trazado 889400" d="M73.639,2H3.421A2.429,2.429,0,0,0,1,4.421V22.392a32.377,32.377,0,0,0,9.927,1.4c9.2,0,9.2-2.421,18.4-2.421s9.2,2.421,18.4,2.421,9.2-2.421,18.4-2.421a32.43,32.43,0,0,1,9.927,1.4V4.421A2.429,2.429,0,0,0,73.639,2Z" transform="translate(0.211 0.211)" fill="#aedff7"/>
      <path id="Trazado_889401" data-name="Trazado 889401" d="M73.639,2H3.421A2.429,2.429,0,0,0,1,4.421v9.5a32.377,32.377,0,0,0,9.927,1.4c9.2,0,9.2-2.421,18.4-2.421s9.2,2.421,18.4,2.421,9.2-2.421,18.4-2.421a32.43,32.43,0,0,1,9.927,1.4V4.421A2.429,2.429,0,0,0,73.639,2Z" transform="translate(0.211 0.211)" fill="#f6fafd"/>
      <path id="Trazado_889402" data-name="Trazado 889402" d="M24.386,50l-2.218,4a30.617,30.617,0,0,0,7.787.847c7.99,0,9.05-1.824,15.218-2.3L43.756,50Z" transform="translate(4.67 10.322)" fill="#7e8596"/>
      <path id="Trazado_889403" data-name="Trazado 889403" d="M39.845,15.748V9.937A1.937,1.937,0,0,0,37.908,8H13.937A1.937,1.937,0,0,0,12,9.937V35.119a1.937,1.937,0,0,0,1.937,1.937H34.276a1.937,1.937,0,0,1,1.937,1.937V44.8a1.937,1.937,0,0,0,1.937,1.937H62.121A1.937,1.937,0,0,0,64.058,44.8V19.622a1.937,1.937,0,0,0-1.937-1.937H41.782a1.937,1.937,0,0,1-1.937-1.937Z" transform="translate(2.528 1.475)" fill="#0096cf"/>
      <rect id="Rectángulo_404763" data-name="Rectángulo 404763" width="23" height="17" transform="translate(15 18.061)" fill="#fff"/>
      <rect id="Rectángulo_404764" data-name="Rectángulo 404764" width="23" height="9" transform="translate(15 9.061)" fill="#73c6b2"/>
      <rect id="Rectángulo_404765" data-name="Rectángulo 404765" width="18" height="10" transform="translate(18 21.061)" fill="#dfe1ea"/>
      <rect id="Rectángulo_404766" data-name="Rectángulo 404766" width="25" height="16" transform="translate(38 28.061)" fill="#fff"/>
      <rect id="Rectángulo_404767" data-name="Rectángulo 404767" width="25" height="10" transform="translate(38 18.061)" fill="#ffa426"/>
      <rect id="Rectángulo_404768" data-name="Rectángulo 404768" width="17" height="9" transform="translate(42 31.061)" fill="#dfe1ea"/>
      <rect id="Rectángulo_404769" data-name="Rectángulo 404769" width="3" height="2" transform="translate(18 12.061)" fill="#fff"/>
      <rect id="Rectángulo_404770" data-name="Rectángulo 404770" width="3" height="2" transform="translate(23 12.061)" fill="#fff"/>
      <rect id="Rectángulo_404771" data-name="Rectángulo 404771" width="3" height="3" transform="translate(42 21.061)" fill="#fff"/>
      <rect id="Rectángulo_404772" data-name="Rectángulo 404772" width="2" height="3" transform="translate(47 21.061)" fill="#fff"/>
      <path id="Trazado_889404" data-name="Trazado 889404" d="M73.85,1H3.632A3.632,3.632,0,0,0,0,4.632V57.9a3.632,3.632,0,0,0,3.632,3.632H27l-5.054,9.1a1.211,1.211,0,0,0-.151.588v2.421H19.37v2.421H58.111V73.639H55.69V71.218a1.211,1.211,0,0,0-.153-.588l-5.053-9.1H73.85A3.632,3.632,0,0,0,77.482,57.9V4.632A3.632,3.632,0,0,0,73.85,1ZM3.632,3.421H73.85a1.211,1.211,0,0,1,1.211,1.211V49.426H2.421V4.632A1.211,1.211,0,0,1,3.632,3.421ZM24.213,73.639V72.429H53.269v1.211Zm28.208-3.632H25.061l4.707-8.475H47.714Zm21.429-10.9H3.632A1.211,1.211,0,0,1,2.421,57.9V51.848H75.061V57.9A1.211,1.211,0,0,1,73.85,59.111Z" transform="translate(0)"/>
      <path id="Trazado_889405" data-name="Trazado 889405" d="M12.211,35.056h23V43.53a1.211,1.211,0,0,0,1.211,1.211H60.637a1.211,1.211,0,0,0,1.211-1.211V16.9a1.211,1.211,0,0,0-1.211-1.211h-23V7.211A1.211,1.211,0,0,0,36.424,6H12.211A1.211,1.211,0,0,0,11,7.211V33.845A1.211,1.211,0,0,0,12.211,35.056Zm1.211-2.421V18.107H35.213V32.634ZM37.634,42.32V27.792H59.426V42.32ZM59.426,18.107V25.37H37.634V18.107ZM35.213,8.421v7.264H13.421V8.421Z" transform="translate(2.317 1.053)"/>
      <path id="Trazado_889406" data-name="Trazado 889406" d="M58.356,40.506a1.211,1.211,0,0,0,.252-1c-.2-1-.363-3.356.375-4.254a.983.983,0,0,1,.86-.352,1.211,1.211,0,0,0,1.211-1.211V31.264a1.211,1.211,0,0,0-1.211-1.211.983.983,0,0,1-.86-.352c-.738-.9-.571-3.254-.375-4.254A1.211,1.211,0,0,0,57.421,24H55v2.421h1.047a7.1,7.1,0,0,0,1.062,4.815,3.287,3.287,0,0,0,1.523,1.051v.375a3.287,3.287,0,0,0-1.523,1.051,7.1,7.1,0,0,0-1.062,4.815H55v2.421h2.421A1.211,1.211,0,0,0,58.356,40.506Z" transform="translate(11.586 4.845)"/>
      <path id="Trazado_889407" data-name="Trazado 889407" d="M5.211,16.9a.983.983,0,0,1,.86.352c.739.9.571,3.254.375,4.254a1.211,1.211,0,0,0,1.186,1.447h2.421V20.528H9.006a7.1,7.1,0,0,0-1.062-4.815,3.287,3.287,0,0,0-1.523-1.051v-.375a3.287,3.287,0,0,0,1.523-1.051A7.1,7.1,0,0,0,9.006,8.421h1.047V6H7.632A1.211,1.211,0,0,0,6.446,7.453c.2,1,.363,3.356-.375,4.254a.983.983,0,0,1-.86.346A1.211,1.211,0,0,0,4,13.264v2.421A1.211,1.211,0,0,0,5.211,16.9Z" transform="translate(0.843 1.053)"/>
      <path id="Trazado_889408" data-name="Trazado 889408" d="M26.987,18.293l-3.632,3.632a1.211,1.211,0,0,0,0,1.712l3.632,3.632L28.7,25.557l-2.776-2.776L28.7,20Z" transform="translate(4.845 3.643)"/>
      <path id="Trazado_889409" data-name="Trazado 889409" d="M38,26.293,36.293,28l2.776,2.776-2.776,2.776L38,35.269l3.632-3.632a1.211,1.211,0,0,0,0-1.712Z" transform="translate(7.645 5.328)"/>
    </g>
    <rect id="Rectángulo_404791" data-name="Rectángulo 404791" width="95" height="95" transform="translate(843 1277)" fill="none"/>
  </g>
</svg>
