<svg id="Grupo_1102388" data-name="Grupo 1102388" xmlns="http://www.w3.org/2000/svg" xmlns:xlink="http://www.w3.org/1999/xlink" width="198" height="191.842" viewBox="0 0 198 191.842">
  <defs>
    <clipPath id="clip-path">
      <rect id="Rect치ngulo_404632" data-name="Rect치ngulo 404632" width="198" height="191.842" fill="none"/>
    </clipPath>
  </defs>
  <g id="Grupo_1102387" data-name="Grupo 1102387" clip-path="url(#clip-path)">
    <path id="Trazado_889170" data-name="Trazado 889170" d="M76.979,23.355H52.247C23.7,23.355.1,45.356.1,73.942v42.264H130.934V73.942c0-28.585-25.412-50.587-53.955-50.587" transform="translate(0.319 75.215)" fill="#00ffdf"/>
    <path id="Trazado_889171" data-name="Trazado 889171" d="M131.257,116.95a.421.421,0,0,1-.422-.422V74.264C130.835,46.6,106.821,24.1,77.3,24.1H52.566C23.563,24.1.844,46.134.844,74.264v42.264a.422.422,0,1,1-.844,0V74.264A49.869,49.869,0,0,1,15.5,37.947,53.243,53.243,0,0,1,52.566,23.255H77.3a56.857,56.857,0,0,1,37.963,14.683c10.585,9.682,16.413,22.58,16.413,36.326v42.264a.421.421,0,0,1-.422.422" transform="translate(0 74.892)" fill="#000100"/>
    <path id="Trazado_889172" data-name="Trazado 889172" d="M81.226,78.99c.118-.819.338-2.055.6-3.6a104.844,104.844,0,0,0,.7-30.658c-.338-2.832-.675-5.828-.916-8.369v-.021A60.13,60.13,0,0,0,79.652,25.33C74.09,5.342,60.563,3.38,53.548,2.126,20.911-3.753,3.776,18.067,6.465,40.376a62.545,62.545,0,0,1,.46,6.267,31.249,31.249,0,0,1-.46,6.436c-.025.456-.025.941-.025,1.38-.025.43-.025.844-.025,1.253v.025c0,11.467,2.182,21.7,2.612,25.015.95,7.141-4.545,9.1-4.545,9.1a23.049,23.049,0,0,0,6.508,5.056c.338.19.675.363,1.017.532a9.338,9.338,0,0,0,1.089.506,40.391,40.391,0,0,0,5.744,2.043l-.013.03c.127.034.253.055.388.08a62.805,62.805,0,0,0,8.276,1.671c.308-.106.625-.224.929-.333,24.39,2.131,49.831-5.761,49.831-5.761.338-.173.675-.342,1.017-.532a23.246,23.246,0,0,0,6.508-5.056s-5.5-1.963-4.55-9.1" transform="translate(14.431 3.719)"/>
    <path id="Trazado_889173" data-name="Trazado 889173" d="M37.886,22.193s9.72,35.583,3.659,68.292H14.534L12.7,26.578Z" transform="translate(40.894 71.472)" fill="#fff"/>
    <path id="Trazado_889174" data-name="Trazado 889174" d="M43.695,95.72l-27.855,0-3.689-75,26.695.43.1.329c.089.308,10.83,41.424,4.82,73.867Zm-26.952-.933,26.175,0c5.508-30.29-3.845-69.343-4.778-72.727l-25.032-.405Z" transform="translate(39.132 66.706)"/>
    <path id="Trazado_889175" data-name="Trazado 889175" d="M31.975,2.872C7.817,5.772,6.538,18.1,7.749,25.785,8.99,33.6,9.328,48.065,11.784,54.607c4.769,12.683,10.8,13.628,18.608,20.845,1.946,1.794,7.15,2.937,10.838,2.617a12.336,12.336,0,0,0,9.483-5.06c6.166-8.665,13.041-14.253,13.641-26.948.329-6.981-2.76-18.79-3.414-26.669C60.3,11.647,56.133-.031,31.975,2.872" transform="translate(23.964 7.789)" fill="#fff"/>
    <path id="Trazado_889176" data-name="Trazado 889176" d="M62.08,19.822C60.978,6.485,50.7.513,32.389,2.712c-10.64,1.279-18,4.533-21.879,9.673C7.695,16.1,6.72,20.81,7.6,26.376c.422,2.68.743,6.166,1.08,9.855.633,6.9,1.351,14.73,2.992,19.089,3.49,9.31,7.745,12.48,12.661,16.152a71.723,71.723,0,0,1,6.111,4.942c2,1.849,6.635,2.849,9.986,2.849.464,0,.916-.021,1.351-.055a13.021,13.021,0,0,0,9.952-5.335c1.279-1.794,2.591-3.465,3.87-5.086,4.832-6.149,9.4-11.957,9.889-22.208.2-4.229-.827-10.15-1.819-15.877-.684-3.967-1.334-7.715-1.6-10.88M64.2,46.517c-.464,9.842-4.7,15.228-9.61,21.47C53.3,69.615,51.976,71.3,50.68,73.118a11.79,11.79,0,0,1-9.015,4.794c-.4.038-.8.051-1.232.051-3.587,0-7.588-1.1-9.108-2.5a72.166,72.166,0,0,0-6.217-5.031c-4.951-3.7-8.859-6.614-12.223-15.565-1.574-4.2-2.283-11.931-2.912-18.747C9.636,32.4,9.311,28.9,8.885,26.17c-.827-5.2.072-9.576,2.659-13C15.207,8.321,22.268,5.24,32.545,4a58.865,58.865,0,0,1,7-.452c13.2,0,20.343,5.512,21.237,16.38.266,3.22.92,6.993,1.612,10.99.983,5.66,1.992,11.513,1.8,15.595" transform="translate(23.469 7.299)"/>
    <path id="Trazado_889177" data-name="Trazado 889177" d="M51.864,7.109S32.273-7.565,16.024,5.716,9.258,44.773,9.258,44.773a31.43,31.43,0,0,1,10.349-6.466c-1.439-11.944,3.33-16.456,3.33-16.456-1.055,6.339.312,14.535.312,14.535a79.932,79.932,0,0,0,9.192-1.1l1.684-4.06,1.781,3.642,8.259-.992c-.633-3.541.772-8.188.772-8.188a25.573,25.573,0,0,1,2.684,8.568c12.8-1.536,17.642,2.6,17.642,2.6,3.836-28.505-13.4-29.75-13.4-29.75" transform="translate(20.952 0.496)"/>
    <path id="Trazado_889178" data-name="Trazado 889178" d="M52.561,6.976C51.282,6.052,42.5,0,31.948,0A24.532,24.532,0,0,0,16.067,5.71C-.351,19.127,9.014,45.235,9.107,45.493a.644.644,0,0,0,.456.409.68.68,0,0,0,.156.017.649.649,0,0,0,.439-.169,31.117,31.117,0,0,1,10.1-6.331.648.648,0,0,0,.443-.7c-.853-7.086.544-11.488,1.739-13.818a58.11,58.11,0,0,0,.62,12.087.6.6,0,0,0,.654.54,78.326,78.326,0,0,0,9.289-1.11.641.641,0,0,0,.49-.393L34.633,33.3l1.148,2.351a.652.652,0,0,0,.663.359l8.259-.992a.659.659,0,0,0,.443-.257.648.648,0,0,0,.114-.5,17.645,17.645,0,0,1,.333-6.158,25.617,25.617,0,0,1,1.844,6.719.627.627,0,0,0,.236.439.682.682,0,0,0,.485.143,44.424,44.424,0,0,1,5.356-.342c8.357,0,11.75,2.764,11.784,2.794a.646.646,0,0,0,1.064-.409c1.5-11.121.03-19.5-4.364-24.905a14.957,14.957,0,0,0-9.437-5.563M65.206,36.241c-1.574-.912-5.229-2.477-11.691-2.477a44.738,44.738,0,0,0-4.87.274,26.713,26.713,0,0,0-2.676-8.162.631.631,0,0,0-.633-.338.659.659,0,0,0-.566.452,22.908,22.908,0,0,0-.882,7.816l-7.141.861-1.583-3.233a.639.639,0,0,0-.6-.363.646.646,0,0,0-.578.405L32.434,35.2a81.491,81.491,0,0,1-8.171,1.017c-.283-1.941-1.1-8.546-.228-13.771a.649.649,0,0,0-.338-.679.641.641,0,0,0-.747.106c-.207.186-4.858,4.744-3.592,16.494a32.472,32.472,0,0,0-9.336,5.765C8.563,39.466,2.882,18.165,16.89,6.711A23.268,23.268,0,0,1,31.948,1.3c10.733,0,19.891,6.757,19.984,6.829a.668.668,0,0,0,.342.131,13.646,13.646,0,0,1,8.72,5.1C65.016,18.308,66.43,26,65.206,36.241" transform="translate(20.495)"/>
    <path id="Trazado_889179" data-name="Trazado 889179" d="M13.41,21.265l.181,1.283c.435-.063,10.788-1.574,17.165-6.293l-.768-1.038c-6.115,4.516-16.477,6.035-16.578,6.048" transform="translate(43.187 49.006)"/>
    <path id="Trazado_889180" data-name="Trazado 889180" d="M19.845,10.08a3.039,3.039,0,0,0-3.182,2.874,3,3,0,0,0,.371,1.6,10.691,10.691,0,0,1,5.685-1.291,3.035,3.035,0,0,0-2.874-3.178" transform="translate(53.65 32.45)"/>
    <path id="Trazado_889181" data-name="Trazado 889181" d="M20.368,9.927l-.186,0a3.674,3.674,0,0,0-3.672,3.5,3.59,3.59,0,0,0,.456,1.929.643.643,0,0,0,.561.342.7.7,0,0,0,.3-.072,9.766,9.766,0,0,1,4.5-1.211c.219,0,.4.008.536.013l.236.008a.776.776,0,0,0,.755-.646,3.679,3.679,0,0,0-3.49-3.858m1.963,3.178a10.736,10.736,0,0,0-4.457,1.047,2.211,2.211,0,0,1-.063-.667A2.392,2.392,0,0,1,20.3,11.227H20.3A2.358,2.358,0,0,1,21.951,12a2.424,2.424,0,0,1,.566,1.11c-.059,0-.118-.008-.186-.008" transform="translate(53.157 31.957)"/>
    <path id="Trazado_889182" data-name="Trazado 889182" d="M17.438,13.433H17.4c-1.14.021-2.22.882-3.212,2.558a.652.652,0,0,0,.228.891.623.623,0,0,0,.329.089.654.654,0,0,0,.561-.317c.717-1.22,1.469-1.908,2.106-1.916h.025a1.726,1.726,0,0,1,1.211.772.649.649,0,1,0,1.093-.7,3.022,3.022,0,0,0-2.3-1.376" transform="translate(45.405 43.261)"/>
    <path id="Trazado_889183" data-name="Trazado 889183" d="M15.328,10.835l.76,1.055c.038-.025,3.579-2.541,7.2-1.823a35.826,35.826,0,0,1,7.285,2.406l.561-1.173a36.485,36.485,0,0,0-7.6-2.5c-4.157-.836-8.053,1.916-8.213,2.034" transform="translate(49.364 27.833)"/>
    <path id="Trazado_889184" data-name="Trazado 889184" d="M12.412,11.773A3.031,3.031,0,0,0,11.37,15.93,10.752,10.752,0,0,1,16.991,14.4a3.018,3.018,0,0,0-4.579-2.625" transform="translate(35.229 36.526)"/>
    <path id="Trazado_889185" data-name="Trazado 889185" d="M12.579,11.686a3.671,3.671,0,0,0-1.266,5.052.677.677,0,0,0,.574.321,1.107,1.107,0,0,0,.6-.236,9.437,9.437,0,0,1,5.01-1.308.643.643,0,0,0,.637-.642,3.609,3.609,0,0,0-.511-1.92,3.779,3.779,0,0,0-5.043-1.266m-.4,3.82a2.382,2.382,0,0,1,4.33-1.887,2.424,2.424,0,0,1,.262.62,10.5,10.5,0,0,0-4.592,1.266" transform="translate(34.733 36.056)"/>
    <path id="Trazado_889186" data-name="Trazado 889186" d="M8.993,34.187C7.178,63.3,42.9,77.481,54.287,77.481c6.2,0-2.49-20.887-22.28-40.5s-22.672-8.31-23.014-2.8" transform="translate(28.747 83.459)"/>
    <path id="Trazado_889187" data-name="Trazado 889187" d="M54.572,75.39a1.115,1.115,0,0,1-1.156.755c-7.593,0-24.276-6.077-34.6-17.055-7-7.453-10.256-15.983-9.673-25.357.215-3.5,1.3-7.664,5.221-7.664,3.786,0,9.395,3.659,16.688,10.88C47.849,53.587,56.332,71.106,54.572,75.39" transform="translate(29.243 83.955)"/>
    <path id="Trazado_889188" data-name="Trazado 889188" d="M14.969,11.779a36.732,36.732,0,0,0-5.525,5.782l1.047.772a35.19,35.19,0,0,1,5.3-5.55C18.636,10.453,22.958,10.989,23,11l.177-1.287c-.207-.021-4.921-.629-8.209,2.068" transform="translate(30.414 31.038)"/>
    <path id="Trazado_889189" data-name="Trazado 889189" d="M61.219,15.8c-3.182.456-34.557,14.738-34.557,14.738a46.25,46.25,0,0,0-7.044-10.2c-4.4-4.7-8.787-1.215-6.673,1.659a25.936,25.936,0,0,1,4.7,11.974c.452,4.541-2.389,11.362-2.085,17.422s-8.1,40.242-8.1,40.242l27.1,16.224s-2.98-46.016.954-49.5,11.855-4.98,16.1-9.526S53.095,41.7,53.095,41.7c3.178-3.334,1.059-7.424,1.059-7.424,2.781-7.584-.992-7.234-.992-7.234,3.668-1.773,8.483-5.149,9.994-6.993,2.372-2.887,0-4.52-1.937-4.246" transform="translate(24.035 50.784)" fill="#fff"/>
    <path id="Trazado_889190" data-name="Trazado 889190" d="M61.7,15.655c-3.039.43-29.78,12.535-34.173,14.527a46.857,46.857,0,0,0-6.871-9.8A6.928,6.928,0,0,0,15.8,17.871a3.471,3.471,0,0,0-3.178,1.789A3.028,3.028,0,0,0,13,22.877a25.238,25.238,0,0,1,4.571,11.644c.211,2.119-.342,4.837-.929,7.711a39.518,39.518,0,0,0-1.161,9.682c.3,5.9-7.994,39.715-8.078,40.061l-.114.46,28.573,17.11-.08-1.237c-1.144-17.667-1.958-46.59.739-48.966a28.294,28.294,0,0,1,6.8-3.824c3.393-1.54,6.9-3.14,9.344-5.753,3.545-3.8,2.528-6.487,1.84-7.55a7.343,7.343,0,0,0,.92-7.479c1.152-3.233,1.279-5.52.376-6.812a2.449,2.449,0,0,0-.452-.494c3.5-1.9,7.479-4.773,8.88-6.487,1.465-1.785,1.194-3.081.907-3.7A3.278,3.278,0,0,0,61.7,15.655m1.524,4.469c-1.465,1.781-6.213,5.1-9.775,6.82l-2.473,1.232h2.836a1.118,1.118,0,0,1,.924.49c.376.536.793,2.017-.62,5.875l-.1.262.135.257a5.98,5.98,0,0,1-.954,6.677l-.439.473.46.443c.089.093,2.207,2.25-1.507,6.221-2.262,2.427-5.647,3.971-8.926,5.466a28.77,28.77,0,0,0-7.12,4.026c-3.82,3.376-1.768,40.428-1.253,48.789L8.773,91.814c1.051-4.288,8.289-34.2,8.006-39.964a38.242,38.242,0,0,1,1.14-9.361c.6-2.975,1.169-5.786.941-8.091A26.636,26.636,0,0,0,14.04,22.1a1.725,1.725,0,0,1-.257-1.865A2.2,2.2,0,0,1,15.8,19.171a5.691,5.691,0,0,1,3.9,2.1,46.336,46.336,0,0,1,6.934,10.041l.274.574.578-.257C36.2,27.658,59.343,17.3,61.883,16.938a2.016,2.016,0,0,1,2.076.861c.274.582.017,1.41-.739,2.325" transform="translate(23.468 50.294)"/>
    <path id="Trazado_889191" data-name="Trazado 889191" d="M15.578,24.5l.106,1.3c10.29-.823,13.058-5.077,13.172-5.259l-1.1-.688c-.021.038-2.528,3.879-12.176,4.651" transform="translate(50.169 63.927)"/>
    <path id="Trazado_889192" data-name="Trazado 889192" d="M15.455,26.241l.1,1.3c10.294-.827,13.067-5.081,13.176-5.263l-1.093-.7c-.03.042-2.625,3.9-12.185,4.659" transform="translate(49.773 69.505)"/>
    <path id="Trazado_889193" data-name="Trazado 889193" d="M28.627,27.222,2.89,103.752H62.378L75.014,72.082C21.085,51.57,28.627,27.222,28.627,27.222" transform="translate(9.307 87.668)" fill="#00ffdf"/>
    <path id="Trazado_889194" data-name="Trazado 889194" d="M62.7,104.5a.4.4,0,0,1-.156-.03.427.427,0,0,1-.236-.549L74.781,72.648C47.1,62.046,35.991,50.41,31.547,42.492a24.415,24.415,0,0,1-3.389-11.281l-24.546,73a.43.43,0,0,1-.536.266.421.421,0,0,1-.262-.536l25.732-76.53a.409.409,0,0,1,.528-.266.422.422,0,0,1,.279.523c-.076.245-6.732,24.234,46.13,44.345a.406.406,0,0,1,.241.224.414.414,0,0,1,0,.325L63.091,104.234a.424.424,0,0,1-.393.266" transform="translate(8.987 87.343)" fill="#000100"/>
    <path id="Trazado_889195" data-name="Trazado 889195" d="M8.982,27.139l.025-.08-.025.08" transform="translate(28.926 87.143)" fill="#fff"/>
    <path id="Trazado_889196" data-name="Trazado 889196" d="M9.674,26.93a.639.639,0,0,0-.8.452l-.025.089a.6.6,0,0,0,.43.743l.034.008.055.013a.257.257,0,0,0,.1.013.708.708,0,0,0,.616-.405.424.424,0,0,0,.042-.11v0a.653.653,0,0,0-.452-.8" transform="translate(28.432 86.64)"/>
    <path id="Trazado_889197" data-name="Trazado 889197" d="M19.118.448a19.707,19.707,0,0,0-2.418.4c-4.989,1.118-5.119,8.141-.224,9.6C28.323,13.966,46.6,23.779,46.792,50.8c0,0,9.694-46.307-27.674-50.35" transform="translate(41.48 1.443)" fill="#00ffdf"/>
    <path id="Trazado_889198" data-name="Trazado 889198" d="M19.525.307a20.874,20.874,0,0,0-2.5.418,5.34,5.34,0,0,0-4.284,5.162,5.557,5.557,0,0,0,4.026,5.579c11.075,3.3,29.687,12.847,29.881,39.795a.584.584,0,0,0,.54.582l.055.008a.6.6,0,0,0,.587-.473c.051-.245,4.892-24.158-6.018-39.166C36.846,5.367,29.384,1.362,19.525.307M47.469,45.129C44.725,22.055,27.62,13.454,17.1,10.326a4.33,4.33,0,0,1-3.165-4.4,4.187,4.187,0,0,1,3.351-4.039c1.3-.291,2.233-.376,2.228-.384C28.907,2.514,36.09,6.359,40.851,12.909c7.293,10.036,7.323,24.255,6.618,32.219" transform="translate(41.026 0.989)"/>
    <path id="Trazado_889199" data-name="Trazado 889199" d="M36.912.175a20.5,20.5,0,0,1,2.655.439c5.478,1.224,5.626,8.939.241,10.539C26.8,15.023,6.727,25.8,6.516,55.48c0,0-10.653-50.87,30.4-55.305" transform="translate(16.979 0.564)" fill="#00ffdf"/>
    <path id="Trazado_889200" data-name="Trazado 889200" d="M12.954,13.091C.973,29.58,6.295,55.849,6.349,56.106a.65.65,0,0,0,.642.519h.063a.655.655,0,0,0,.591-.65c.211-29.59,20.655-40.082,32.827-43.7a6.107,6.107,0,0,0,4.41-6.137,5.867,5.867,0,0,0-4.7-5.672A21.719,21.719,0,0,0,37.438.02C26.608,1.181,18.416,5.578,12.954,13.091m1.059.764C19.243,6.655,27.135,2.438,37.45,1.324c-.013.008,1.013.106,2.448.422a4.617,4.617,0,0,1,3.68,4.44A4.761,4.761,0,0,1,40.1,11.019C28.549,14.454,9.76,23.9,6.746,49.248c-.772-8.753-.739-24.373,7.268-35.393" transform="translate(16.505 0.064)"/>
    <path id="Trazado_889201" data-name="Trazado 889201" d="M55.768,69.906a.287.287,0,0,1-.084-.008C15.162,61.8,7.152,33.374,7.076,33.087a.422.422,0,0,1,.3-.519.437.437,0,0,1,.515.3c.076.283,7.977,28.21,47.962,36.2a.422.422,0,0,1-.084.836" transform="translate(22.742 104.843)" fill="#000100"/>
    <path id="Trazado_889202" data-name="Trazado 889202" d="M75.989,11.277h-.616a54.465,54.465,0,0,0-32.207,98.456,8.541,8.541,0,0,1,3.49,6.9v4.381h58.049v-4.381a8.541,8.541,0,0,1,3.49-6.9A54.465,54.465,0,0,0,75.989,11.277" transform="translate(67.034 36.317)" fill="#fff"/>
    <path id="Trazado_889203" data-name="Trazado 889203" d="M105.023,121.751H46.975a.416.416,0,0,1-.418-.418v-4.385a8.14,8.14,0,0,0-3.317-6.55A54.888,54.888,0,0,1,75.691,11.178h.62A54.888,54.888,0,0,1,108.763,110.4a8.14,8.14,0,0,0-3.317,6.55v4.385a.417.417,0,0,1-.422.418m-57.627-.84h57.209v-3.963a8.99,8.99,0,0,1,3.663-7.234,54.045,54.045,0,0,0-31.958-97.7h-.62a54.045,54.045,0,0,0-31.958,97.7,8.99,8.99,0,0,1,3.663,7.234Z" transform="translate(66.712 35.999)" fill="#000100"/>
    <path id="Trazado_889204" data-name="Trazado 889204" d="M87.511,49.718H28.424a2.111,2.111,0,0,1-2.11-2.11v-4.22a2.111,2.111,0,0,1,2.11-2.11H87.511a2.111,2.111,0,0,1,2.11,2.11v4.22a2.111,2.111,0,0,1-2.11,2.11" transform="translate(84.744 132.932)" fill="#8722e2"/>
    <path id="Trazado_889205" data-name="Trazado 889205" d="M87.83,50.459H28.747a2.534,2.534,0,0,1-2.532-2.532v-4.22a2.531,2.531,0,0,1,2.532-2.528H87.83a2.532,2.532,0,0,1,2.537,2.528v4.22a2.535,2.535,0,0,1-2.537,2.532M28.747,42.018a1.69,1.69,0,0,0-1.688,1.688v4.22a1.691,1.691,0,0,0,1.688,1.692H87.83a1.7,1.7,0,0,0,1.692-1.692v-4.22a1.694,1.694,0,0,0-1.692-1.688Z" transform="translate(84.425 132.613)" fill="#000100"/>
    <path id="Trazado_889206" data-name="Trazado 889206" d="M87.511,47.718H28.424a2.111,2.111,0,0,1-2.11-2.11v-4.22a2.111,2.111,0,0,1,2.11-2.11H87.511a2.111,2.111,0,0,1,2.11,2.11v4.22a2.111,2.111,0,0,1-2.11,2.11" transform="translate(84.744 126.491)" fill="#8722e2"/>
    <path id="Trazado_889207" data-name="Trazado 889207" d="M87.83,48.459H28.747a2.534,2.534,0,0,1-2.532-2.532v-4.22a2.531,2.531,0,0,1,2.532-2.528H87.83a2.532,2.532,0,0,1,2.537,2.528v4.22a2.535,2.535,0,0,1-2.537,2.532M28.747,40.018a1.69,1.69,0,0,0-1.688,1.688v4.22a1.691,1.691,0,0,0,1.688,1.692H87.83a1.7,1.7,0,0,0,1.692-1.692v-4.22a1.694,1.694,0,0,0-1.692-1.688Z" transform="translate(84.425 126.172)" fill="#000100"/>
    <path id="Trazado_889208" data-name="Trazado 889208" d="M87.511,45.718H28.424a2.111,2.111,0,0,1-2.11-2.11v-4.22a2.111,2.111,0,0,1,2.11-2.11H87.511a2.111,2.111,0,0,1,2.11,2.11v4.22a2.111,2.111,0,0,1-2.11,2.11" transform="translate(84.744 120.05)" fill="#8722e2"/>
    <path id="Trazado_889209" data-name="Trazado 889209" d="M87.83,46.459H28.747a2.534,2.534,0,0,1-2.532-2.532v-4.22a2.531,2.531,0,0,1,2.532-2.528H87.83a2.532,2.532,0,0,1,2.537,2.528v4.22a2.535,2.535,0,0,1-2.537,2.532M28.747,38.018a1.69,1.69,0,0,0-1.688,1.688v4.22a1.691,1.691,0,0,0,1.688,1.692H87.83a1.7,1.7,0,0,0,1.692-1.692v-4.22a1.694,1.694,0,0,0-1.692-1.688Z" transform="translate(84.425 119.731)" fill="#000100"/>
    <path id="Trazado_889210" data-name="Trazado 889210" d="M66.8,51.718H33.034a4.217,4.217,0,0,1-4.22-4.22v-4.22h42.2V47.5a4.214,4.214,0,0,1-4.22,4.22" transform="translate(92.795 139.373)" fill="#8722e2"/>
    <path id="Trazado_889211" data-name="Trazado 889211" d="M67.117,52.459H33.353a4.644,4.644,0,0,1-4.638-4.643V43.6a.416.416,0,0,1,.418-.418h42.2a.417.417,0,0,1,.422.418v4.22a4.645,4.645,0,0,1-4.643,4.643M29.555,44.018v3.8a3.808,3.808,0,0,0,3.8,3.8H67.117a3.811,3.811,0,0,0,3.8-3.8v-3.8Z" transform="translate(92.476 139.054)" fill="#000100"/>
    <path id="Trazado_889212" data-name="Trazado 889212" d="M100.783,53.261A37.984,37.984,0,1,1,62.8,15.277a37.982,37.982,0,0,1,37.984,37.984" transform="translate(79.913 49.199)" fill="#f9bb4f"/>
    <rect id="Rect치ngulo_404631" data-name="Rect치ngulo 404631" width="48.169" height="5.272" transform="translate(131.523 123.95) rotate(-68.735)" fill="#fff"/>
    <path id="Trazado_889213" data-name="Trazado 889213" d="M38.05,51.258l-11.518-15.3,11.518-15.3,4.212,3.174-9.125,12.13,9.125,12.13Z" transform="translate(85.445 66.507)" fill="#fff"/>
    <path id="Trazado_889214" data-name="Trazado 889214" d="M41.582,51.258,37.37,48.084l9.125-12.13L37.37,23.825l4.212-3.174L53.1,35.955Z" transform="translate(120.35 66.507)" fill="#fff"/>
  </g>
</svg>
