<svg id="Grupo_1102394" data-name="Grupo 1102394" xmlns="http://www.w3.org/2000/svg" xmlns:xlink="http://www.w3.org/1999/xlink" width="78.028" height="87.81" viewBox="0 0 78.028 87.81">
  <defs>
    <clipPath id="clip-path">
      <rect id="Rectángulo_404639" data-name="Rectángulo 404639" width="78.028" height="87.81" fill="#fff"/>
    </clipPath>
  </defs>
  <g id="Grupo_1102393" data-name="Grupo 1102393" clip-path="url(#clip-path)">
    <path id="Trazado_889227" data-name="Trazado 889227" d="M139.313,186.415c-.376-3.083,3.263-4.02,3.678-6.536a.353.353,0,0,0-.247-.4c-2.1-.628-6.308-.684-9.944-.1a.349.349,0,0,0-.27.463,5.158,5.158,0,0,0,.65,1.466c1.4,1.8,2.8,3.6,4.353,5.258a6.578,6.578,0,0,1,1.705,4.837c-.008,3.727,0,7.455,0,11.5a.351.351,0,0,0,.333.35l11.673.525a.353.353,0,0,1,.334.308,14.2,14.2,0,0,1-4.055,12.425,7.152,7.152,0,0,0-2.306,4.8,7.633,7.633,0,0,1-7.868,7.17,7.8,7.8,0,0,1-7.291-7.864,4.053,4.053,0,0,0-1.486-3.494c-3.407-2.719-4.628-6.512-4.776-10.717-.083-2.351.279-2.71,2.616-2.807,2.28-.1,4.562-.131,6.842-.225.815-.033,1.627-.135,2.575-.228a.35.35,0,0,0,.316-.347c0-4.242.063-8.279-.056-12.311a4.742,4.742,0,0,0-1.195-2.414c-1.461-1.884-3.053-3.665-4.543-5.527a9.91,9.91,0,0,1-1.5-2.345c-.8-1.955.092-3.761,2.182-3.878,4.343-.243,8.707-.306,13.055-.183a2.712,2.712,0,0,1,2.6,3.734,13.294,13.294,0,0,1-6,6.828,2.17,2.17,0,0,1-1.045.032.354.354,0,0,1-.327-.313m-11.99,20.406a.349.349,0,0,0-.35.35,11.107,11.107,0,0,0,11.21,10.6c4.669-.129,10.579-4.691,10.26-10.624a.347.347,0,0,0-.348-.324Zm6.28,13.609a.351.351,0,0,0-.345.4c.444,3.216,2.372,4.894,4.9,4.5,2.9-.455,4.27-2.051,3.982-4.6a.346.346,0,0,0-.346-.3Z" transform="translate(-98.901 -140.677)" fill="#fff"/>
    <path id="Trazado_889228" data-name="Trazado 889228" d="M82.684,119.085a.351.351,0,0,1-.46.183,12.935,12.935,0,0,1-2.464-1.2A24.208,24.208,0,0,1,69.469,97.2c.217-13.874,12.58-24.676,26.443-23.883,9.483.543,20.5,7.507,22.637,19.32,1.876,10.36-1.243,19.044-9.668,25.611a3.2,3.2,0,0,1-1.628.781,1.977,1.977,0,0,1-1.547-.7,1.8,1.8,0,0,1,.173-1.641,9.855,9.855,0,0,1,1.911-1.556,21.444,21.444,0,0,0,2.4-32.117c-7.1-7.195-16.711-8.973-25.739-4.43a21.5,21.5,0,0,0-11.412,24.023,19.646,19.646,0,0,0,8.434,12.942c1.339.895,1.993,1.776,1.217,3.538" transform="translate(-55.501 -58.545)" fill="#fff"/>
    <path id="Trazado_889229" data-name="Trazado 889229" d="M31.157,265.813a.355.355,0,0,1-.073.2,4.028,4.028,0,0,1-.96,1.136c-1.726,1.094-3.483,2.15-5.3,3.092a1.685,1.685,0,0,1-2.442-.477c-.674-1.113.08-1.726.913-2.209,1.859-1.078,3.7-2.209,5.639-3.119a1.514,1.514,0,0,1,2.218,1.377" transform="translate(-17.679 -211.146)" fill="#fff"/>
    <path id="Trazado_889230" data-name="Trazado 889230" d="M321.971,99.461a1.362,1.362,0,0,1-1.513-.923,1.488,1.488,0,0,1,.742-1.824c1.729-1.1,3.526-2.107,5.339-3.07.857-.455,1.832-.583,2.44.44.653,1.1-.1,1.8-.943,2.223-2.039,1.028-3.78,2.774-6.064,3.153" transform="translate(-255.97 -74.547)" fill="#fff"/>
    <path id="Trazado_889231" data-name="Trazado 889231" d="M186.949,9.239h0a1.568,1.568,0,0,1-1.567-1.563c-.008-2.043-.022-4,.02-5.95.023-1.044.627-1.929,1.711-1.685a2.275,2.275,0,0,1,1.331,1.669c.122,1.951.089,3.912.071,5.973a1.568,1.568,0,0,1-1.567,1.556" transform="translate(-148.109 0)" fill="#fff"/>
    <path id="Trazado_889232" data-name="Trazado 889232" d="M322.722,268.263a1.3,1.3,0,0,1,1.224-2.181,1.223,1.223,0,0,1,.146.054,48.733,48.733,0,0,1,5.921,3.183,2.147,2.147,0,0,1,.5,1.789.377.377,0,0,1-.047.139c-.262.451-1.023.871-1.326.748a17.745,17.745,0,0,1-6.416-3.732" transform="translate(-257.543 -212.548)" fill="#fff"/>
    <path id="Trazado_889233" data-name="Trazado 889233" d="M92.222,24.454a1.193,1.193,0,0,1,1.334.016,3.734,3.734,0,0,1,.967.9c1.125,1.842,2.21,3.714,3.187,5.637.218.429.117,1.466-.15,1.6-.541.273-1.708.389-1.9.1a70.634,70.634,0,0,1-3.991-6.865c-.294-.651-.04-1.051.553-1.391" transform="translate(-73.143 -19.381)" fill="#fff"/>
    <path id="Trazado_889234" data-name="Trazado 889234" d="M23.1,96.3a.981.981,0,0,1,.564-1.623,2.222,2.222,0,0,1,1.3.013,63.8,63.8,0,0,1,6.108,3.462,1.264,1.264,0,0,1-.987,2.282c-2.4-.9-4.869-1.757-6.982-4.133" transform="translate(-18.255 -75.572)" fill="#fff"/>
    <path id="Trazado_889235" data-name="Trazado 889235" d="M268.759,26.071a1.025,1.025,0,0,1,.061.86,12.292,12.292,0,0,1-.7,1.629c-.762,1.345-1.642,2.624-2.381,3.981-.6,1.1-1.471,1.535-2.545.995-1.139-.573-.731-1.6-.251-2.4,1.105-1.857,2.244-3.7,3.489-5.464A1.78,1.78,0,0,1,268,25.112c.316.093.531.533.763.959" transform="translate(-209.7 -20.039)" fill="#fff"/>
    <path id="Trazado_889236" data-name="Trazado 889236" d="M346.608,187.173h.029c1.294-.092,2.212-.17,3.132-.219a1.4,1.4,0,0,1,1.6,1.471c.094,1.065-.553,1.506-1.495,1.516-2.261.024-4.527.071-6.778-.081a.809.809,0,0,1-.451-.218,1.452,1.452,0,0,1-.04-2.191.826.826,0,0,1,.411-.213,23.431,23.431,0,0,1,3.6-.063" transform="translate(-273.347 -149.367)" fill="#fff"/>
    <path id="Trazado_889237" data-name="Trazado 889237" d="M4.807,186.861a8.791,8.791,0,0,1,3.753.3.373.373,0,0,1,.139.111c1.18,1.538.314,2.5-.9,2.532a66.014,66.014,0,0,1-6.8-.021,1.058,1.058,0,0,1-.639-.4,1.343,1.343,0,0,1,.4-2.13,1.058,1.058,0,0,1,.279-.081c1.128-.155,3.356-.213,3.669-.289Z" transform="translate(0 -149.256)" fill="#fff"/>
  </g>
</svg>
