<svg id="Grupo_1102392" data-name="Grupo 1102392" xmlns="http://www.w3.org/2000/svg" xmlns:xlink="http://www.w3.org/1999/xlink" width="77.077" height="81.713" viewBox="0 0 77.077 81.713">
  <defs>
    <clipPath id="clip-path">
      <rect id="Rectángulo_404638" data-name="Rectángulo 404638" width="77.077" height="81.713" fill="none"/>
    </clipPath>
  </defs>
  <g id="Grupo_1102391" data-name="Grupo 1102391" clip-path="url(#clip-path)">
    <path id="Trazado_889215" data-name="Trazado 889215" d="M74.415,47.686c-.679.6-.975,1.046-1.378,1.193-3.118,1.136-4.381,3.593-4.539,6.645a12.385,12.385,0,0,1-1.874,6.19,5.545,5.545,0,0,0-.671,4.66,17.264,17.264,0,0,1,.4,2.828c.347,3.043-.865,4.848-3.914,5.162a30.522,30.522,0,0,1-6.836-.145,66.38,66.38,0,0,1-14.987-3.543,4.178,4.178,0,0,0-1.646-.426,6.5,6.5,0,0,0-1.729.642,5.606,5.606,0,0,0,1.033,1.8,6.664,6.664,0,0,0,2.128.775c2.432.764,4.868,1.517,7.5,2.336,0,1.8-.02,3.494.025,5.185.006.215.357.421.635.727,2.711-.825,1.461-3.556,2.554-5.424a26.844,26.844,0,0,0,3.808.662c2.932.106,5.936.434,8.79-.049,4-.676,5.9-3.715,5.544-7.751a8.323,8.323,0,0,0-.294-1.689A6.665,6.665,0,0,1,70.6,60.6a4.41,4.41,0,0,0,.648-2.351c.093-.844-.082-1.713-.037-2.566a4.373,4.373,0,0,1,2.6-4.106,7.2,7.2,0,0,0,1.91-1.223c1.684-1.576,1.783-3.184.387-5.046-2.056-2.743-4.1-5.5-6.2-8.2-1.151-1.483-1.321-2.8,0-4.326,1.733-2.013,1.44-4.509,1.038-6.846C68.959,14.4,62.449,6.5,51.425,2.625A41.707,41.707,0,0,0,19.634,3.713C8.994,8.467,2.716,16.728.793,28.222-.921,38.461.008,48.356,4.9,57.695c.972,1.856,1.824,3.776,2.713,5.674a42.655,42.655,0,0,1,3.5,14.949c.074.933.169,1.863.25,2.744,2.672.374,2.889.151,2.775-2.107A48.946,48.946,0,0,0,8.455,58.461c-.4-.759-.721-1.559-1.135-2.309-5.539-10.037-5.7-20.671-2.9-31.378C7.136,14.39,14.562,8.222,24.409,4.847A39.8,39.8,0,0,1,49.45,4.714c10.8,3.315,16.941,10.837,18.808,21.922.328,1.946.273,3.79-1.17,5.369a3.972,3.972,0,0,0-.315,5.048C68.289,39.579,70,41.989,71.7,44.4c.755,1.073,1.671,2.033,2.714,3.284" transform="translate(0 -0.001)"/>
    <path id="Trazado_889216" data-name="Trazado 889216" d="M124.944,140.356a23.564,23.564,0,0,0-2.407-2.255c-3.464-2.407-5.215-8.955-2.331-14.04a11.442,11.442,0,0,1,13.148-4.887,11.068,11.068,0,0,1,7.668,11.707,11.542,11.542,0,0,1-4.043,7.348c-.355.312-.877.472-1.145.834-.307.413-.714,1.222-.55,1.418a2.1,2.1,0,0,0,1.6.8,4.626,4.626,0,0,0,2.2-1.211c2.781-2.773,4.594-5.931,4.481-10.1-.165-6.088-3.03-10.655-8.529-12.974-5-2.108-11.6-.913-15.026,3.039-3.8,4.38-5.507,10.463-2.386,15.867a28.058,28.058,0,0,0,3.86,4.868c.869.937,2.017.91,3.463-.416" transform="translate(-94.566 -94.542)"/>
    <path id="Trazado_889217" data-name="Trazado 889217" d="M156.939,192.442c-.177-4.169-.244-7.841,2.3-11.2,2.134-2.82.94-5.008-2.661-5.409a11.828,11.828,0,0,0-3.4.117,3.2,3.2,0,0,0-2.473,3.627,2.089,2.089,0,0,0,1.069,1.443c.415.119,1.2-.371,1.545-.808,1.659-2.1,1.626-2.123,3.95-.949-1.053,1.965-2.528,3.827-3.043,5.924-.528,2.153-.117,4.536-.117,7.2-1.178.1-2.263.232-3.351.273-3.394.129-3.716.508-3.032,3.7.976,4.559,4.346,7.027,8.916,6.531,3.784-.411,6.962-4.107,7.073-8.162A1.672,1.672,0,0,0,162,192.872c-1.588-.191-3.19-.277-5.058-.43m-6.491,3.1h9.8a4.942,4.942,0,0,1-4.787,4.919c-2.288.122-4.678-2.138-5.01-4.919" transform="translate(-120.185 -143.287)"/>
    <path id="Trazado_889218" data-name="Trazado 889218" d="M269.509,130.127c1.24-.922,2.549-1.8,3.713-2.835.254-.226.178-1.184-.094-1.528a1.517,1.517,0,0,0-1.456-.242,25.061,25.061,0,0,0-3.481,2.378,1.4,1.4,0,0,0-.107,1.293c.162.338.709.491,1.425.935" transform="translate(-218.46 -102.253)"/>
    <path id="Trazado_889219" data-name="Trazado 889219" d="M184.353,75.386l2.711-.2c0-1.475.07-2.7-.017-3.918-.119-1.656-.281-1.727-2.694-1.657Z" transform="translate(-150.288 -56.731)"/>
    <path id="Trazado_889220" data-name="Trazado 889220" d="M283.784,185.39a2.507,2.507,0,0,0,1.272-.143,2.169,2.169,0,0,0,1.075-1.35c.06-.291-.6-1-1.01-1.068a23.216,23.216,0,0,0-3.652-.227c-.842-.007-1.461.343-1.431,1.339a1.3,1.3,0,0,0,1.372,1.446c.565.022,1.131,0,2.373,0" transform="translate(-228.292 -148.86)"/>
    <path id="Trazado_889221" data-name="Trazado 889221" d="M124.747,84.123a37.406,37.406,0,0,0,2.116,4.24c.28.432,1.279.4,1.95.576.159-.6.6-1.318.42-1.787a10.663,10.663,0,0,0-1.849-3.17c-.415-.47-1.381-.453-2.1-.655l-.54.8" transform="translate(-101.696 -67.93)"/>
    <path id="Trazado_889222" data-name="Trazado 889222" d="M271.5,235.672c.713-.494,1.5-.758,1.65-1.227a1.864,1.864,0,0,0-.672-1.6,15.261,15.261,0,0,0-3.255-1.732,1.633,1.633,0,0,0-1.505.319,1.574,1.574,0,0,0,.03,1.541c1.134.968,2.417,1.763,3.751,2.7" transform="translate(-218.1 -188.355)"/>
    <path id="Trazado_889223" data-name="Trazado 889223" d="M230.328,87.822c.453.664.662,1.245,1.071,1.482a1.307,1.307,0,0,0,1.263-.215,31.444,31.444,0,0,0,2.266-3.839,1.285,1.285,0,0,0-.458-1.187c-.456-.187-1.327-.227-1.56.055-.945,1.138-1.713,2.423-2.582,3.706" transform="translate(-187.768 -68.407)"/>
    <path id="Trazado_889224" data-name="Trazado 889224" d="M85.7,123.637c-.434,2.479-.183,3.068,1.871,3.928,1.04.436,2.464,1.522,3.253.107.816-1.462-.876-2.055-1.838-2.641a23.51,23.51,0,0,0-3.287-1.395" transform="translate(-69.721 -100.791)"/>
    <path id="Trazado_889225" data-name="Trazado 889225" d="M89.659,233.262c-2.215-.5-4.539.312-5.452,1.9-.472.822-.128,1.916.592,1.739a20.362,20.362,0,0,0,3.9-1.566,1.526,1.526,0,0,0,.961-2.072" transform="translate(-68.471 -190.04)"/>
    <path id="Trazado_889226" data-name="Trazado 889226" d="M68.557,183.447c-.647,1.306-.5,2.126.808,2.25a22.745,22.745,0,0,0,3.913.04c.435-.034.829-.583,1.242-.9-.379-.465-.721-1.287-1.143-1.33a48.06,48.06,0,0,0-4.82-.064" transform="translate(-55.584 -149.526)"/>
  </g>
</svg>
