<svg id="Grupo_1102405" data-name="Grupo 1102405" xmlns="http://www.w3.org/2000/svg" xmlns:xlink="http://www.w3.org/1999/xlink" width="81" height="73.949" viewBox="0 0 81 73.949">
  <defs>
    <clipPath id="clip-path">
      <rect id="Rectángulo_404665" data-name="Rectángulo 404665" width="81" height="73.949" fill="#fff"/>
    </clipPath>
  </defs>
  <g id="Grupo_1102404" data-name="Grupo 1102404" clip-path="url(#clip-path)">
    <path id="Trazado_889262" data-name="Trazado 889262" d="M30.287,60.541H3.68A3.684,3.684,0,0,1,0,56.862V3.68A3.684,3.684,0,0,1,3.68,0H72.021A3.684,3.684,0,0,1,75.7,3.68V45.154a.676.676,0,1,1-1.351,0V3.68a2.331,2.331,0,0,0-2.328-2.328H3.68A2.331,2.331,0,0,0,1.351,3.68V56.862A2.331,2.331,0,0,0,3.68,59.19H30.287a.676.676,0,1,1,0,1.351" fill="#fff"/>
    <path id="Trazado_889263" data-name="Trazado 889263" d="M75.025,40.253H.676a.676.676,0,0,1,0-1.351H75.025a.676.676,0,0,1,0,1.351" transform="translate(0 -28.388)" fill="#fff"/>
    <path id="Trazado_889264" data-name="Trazado 889264" d="M22.255,20.689H19.634a.676.676,0,1,1,0-1.351h2.622a.676.676,0,0,1,0,1.351" transform="translate(-13.834 -14.111)" fill="#fff"/>
    <path id="Trazado_889265" data-name="Trazado 889265" d="M43.467,20.689H40.846a.676.676,0,0,1,0-1.351h2.622a.676.676,0,1,1,0,1.351" transform="translate(-29.313 -14.111)" fill="#fff"/>
    <path id="Trazado_889266" data-name="Trazado 889266" d="M64.679,20.689H62.058a.676.676,0,1,1,0-1.351h2.622a.676.676,0,1,1,0,1.351" transform="translate(-44.792 -14.111)" fill="#fff"/>
    <path id="Trazado_889267" data-name="Trazado 889267" d="M114.878,111.04A20.791,20.791,0,1,1,135.668,90.25a20.814,20.814,0,0,1-20.791,20.791m0-40.23A19.439,19.439,0,1,0,134.317,90.25,19.461,19.461,0,0,0,114.878,70.81" transform="translate(-68.658 -50.686)" fill="#fff"/>
    <path id="Trazado_889268" data-name="Trazado 889268" d="M232.384,211.651a5.34,5.34,0,0,1-3.788-1.566l-13.608-13.608a.676.676,0,0,1,.955-.956l13.608,13.608a4.005,4.005,0,0,0,5.664-5.665l-13.608-13.608a.676.676,0,0,1,.955-.955l13.608,13.608a5.354,5.354,0,0,1-3.788,9.142" transform="translate(-156.739 -137.701)" fill="#fff"/>
    <path id="Trazado_889269" data-name="Trazado 889269" d="M224.729,206.227a.676.676,0,0,1-.485-1.146l6.232-6.427a.676.676,0,0,1,.97.941l-6.232,6.427a.673.673,0,0,1-.485.205" transform="translate(-163.498 -144.814)" fill="#fff"/>
    <path id="Trazado_889270" data-name="Trazado 889270" d="M129.539,121.275a15.244,15.244,0,1,1,15.244-15.244,15.262,15.262,0,0,1-15.244,15.244m0-29.137a13.893,13.893,0,1,0,13.893,13.893,13.909,13.909,0,0,0-13.893-13.893" transform="translate(-83.404 -66.25)" fill="#fff"/>
    <path id="Trazado_889271" data-name="Trazado 889271" d="M153.551,121.27c-1.814,0-3.462-1.664-4.642-4.686a29.914,29.914,0,0,1-1.709-10.522,29.915,29.915,0,0,1,1.709-10.522c1.18-3.022,2.829-4.687,4.642-4.687s3.462,1.664,4.642,4.687a29.921,29.921,0,0,1,1.709,10.522,29.92,29.92,0,0,1-1.709,10.522c-1.18,3.022-2.829,4.686-4.642,4.686m0-29.066c-1.2,0-2.434,1.395-3.384,3.827a28.56,28.56,0,0,0-1.616,10.031,28.557,28.557,0,0,0,1.616,10.031c.95,2.432,2.183,3.827,3.384,3.827s2.434-1.395,3.384-3.827a28.557,28.557,0,0,0,1.616-10.031,28.56,28.56,0,0,0-1.616-10.031c-.95-2.432-2.183-3.827-3.384-3.827" transform="translate(-107.416 -66.297)" fill="#fff"/>
    <path id="Trazado_889272" data-name="Trazado 889272" d="M134.655,122.821A29.319,29.319,0,0,1,121.4,119.98a.676.676,0,1,1,.635-1.193,27.943,27.943,0,0,0,12.623,2.682,28.356,28.356,0,0,0,12.136-2.434.676.676,0,1,1,.594,1.214,29.717,29.717,0,0,1-12.73,2.571" transform="translate(-88.326 -86.625)" fill="#fff"/>
    <path id="Trazado_889273" data-name="Trazado 889273" d="M146.353,164.878a.674.674,0,0,1-.321-.081,27.793,27.793,0,0,0-12.708-2.728,28.157,28.157,0,0,0-12.259,2.495.676.676,0,0,1-.6-1.209,29.519,29.519,0,0,1,12.862-2.637,29.165,29.165,0,0,1,13.351,2.89.676.676,0,0,1-.322,1.27" transform="translate(-87.632 -117.28)" fill="#fff"/>
  </g>
</svg>
