<svg id="Grupo_1102407" data-name="Grupo 1102407" xmlns="http://www.w3.org/2000/svg" xmlns:xlink="http://www.w3.org/1999/xlink" width="77" height="61.591" viewBox="0 0 77 61.591">
  <defs>
    <clipPath id="clip-path">
      <rect id="Rectángulo_404666" data-name="Rectángulo 404666" width="77" height="61.591" fill="#fff"/>
    </clipPath>
  </defs>
  <g id="Grupo_1102406" data-name="Grupo 1102406" clip-path="url(#clip-path)">
    <path id="Trazado_889274" data-name="Trazado 889274" d="M73.233,61.591H3.767A3.771,3.771,0,0,1,0,57.824V3.767A3.771,3.771,0,0,1,3.767,0H73.233A3.771,3.771,0,0,1,77,3.767V57.824a3.771,3.771,0,0,1-3.767,3.767M53.5,60.164H73.233a2.343,2.343,0,0,0,2.34-2.34V3.767a2.343,2.343,0,0,0-2.34-2.34H3.767a2.343,2.343,0,0,0-2.34,2.34V57.824a2.343,2.343,0,0,0,2.34,2.34Z" transform="translate(0 0)" fill="#fff"/>
    <path id="Trazado_889275" data-name="Trazado 889275" d="M76.288,38.875H.714a.713.713,0,1,1,0-1.427H76.288a.713.713,0,0,1,0,1.427" transform="translate(-0.001 -26.761)" fill="#fff"/>
    <path id="Trazado_889276" data-name="Trazado 889276" d="M21.628,20.041H18.963a.713.713,0,1,1,0-1.427h2.665a.713.713,0,1,1,0,1.427" transform="translate(-13.042 -13.302)" fill="#fff"/>
    <path id="Trazado_889277" data-name="Trazado 889277" d="M42.048,20.041H39.383a.713.713,0,1,1,0-1.427h2.665a.713.713,0,1,1,0,1.427" transform="translate(-27.634 -13.302)" fill="#fff"/>
    <path id="Trazado_889278" data-name="Trazado 889278" d="M62.467,20.041H59.8a.713.713,0,1,1,0-1.427h2.665a.713.713,0,1,1,0,1.427" transform="translate(-42.226 -13.302)" fill="#fff"/>
    <path id="Trazado_889279" data-name="Trazado 889279" d="M50.189,84.333H35.816a.713.713,0,0,1-.713-.713V69.246a.713.713,0,0,1,.713-.713H50.189a.713.713,0,0,1,.713.713V83.619a.713.713,0,0,1-.713.713M36.53,82.906H49.476V69.96H36.53Z" transform="translate(-25.085 -48.975)" fill="#fff"/>
    <path id="Trazado_889280" data-name="Trazado 889280" d="M35.816,86.979a.713.713,0,0,1-.5-1.218L48.628,72.445a.713.713,0,0,1,1.009,1.009L36.321,86.77a.712.712,0,0,1-.5.209" transform="translate(-25.085 -51.621)" fill="#fff"/>
    <path id="Trazado_889281" data-name="Trazado 889281" d="M123.655,84.333H109.282a.713.713,0,0,1-.713-.713V69.246a.713.713,0,0,1,.713-.713h14.373a.714.714,0,0,1,.713.713V83.619a.714.714,0,0,1-.713.713M110,82.906h12.946V69.96H110Z" transform="translate(-77.585 -48.975)" fill="#fff"/>
    <path id="Trazado_889282" data-name="Trazado 889282" d="M109.282,86.979a.713.713,0,0,1-.5-1.218l13.316-13.316a.713.713,0,1,1,1.009,1.009L109.787,86.77a.712.712,0,0,1-.5.209" transform="translate(-77.585 -51.621)" fill="#fff"/>
    <path id="Trazado_889283" data-name="Trazado 889283" d="M196.023,84.333H181.65a.713.713,0,0,1-.713-.713V69.246a.713.713,0,0,1,.713-.713h14.373a.713.713,0,0,1,.713.713V83.619a.713.713,0,0,1-.713.713m-13.659-1.427H195.31V69.96H182.364Z" transform="translate(-129.301 -48.975)" fill="#fff"/>
    <path id="Trazado_889284" data-name="Trazado 889284" d="M181.649,86.979a.713.713,0,0,1-.5-1.218l13.316-13.316a.713.713,0,0,1,1.009,1.009L182.154,86.77a.712.712,0,0,1-.5.209" transform="translate(-129.3 -51.621)" fill="#fff"/>
    <path id="Trazado_889285" data-name="Trazado 889285" d="M90.3,142.53H33.9a.713.713,0,1,1,0-1.427H90.3a.713.713,0,1,1,0,1.427" transform="translate(-23.719 -100.835)" fill="#fff"/>
    <path id="Trazado_889286" data-name="Trazado 889286" d="M90.3,159.841H33.9a.713.713,0,1,1,0-1.427H90.3a.713.713,0,1,1,0,1.427" transform="translate(-23.719 -113.205)" fill="#fff"/>
    <path id="Trazado_889287" data-name="Trazado 889287" d="M90.3,177.011H33.9a.713.713,0,1,1,0-1.427H90.3a.713.713,0,0,1,0,1.427" transform="translate(-23.719 -125.475)" fill="#fff"/>
  </g>
</svg>
