<svg id="Grupo_1102403" data-name="Grupo 1102403" xmlns="http://www.w3.org/2000/svg" xmlns:xlink="http://www.w3.org/1999/xlink" width="120" height="65.898" viewBox="0 0 120 65.898">
  <defs>
    <clipPath id="clip-path">
      <rect id="Rectángulo_404664" data-name="Rectángulo 404664" width="120" height="65.898" fill="#fff"/>
    </clipPath>
  </defs>
  <g id="Grupo_1102402" data-name="Grupo 1102402" clip-path="url(#clip-path)">
    <path id="Trazado_889241" data-name="Trazado 889241" d="M96.667,180.968H7.292A7.3,7.3,0,0,1,0,173.676V170.9a.809.809,0,0,1,.809-.809H103.15a.809.809,0,0,1,.809.809v2.778a7.3,7.3,0,0,1-7.292,7.292m-95.05-9.262v1.97a5.681,5.681,0,0,0,5.674,5.675H96.667a5.681,5.681,0,0,0,5.674-5.675v-1.97Z" transform="translate(0 -115.07)" fill="#fff"/>
    <path id="Trazado_889242" data-name="Trazado 889242" d="M288.559,160.239a.809.809,0,0,1-.809-.809v-5.483a.809.809,0,1,1,1.617,0v5.483a.809.809,0,0,1-.809.809" transform="translate(-194.67 -103.602)" fill="#fff"/>
    <path id="Trazado_889243" data-name="Trazado 889243" d="M253.208,10.612A.809.809,0,0,1,252.4,9.8V8.218a6.608,6.608,0,0,0-6.6-6.6h-9.493a.809.809,0,1,1,0-1.617H245.8a8.227,8.227,0,0,1,8.218,8.218V9.8a.809.809,0,0,1-.809.809" transform="translate(-159.32)" fill="#fff"/>
    <path id="Trazado_889244" data-name="Trazado 889244" d="M29.441,56.637a.809.809,0,0,1-.809-.809V8.218A8.227,8.227,0,0,1,36.85,0H96.261a.809.809,0,1,1,0,1.617H36.85a6.608,6.608,0,0,0-6.6,6.6v47.61a.809.809,0,0,1-.809.809" transform="translate(-19.37 0)" fill="#fff"/>
    <path id="Trazado_889245" data-name="Trazado 889245" d="M155.033,186.6h-7.269a.809.809,0,1,1,0-1.617h7.269a.809.809,0,0,1,0,1.617" transform="translate(-99.419 -125.146)" fill="#fff"/>
    <path id="Trazado_889246" data-name="Trazado 889246" d="M256.1,68.853h-3.882a.809.809,0,1,1,0-1.617H256.1a.809.809,0,1,1,0,1.617m-7.763,0h-3.882a.809.809,0,0,1,0-1.617h3.882a.809.809,0,1,1,0,1.617m-7.763,0H236.69a.809.809,0,1,1,0-1.617h3.882a.809.809,0,0,1,0,1.617m-7.138-1.713a.808.808,0,0,1-.7-.406,4.185,4.185,0,0,1-.554-2.081V62.529a.809.809,0,1,1,1.617,0v2.125a2.564,2.564,0,0,0,.34,1.275.809.809,0,0,1-.7,1.211m-.448-7.684a.809.809,0,0,1-.809-.809V54.766a.809.809,0,1,1,1.617,0v3.882a.809.809,0,0,1-.809.809m35.283-1.911a.809.809,0,0,1-.809-.809V53.4a.809.809,0,0,1,1.617,0v3.336a.809.809,0,0,1-.809.809m-35.283-5.852a.809.809,0,0,1-.809-.809V47a.809.809,0,1,1,1.617,0v3.882a.809.809,0,0,1-.809.809m35.283-1.365a.809.809,0,0,1-.809-.809V45.637a.809.809,0,0,1,1.617,0v3.882a.809.809,0,0,1-.809.809m-35.283-6.4a.809.809,0,0,1-.809-.809V39.239a.809.809,0,1,1,1.617,0V43.12a.809.809,0,0,1-.809.809m35.283-1.365a.809.809,0,0,1-.809-.809V37.874a.809.809,0,1,1,1.617,0v3.882a.809.809,0,0,1-.809.809m-34.987-6.356a.81.81,0,0,1-.737-1.141,4.215,4.215,0,0,1,3.81-2.485h0a.809.809,0,0,1,0,1.617,2.6,2.6,0,0,0-2.343,1.531.809.809,0,0,1-.738.477m33.9-1.1a.806.806,0,0,1-.55-.216,2.571,2.571,0,0,0-1.753-.692h-1.347a.809.809,0,1,1,0-1.617h1.347a4.182,4.182,0,0,1,2.853,1.123.809.809,0,0,1-.55,1.4m-7.531-.907h-3.882a.809.809,0,1,1,0-1.617h3.882a.809.809,0,1,1,0,1.617m-7.763,0H248a.809.809,0,1,1,0-1.617h3.882a.809.809,0,1,1,0,1.617m-7.763,0h-3.882a.809.809,0,1,1,0-1.617h3.882a.809.809,0,1,1,0,1.617" transform="translate(-157.074 -22.043)" fill="#fff"/>
    <path id="Trazado_889247" data-name="Trazado 889247" d="M312.409,116.827a.79.79,0,0,1-.128-.01.809.809,0,0,1-.641-.55l-6.45-20a.809.809,0,0,1,1.032-1.013L325.9,102.03a.809.809,0,0,1,.2,1.427l-5.275,3.706,5.059,5.059a.809.809,0,0,1,0,1.143l-2.9,2.9a.809.809,0,0,1-1.143,0l-4.973-4.973-3.8,5.2a.81.81,0,0,1-.653.332m4.358-7.581a.811.811,0,0,1,.572.237l5.069,5.069,1.76-1.759L319,107.625a.81.81,0,0,1,.107-1.233l4.767-3.348-16.648-5.731,5.467,16.948,3.421-4.683a.811.811,0,0,1,.591-.329l.062,0" transform="translate(-206.442 -64.414)" fill="#fff"/>
    <path id="Trazado_889248" data-name="Trazado 889248" d="M88.26,40.454H74.333a.809.809,0,0,1-.809-.809V25.718a.809.809,0,0,1,.809-.809H88.26a.809.809,0,0,1,.809.809V39.645a.809.809,0,0,1-.809.809M75.141,38.837h12.31V26.526H75.141Z" transform="translate(-49.741 -16.852)" fill="#fff"/>
    <path id="Trazado_889249" data-name="Trazado 889249" d="M74.333,42.6a.809.809,0,0,1-.572-1.381l12.9-12.9a.809.809,0,0,1,1.143,1.143l-12.9,12.9a.807.807,0,0,1-.572.237" transform="translate(-49.741 -18.993)" fill="#fff"/>
    <path id="Trazado_889250" data-name="Trazado 889250" d="M88.422,88.054H74.333a.809.809,0,0,1,0-1.617H88.422a.809.809,0,1,1,0,1.617" transform="translate(-49.741 -58.477)" fill="#fff"/>
    <path id="Trazado_889251" data-name="Trazado 889251" d="M88.124,111.165H74.333a.809.809,0,1,1,0-1.617H88.124a.809.809,0,1,1,0,1.617" transform="translate(-49.741 -74.112)" fill="#fff"/>
    <path id="Trazado_889252" data-name="Trazado 889252" d="M88.124,123.165H74.333a.809.809,0,1,1,0-1.617H88.124a.809.809,0,1,1,0,1.617" transform="translate(-49.741 -82.23)" fill="#fff"/>
    <path id="Trazado_889253" data-name="Trazado 889253" d="M88.124,135.054H74.333a.809.809,0,0,1,0-1.617H88.124a.809.809,0,0,1,0,1.617" transform="translate(-49.741 -90.274)" fill="#fff"/>
    <path id="Trazado_889254" data-name="Trazado 889254" d="M84.062,147.054H74.334a.809.809,0,0,1,0-1.617h9.728a.809.809,0,0,1,0,1.617" transform="translate(-49.742 -98.392)" fill="#fff"/>
    <path id="Trazado_889255" data-name="Trazado 889255" d="M157.15,40.385H143.222a.809.809,0,0,1-.809-.809V25.649a.809.809,0,0,1,.809-.809H157.15a.809.809,0,0,1,.809.809V39.576a.809.809,0,0,1-.809.809M144.03,38.767h12.311V26.457H144.03Z" transform="translate(-96.346 -16.805)" fill="#fff"/>
    <path id="Trazado_889256" data-name="Trazado 889256" d="M143.222,42.526a.809.809,0,0,1-.572-1.381l12.9-12.9a.809.809,0,0,1,1.143,1.143l-12.9,12.9a.807.807,0,0,1-.572.237" transform="translate(-96.346 -18.946)" fill="#fff"/>
    <path id="Trazado_889257" data-name="Trazado 889257" d="M157.311,87.985H143.222a.809.809,0,0,1,0-1.617h14.089a.809.809,0,1,1,0,1.617" transform="translate(-96.346 -58.43)" fill="#fff"/>
    <path id="Trazado_889258" data-name="Trazado 889258" d="M157.013,111.1H143.222a.809.809,0,0,1,0-1.617h13.791a.809.809,0,0,1,0,1.617" transform="translate(-96.346 -74.065)" fill="#fff"/>
    <path id="Trazado_889259" data-name="Trazado 889259" d="M157.013,123.1H143.222a.809.809,0,1,1,0-1.617h13.791a.809.809,0,1,1,0,1.617" transform="translate(-96.346 -82.184)" fill="#fff"/>
    <path id="Trazado_889260" data-name="Trazado 889260" d="M157.013,134.985H143.222a.809.809,0,0,1,0-1.617h13.791a.809.809,0,0,1,0,1.617" transform="translate(-96.346 -90.227)" fill="#fff"/>
    <path id="Trazado_889261" data-name="Trazado 889261" d="M152.949,146.985h-9.728a.809.809,0,1,1,0-1.617h9.728a.809.809,0,1,1,0,1.617" transform="translate(-96.346 -98.345)" fill="#fff"/>
  </g>
</svg>
