<svg id="Grupo_1102409" data-name="Grupo 1102409" xmlns="http://www.w3.org/2000/svg" xmlns:xlink="http://www.w3.org/1999/xlink" width="77" height="73.15" viewBox="0 0 77 73.15">
  <defs>
    <clipPath id="clip-path">
      <rect id="Rectángulo_404667" data-name="Rectángulo 404667" width="77" height="73.151" fill="#fff"/>
    </clipPath>
  </defs>
  <g id="Grupo_1102408" data-name="Grupo 1102408" clip-path="url(#clip-path)">
    <path id="Trazado_889288" data-name="Trazado 889288" d="M88.469,104.642H62.729A5.252,5.252,0,0,1,57.483,99.4V63.021a5.252,5.252,0,0,1,5.246-5.247h37.2a5.252,5.252,0,0,1,5.247,5.247V89.062a.821.821,0,1,1-1.642,0V63.021a3.609,3.609,0,0,0-3.6-3.6h-37.2a3.609,3.609,0,0,0-3.6,3.6V99.4a3.609,3.609,0,0,0,3.6,3.6H88.469a.821.821,0,1,1,0,1.642" transform="translate(-38.609 -38.804)" fill="#fff"/>
    <path id="Trazado_889289" data-name="Trazado 889289" d="M18.126,46.868h-3.94a.821.821,0,1,1,0-1.642h3.94a.821.821,0,1,1,0,1.642m-7.88,0H6.306a.821.821,0,1,1,0-1.642h3.94a.821.821,0,1,1,0,1.642m-7.679-.909a.818.818,0,0,1-.5-.169A5.234,5.234,0,0,1,0,41.774a.821.821,0,1,1,1.641-.048,3.6,3.6,0,0,0,1.423,2.759.821.821,0,0,1-.5,1.473M.821,38.631A.821.821,0,0,1,0,37.81V33.87a.821.821,0,1,1,1.642,0v3.94a.821.821,0,0,1-.821.821m0-7.88A.821.821,0,0,1,0,29.93v-3.94a.821.821,0,1,1,1.642,0v3.94a.821.821,0,0,1-.821.821m0-7.88A.821.821,0,0,1,0,22.049v-3.94a.821.821,0,0,1,1.642,0v3.94a.821.821,0,0,1-.821.821m46.048-3.395a.821.821,0,0,1-.821-.821V16.149a.821.821,0,1,1,1.642,0v2.505a.821.821,0,0,1-.821.821M.821,14.99A.821.821,0,0,1,0,14.169v-3.94a.821.821,0,1,1,1.642,0v3.94a.821.821,0,0,1-.821.821m46.048-1.96a.821.821,0,0,1-.821-.821V8.269a.821.821,0,1,1,1.642,0v3.94a.821.821,0,0,1-.821.821M.821,7.11A.821.821,0,0,1,0,6.289V5.247A5.188,5.188,0,0,1,1.09,2.053a.821.821,0,0,1,1.3,1,3.558,3.558,0,0,0-.749,2.191V6.289a.821.821,0,0,1-.821.821M46.774,5.157a.822.822,0,0,1-.8-.651,3.655,3.655,0,0,0-1.89-2.467A.821.821,0,1,1,44.833.579a5.243,5.243,0,0,1,2.745,3.587.823.823,0,0,1-.8.991M5.134,1.643A.821.821,0,0,1,5.113,0L5.25,0H9.074a.821.821,0,0,1,0,1.642H5.134m35.462,0h-3.94a.821.821,0,1,1,0-1.642H40.6a.821.821,0,0,1,0,1.642m-7.88,0h-3.94a.821.821,0,0,1,0-1.642h3.94a.821.821,0,1,1,0,1.642m-7.88,0h-3.94a.821.821,0,1,1,0-1.642h3.94a.821.821,0,0,1,0,1.642m-7.88,0h-3.94a.821.821,0,1,1,0-1.642h3.94a.821.821,0,0,1,0,1.642" fill="#fff"/>
    <path id="Trazado_889290" data-name="Trazado 889290" d="M160.547,166.041a.838.838,0,0,1-.131-.011.82.82,0,0,1-.65-.559l-8.419-26.1a.821.821,0,0,1,1.048-1.028l25.678,8.84a.821.821,0,0,1,.2,1.448l-7.113,5,6.8,6.8a.821.821,0,0,1,0,1.161l-3.789,3.788a.845.845,0,0,1-1.161,0l-6.684-6.684L161.21,165.7a.821.821,0,0,1-.663.337m5.687-9.425a.822.822,0,0,1,.581.24l6.782,6.782,2.628-2.628-6.911-6.911a.821.821,0,0,1,.108-1.252l6.6-4.634-22.6-7.782,7.421,23,4.737-6.483a.823.823,0,0,1,.6-.334l.063,0" transform="translate(-101.626 -92.891)" fill="#fff"/>
  </g>
</svg>
