<svg xmlns="http://www.w3.org/2000/svg" xmlns:xlink="http://www.w3.org/1999/xlink" width="73" height="101" viewBox="0 0 73 101">
  <defs>
    <clipPath id="clip-path">
      <rect id="Rectángulo_404175" data-name="Rectángulo 404175" width="73" height="101" transform="translate(0)" fill="none"/>
    </clipPath>
  </defs>
  <g id="Grupo_1102338" data-name="Grupo 1102338" transform="translate(-0.047 -0.5)">
    <g id="Grupo_1102337" data-name="Grupo 1102337" transform="translate(0.047 0.5)" clip-path="url(#clip-path)">
      <path id="Trazado_888897" data-name="Trazado 888897" d="M261.717,81.583V89.5H200V81.583A1.587,1.587,0,0,1,201.581,80h58.553a1.587,1.587,0,0,1,1.582,1.583" transform="translate(-192.105 -77.037)" fill="#fc785e"/>
      <path id="Trazado_888898" data-name="Trazado 888898" d="M1563.165,160h-1.583a1.583,1.583,0,1,0,0,3.165h1.583a1.583,1.583,0,1,0,0-3.165" transform="translate(-1498.301 -153.872)" fill="#2d4356"/>
      <path id="Trazado_888899" data-name="Trazado 888899" d="M1363.165,160h-1.583a1.583,1.583,0,1,0,0,3.165h1.583a1.583,1.583,0,1,0,0-3.165" transform="translate(-1306.214 -153.872)" fill="#2d4356"/>
      <path id="Trazado_888900" data-name="Trazado 888900" d="M68.048,0H9.495A4.751,4.751,0,0,0,4.747,4.748V48.266A4.751,4.751,0,0,0,0,53.014v25.32a4.751,4.751,0,0,0,4.747,4.748V96.533a4.751,4.751,0,0,0,4.748,4.748H55.767a1.583,1.583,0,0,0,1.108-.451L72.32,85.772A1.586,1.586,0,0,0,72.8,84.64V4.748A4.751,4.751,0,0,0,68.048,0M4.747,79.916a1.587,1.587,0,0,1-1.583-1.583V53.014a1.587,1.587,0,0,1,1.583-1.583H52.223a1.587,1.587,0,0,1,1.583,1.583v25.32a1.587,1.587,0,0,1-1.583,1.583H4.747M57.761,95.544V89.15a2.853,2.853,0,0,1,2.793-2.9H67.3l-9.535,9.3M69.63,83.081H60.555A6.022,6.022,0,0,0,54.6,89.15v8.965H9.495a1.587,1.587,0,0,1-1.583-1.583V83.081h44.31a4.751,4.751,0,0,0,4.748-4.748V53.014a4.751,4.751,0,0,0-4.748-4.748H7.912V15.825H69.63V83.081m0-70.421H7.912V4.748A1.587,1.587,0,0,1,9.495,3.165H68.048A1.587,1.587,0,0,1,69.63,4.748V12.66" transform="translate(-0.019 -0.202)" fill="#2d4356"/>
      <path id="Trazado_888901" data-name="Trazado 888901" d="M1469.535,2180l-9.535,9.3V2182.9a2.853,2.853,0,0,1,2.793-2.9Z" transform="translate(-1402.258 -2093.957)" fill="#81d9e3"/>
      <path id="Trazado_888902" data-name="Trazado 888902" d="M130.64,1301.583v25.32a1.587,1.587,0,0,1-1.583,1.583H81.583A1.587,1.587,0,0,1,80,1326.9v-25.32A1.587,1.587,0,0,1,81.583,1300h47.475a1.587,1.587,0,0,1,1.583,1.583" transform="translate(-76.854 -1248.771)" fill="#81d9e3"/>
      <path id="Trazado_888903" data-name="Trazado 888903" d="M261.717,400v67.256h-9.076a6.022,6.022,0,0,0-5.958,6.069v8.965h-45.1A1.587,1.587,0,0,1,200,480.708V467.256h44.31a4.751,4.751,0,0,0,4.748-4.747v-25.32a4.751,4.751,0,0,0-4.748-4.747H200V400Z" transform="translate(-192.105 -384.377)" fill="#e1ebf4"/>
      <path id="Trazado_888904" data-name="Trazado 888904" d="M202.728,1860H161.583a1.583,1.583,0,0,0,0,3.165h41.145a1.583,1.583,0,0,0,0-3.165" transform="translate(-153.689 -1786.616)" fill="#2d4356"/>
      <path id="Trazado_888905" data-name="Trazado 888905" d="M202.728,1380H161.583a1.583,1.583,0,0,0,0,3.165h41.145a1.583,1.583,0,0,0,0-3.165" transform="translate(-153.689 -1325.606)" fill="#2d4356"/>
      <path id="Trazado_888906" data-name="Trazado 888906" d="M273.042,1544.571a1.582,1.582,0,0,0,2.238,0l2.238-2.238,2.238,2.238a1.582,1.582,0,1,0,2.238-2.238l-2.238-2.238,2.238-2.238a1.582,1.582,0,0,0-2.238-2.238l-2.238,2.238-2.238-2.238a1.582,1.582,0,0,0-2.238,2.238l2.238,2.238-2.238,2.238a1.582,1.582,0,0,0,0,2.238" transform="translate(-261.813 -1474.624)" fill="#2d4356"/>
      <path id="Trazado_888907" data-name="Trazado 888907" d="M608.5,1549.512a1.583,1.583,0,0,0,1.583-1.583v-6.33a1.582,1.582,0,0,0-2.419-1.343l-3.911,2.436-3.911-2.436a1.582,1.582,0,0,0-2.419,1.343v6.33a1.583,1.583,0,0,0,3.165,0v-3.48l2.328,1.45a1.58,1.58,0,0,0,1.674,0l2.328-1.45v3.48a1.583,1.583,0,0,0,1.582,1.583" transform="translate(-573.805 -1479.292)" fill="#2d4356"/>
      <path id="Trazado_888908" data-name="Trazado 888908" d="M999,1540a1.582,1.582,0,0,0-1.583,1.583v6.33A1.583,1.583,0,0,0,999,1549.5h3.561a1.583,1.583,0,0,0,0-3.165h-1.978v-4.748A1.583,1.583,0,0,0,999,1540" transform="translate(-957.98 -1479.276)" fill="#2d4356"/>
      <path id="Trazado_888909" data-name="Trazado 888909" d="M1321.583,483.165h11.078a1.582,1.582,0,0,0,0-3.165h-11.078a1.582,1.582,0,1,0,0,3.165" transform="translate(-1267.796 -461.212)" fill="#2d4356"/>
      <path id="Trazado_888910" data-name="Trazado 888910" d="M1121.583,643.165h18.99a1.583,1.583,0,0,0,0-3.165h-18.99a1.583,1.583,0,0,0,0,3.165" transform="translate(-1075.709 -614.882)" fill="#2d4356"/>
      <path id="Trazado_888911" data-name="Trazado 888911" d="M921.582,803.165h26.9a1.582,1.582,0,0,0,0-3.165h-26.9a1.582,1.582,0,0,0,0,3.165" transform="translate(-883.621 -768.552)" fill="#2d4356"/>
      <path id="Trazado_888912" data-name="Trazado 888912" d="M1140.573,960h-18.99a1.582,1.582,0,1,0,0,3.165h18.99a1.582,1.582,0,1,0,0-3.165" transform="translate(-1075.709 -922.222)" fill="#2d4356"/>
      <path id="Trazado_888913" data-name="Trazado 888913" d="M260.134,80H201.581A1.587,1.587,0,0,0,200,81.583v1.582a1.587,1.587,0,0,1,1.583-1.582h58.553a1.587,1.587,0,0,1,1.582,1.582V81.583A1.587,1.587,0,0,0,260.134,80" transform="translate(-192.105 -77.037)" fill="#fb9683"/>
      <rect id="Rectángulo_404173" data-name="Rectángulo 404173" width="62" height="2" transform="translate(8 11)" fill="#d0614e"/>
      <rect id="Rectángulo_404174" data-name="Rectángulo 404174" width="62" height="1" transform="translate(8 16)" fill="#f0f5fa"/>
      <path id="Trazado_888914" data-name="Trazado 888914" d="M129.058,1300H81.583A1.587,1.587,0,0,0,80,1301.583v1.583a1.587,1.587,0,0,1,1.583-1.583h47.475a1.587,1.587,0,0,1,1.583,1.583v-1.583a1.587,1.587,0,0,0-1.583-1.583" transform="translate(-76.854 -1248.771)" fill="#aae7ed"/>
      <path id="Trazado_888915" data-name="Trazado 888915" d="M130.64,1940a1.587,1.587,0,0,1-1.583,1.583H81.583A1.587,1.587,0,0,1,80,1940v1.583a1.587,1.587,0,0,0,1.583,1.583h47.475a1.587,1.587,0,0,0,1.583-1.583Z" transform="translate(-76.854 -1863.451)" fill="#5fabb1"/>
      <path id="Trazado_888916" data-name="Trazado 888916" d="M1661.6,2180l-1.623,1.583h0Z" transform="translate(-1594.326 -2093.957)" fill="#788d98"/>
      <path id="Trazado_888917" data-name="Trazado 888917" d="M1469.535,2180h-6.741a2.853,2.853,0,0,0-2.793,2.9v1.583a2.853,2.853,0,0,1,2.793-2.9h5.118Z" transform="translate(-1402.258 -2093.957)" fill="#aae7ed"/>
      <path id="Trazado_888918" data-name="Trazado 888918" d="M200,2400v1.583a1.587,1.587,0,0,0,1.583,1.583h45.1v-1.583h-45.1A1.587,1.587,0,0,1,200,2400" transform="translate(-192.105 -2305.253)" fill="#c0c8cf"/>
    </g>
  </g>
</svg>
