<svg xmlns="http://www.w3.org/2000/svg" xmlns:xlink="http://www.w3.org/1999/xlink" width="68" height="84" viewBox="0 0 68 84">
  <defs>
    <clipPath id="clip-path">
      <rect id="Rectángulo_404719" data-name="Rectángulo 404719" width="68" height="84" transform="translate(0 -0.427)" fill="none"/>
    </clipPath>
  </defs>
  <g id="Grupo_1103636" data-name="Grupo 1103636" transform="translate(0 0.738)">
    <g id="Grupo_1103635" data-name="Grupo 1103635" transform="translate(0 -0.311)" clip-path="url(#clip-path)">
      <path id="Trazado_889304" data-name="Trazado 889304" d="M93.5,1428.978H53.8V1406H91.3v17.863a6.983,6.983,0,0,0,1.407,4.188c.085.118.17.229.268.34s.177.209.268.314.177.183.262.275" transform="translate(-52.041 -1359.871)" fill="#81d9e3"/>
      <path id="Trazado_889305" data-name="Trazado 889305" d="M277.9,72.664a2.6,2.6,0,0,1,1.241.324c2.728-3.069,8.852-4.25,14.679-4.25a34.535,34.535,0,0,1,6.245.521V47.8L284.3,31.829H249.553a4.288,4.288,0,0,0-3.072,4.069V72.664Z" transform="translate(-238.417 -30.659)" fill="#e1ebf4"/>
      <path id="Trazado_889306" data-name="Trazado 889306" d="M293.815,2195.688a26.764,26.764,0,0,1-9.357-1.5,2.617,2.617,0,0,1-2.364,1.5H246.48v7.363l2.488,1.793h49.577l1.515-1.318v-8.495a27.844,27.844,0,0,1-6.245.657" transform="translate(-238.416 -2122.276)" fill="#e1ebf4"/>
      <path id="Trazado_889307" data-name="Trazado 889307" d="M934.845,1540a1.309,1.309,0,0,0-1.309,1.308v9.966a1.309,1.309,0,0,0,1.309,1.309h5.446a1.309,1.309,0,0,0,0-2.617h-4.137v-8.658a1.309,1.309,0,0,0-1.309-1.308" transform="translate(-902.995 -1489.488)" fill="#2d4356"/>
      <path id="Trazado_889308" data-name="Trazado 889308" d="M205.153,1550H201.66a1.309,1.309,0,0,0,0,2.617h3.493a3.854,3.854,0,0,0,4.034-3.842,3.781,3.781,0,0,0-4.034-3.779h-1.125a1.234,1.234,0,0,1-1.41-1.219c0-.8.7-1.166,1.41-1.166h3.494a1.309,1.309,0,1,0,0-2.617h-3.494a4.014,4.014,0,0,0-2.981,1.167,3.721,3.721,0,0,0-1.046,2.616,3.848,3.848,0,0,0,4.027,3.836h1.125c1.314,0,1.416.889,1.416,1.161a1.278,1.278,0,0,1-1.416,1.225" transform="translate(-193.458 -1489.488)" fill="#2d4356"/>
      <path id="Trazado_889309" data-name="Trazado 889309" d="M569.768,1548.455v-4.287a4.056,4.056,0,0,0-3.923-4.168h-1.307a4.055,4.055,0,0,0-3.923,4.168v4.287a4.055,4.055,0,0,0,3.923,4.167h.611l1.693,1.456a1.309,1.309,0,0,0,1.707-1.985l-.358-.307a4.249,4.249,0,0,0,1.576-3.332m-6.535,0v-4.287a1.446,1.446,0,0,1,1.305-1.551h1.307a1.446,1.446,0,0,1,1.305,1.551v4.287a1.445,1.445,0,0,1-1.305,1.55h-1.307a1.445,1.445,0,0,1-1.305-1.55" transform="translate(-542.275 -1489.489)" fill="#2d4356"/>
      <path id="Trazado_889310" data-name="Trazado 889310" d="M501.309,682.616h19.629a1.309,1.309,0,1,0,0-2.617H501.309a1.309,1.309,0,1,0,0,2.617" transform="translate(-483.642 -657.623)" fill="#2d4356"/>
      <path id="Trazado_889311" data-name="Trazado 889311" d="M501.309,882.616h34.024a1.309,1.309,0,1,0,0-2.617H501.309a1.309,1.309,0,1,0,0,2.617" transform="translate(-483.642 -851.08)" fill="#2d4356"/>
      <path id="Trazado_889312" data-name="Trazado 889312" d="M40.663,1383.555H3.887a1.378,1.378,0,0,1-1.27-1.463V1364.08a1.378,1.378,0,0,1,1.27-1.463H39.259v-1.112a3.985,3.985,0,0,1,.041-.537,5.663,5.663,0,0,1,.179-.969H3.887A3.991,3.991,0,0,0,0,1364.08v18.013a3.991,3.991,0,0,0,3.887,4.08h39.79a10.008,10.008,0,0,1-3.013-2.617" transform="translate(0 -1315.378)" fill="#2d4356"/>
      <path id="Trazado_889313" data-name="Trazado 889313" d="M255.89,16.912,240.219.417A2.978,2.978,0,0,0,238.655,0H203.924A3.913,3.913,0,0,0,200,3.885v37.99h2.617V3.885a1.292,1.292,0,0,1,1.309-1.269h34.024V15.767a3.8,3.8,0,0,0,3.73,3.861h11.974v18.6a23.62,23.62,0,0,1,2.617.465V17.828a1.3,1.3,0,0,0-.38-.916m-14.212.1a1.183,1.183,0,0,1-1.112-1.243V5.108l11.4,11.9H241.678" transform="translate(-193.455 0.131)" fill="#2d4356"/>
      <path id="Trazado_889314" data-name="Trazado 889314" d="M1451.406,168.1h-10.292a1.182,1.182,0,0,1-1.112-1.243V156.2Z" transform="translate(-1392.891 -150.959)" fill="#81d9e3"/>
      <path id="Trazado_889315" data-name="Trazado 889315" d="M253.652,2218.675a1.291,1.291,0,0,1-1.308,1.271H203.923a1.291,1.291,0,0,1-1.308-1.271v-6.581H200v6.581a3.912,3.912,0,0,0,3.925,3.888h48.421a3.912,3.912,0,0,0,3.925-3.888v-7.524a21.118,21.118,0,0,1-2.617.588Z" transform="translate(-193.455 -2138.682)" fill="#2d4356"/>
      <path id="Trazado_889316" data-name="Trazado 889316" d="M1293.525,1240c-6.733,0-13.525,1.682-13.525,5.431v17.863c0,4,5.562,6.805,13.525,6.805,7.682,0,12.648-2.67,12.648-6.805v-17.863c0-3.35-4.848-5.431-12.648-5.431m10.031,23.294c0,2.081-3.448,4.188-10.031,4.188-6.523,0-10.907-2.166-10.907-4.188v-2.2c2.375,1.616,6.223,2.591,10.907,2.591,4.351,0,7.832-.857,10.031-2.356v1.963m0-6.412c0,2.081-3.448,4.188-10.031,4.188-6.523,0-10.907-2.166-10.907-4.188v-2.2c2.375,1.616,6.223,2.591,10.907,2.591,4.351,0,7.832-.857,10.031-2.355v1.963m0-6.412c0,2.081-3.448,4.188-10.031,4.188-6.523,0-10.907-2.166-10.907-4.188v-1.61c2.591,1.361,6.759,2,10.907,2,4.391,0,7.852-.661,10.031-1.839v1.446m-10.031-2.225c-7.662,0-10.907-2.015-10.907-2.814s3.245-2.813,10.907-2.813c7.086,0,10.031,1.832,10.031,2.813s-2.944,2.814-10.031,2.814" transform="translate(-1238.124 -1199.301)" fill="#2d4356"/>
      <path id="Trazado_889317" data-name="Trazado 889317" d="M1380.937,1885.035V1887c0,2.081-3.448,4.188-10.031,4.188-6.523,0-10.907-2.166-10.907-4.188v-2.2c2.375,1.616,6.222,2.591,10.907,2.591,4.351,0,7.832-.857,10.031-2.356" transform="translate(-1315.506 -1823.008)" fill="#ffdb80"/>
      <path id="Trazado_889318" data-name="Trazado 889318" d="M1380.937,1689.034V1691c0,2.081-3.448,4.188-10.031,4.188-6.523,0-10.907-2.166-10.907-4.188v-2.2c2.375,1.616,6.222,2.591,10.907,2.591,4.351,0,7.832-.857,10.031-2.355" transform="translate(-1315.506 -1633.42)" fill="#ffdb80"/>
      <path id="Trazado_889319" data-name="Trazado 889319" d="M1380.937,1510.962v1.446c0,2.081-3.448,4.188-10.031,4.188-6.523,0-10.907-2.166-10.907-4.188v-1.61c2.591,1.361,6.759,2,10.907,2,4.391,0,7.852-.661,10.031-1.839" transform="translate(-1315.506 -1461.242)" fill="#ffdb80"/>
      <path id="Trazado_889320" data-name="Trazado 889320" d="M1380.937,1322.813c0,.981-2.944,2.813-10.031,2.813-7.662,0-10.907-2.015-10.907-2.813s3.245-2.813,10.907-2.813c7.086,0,10.031,1.832,10.031,2.813" transform="translate(-1315.506 -1276.686)" fill="#ffdb80"/>
      <path id="Trazado_889321" data-name="Trazado 889321" d="M80,1995.2v1.309a1.645,1.645,0,0,0,.14.669,1.265,1.265,0,0,0,1.13.8h36.779a6.834,6.834,0,0,1-.779-1.309h-36A1.378,1.378,0,0,1,80,1995.2" transform="translate(-77.383 -1929.794)" fill="#5fabb1"/>
      <path id="Trazado_889322" data-name="Trazado 889322" d="M84.264,2055.65a1.263,1.263,0,0,0,1.13.8,1.265,1.265,0,0,1-1.13-.8" transform="translate(-81.507 -1988.269)" fill="#24434e"/>
      <path id="Trazado_889323" data-name="Trazado 889323" d="M1440,442v1.309a1.182,1.182,0,0,0,1.112,1.243h10.292l-1.256-1.309h-9.036A1.183,1.183,0,0,1,1440,442" transform="translate(-1392.891 -427.409)" fill="#5fabb1"/>
      <path id="Trazado_889324" data-name="Trazado 889324" d="M331.039,2401.2a1.292,1.292,0,0,1-1.309,1.27H281.311A1.292,1.292,0,0,1,280,2401.2v1.307a1.234,1.234,0,0,0,.161.611h0v0a1.317,1.317,0,0,0,1.145.656H329.73a1.319,1.319,0,0,0,1.133-.635,1.237,1.237,0,0,0,.176-.636Z" transform="translate(-270.842 -2322.513)" fill="#c0c8cf"/>
      <path id="Trazado_889325" data-name="Trazado 889325" d="M280.164,2403.118v0m-.162-.613v0a1.23,1.23,0,0,0,.161.61,1.234,1.234,0,0,1-.161-.611m51.037-1.307h0v1.307a1.237,1.237,0,0,1-.176.636,1.232,1.232,0,0,0,.176-.634V2401.2" transform="translate(-270.842 -2322.513)" fill="#667480"/>
      <path id="Trazado_889326" data-name="Trazado 889326" d="M116.642,1440H81.27a1.262,1.262,0,0,0-1.123.78,1.643,1.643,0,0,0-.147.686v1.309a1.378,1.378,0,0,1,1.269-1.466h35.372Z" transform="translate(-77.383 -1392.76)" fill="#aae7ed"/>
      <path id="Trazado_889327" data-name="Trazado 889327" d="M120.989,1440H85.616a1.26,1.26,0,0,0-1.122.78,1.262,1.262,0,0,1,1.123-.78Z" transform="translate(-81.73 -1392.76)" fill="#788d98"/>
      <path id="Trazado_889328" data-name="Trazado 889328" d="M315.335,80H281.311A1.292,1.292,0,0,0,280,81.266v1.309a1.292,1.292,0,0,1,1.309-1.269h34.024Z" transform="translate(-270.842 -77.251)" fill="#f0f5fa"/>
      <path id="Trazado_889329" data-name="Trazado 889329" d="M1703.413,1959.079c-.246,2-3.678,3.956-10.016,3.956h0c6.338,0,9.771-1.953,10.016-3.956" transform="translate(-1637.996 -1894.857)" fill="#676757"/>
      <path id="Trazado_889330" data-name="Trazado 889330" d="M1380.937,1912c0,2.081-3.448,4.188-10.031,4.188-6.524,0-10.907-2.166-10.907-4.187v1.309c0,2.022,4.384,4.188,10.907,4.188,6.338,0,9.77-1.953,10.016-3.956a1.888,1.888,0,0,0,.014-.232Z" transform="translate(-1315.506 -1849.318)" fill="#dabb6e"/>
      <path id="Trazado_889331" data-name="Trazado 889331" d="M1703.413,1763.079c-.246,2-3.678,3.956-10.016,3.956h0c6.338,0,9.771-1.953,10.016-3.956" transform="translate(-1637.996 -1705.27)" fill="#676757"/>
      <path id="Trazado_889332" data-name="Trazado 889332" d="M1380.937,1716c0,2.081-3.448,4.188-10.031,4.188-6.524,0-10.907-2.166-10.907-4.188v1.308c0,2.022,4.384,4.188,10.907,4.188,6.338,0,9.77-1.953,10.016-3.956a1.891,1.891,0,0,0,.014-.232Z" transform="translate(-1315.506 -1659.73)" fill="#dabb6e"/>
      <path id="Trazado_889333" data-name="Trazado 889333" d="M1703.413,1567.079c-.246,2-3.678,3.956-10.016,3.956h0c6.338,0,9.771-1.953,10.016-3.956" transform="translate(-1637.996 -1515.682)" fill="#676757"/>
      <path id="Trazado_889334" data-name="Trazado 889334" d="M1380.937,1520c0,2.081-3.448,4.188-10.031,4.188-6.524,0-10.907-2.166-10.907-4.188v1.309c0,2.022,4.384,4.188,10.907,4.188,6.338,0,9.77-1.953,10.016-3.956a1.89,1.89,0,0,0,.014-.232Z" transform="translate(-1315.506 -1470.141)" fill="#dabb6e"/>
      <path id="Trazado_889335" data-name="Trazado 889335" d="M1360.072,1323.044a1.036,1.036,0,0,0,.1.148,1.053,1.053,0,0,1-.1-.148m20.864-.2h0m0-.005h0m0-.008a.012.012,0,0,0,0,0,.012.012,0,0,1,0,0m-20.937,0h0m20.938,0v0m-20.938,0h0m20.938,0v0m-20.938,0v0m0-.006v0m20.938,0v0M1370.906,1320h0c7.086,0,10.031,1.832,10.031,2.813,0-.981-2.944-2.813-10.031-2.813" transform="translate(-1315.506 -1276.686)" fill="#939894"/>
      <path id="Trazado_889336" data-name="Trazado 889336" d="M1370.906,1320c-6.54,0-9.862,1.468-10.695,2.394a.682.682,0,0,0-.213.419v.011h0v0h0a.5.5,0,0,0,.072.215,1.053,1.053,0,0,0,.1.148,1.9,1.9,0,0,0,.293.276c1.145-.923,4.436-2.159,10.436-2.159,5.7,0,8.715,1.184,9.677,2.159a1.017,1.017,0,0,0,.352-.623h0v0h0v-.006a.012.012,0,0,1,0,0v-.005a.013.013,0,0,0,0,0v-.01c0-.981-2.944-2.813-10.031-2.813" transform="translate(-1315.506 -1276.686)" fill="#fce4a9"/>
    </g>
  </g>
</svg>
