<svg id="Grupo_1103708" data-name="Grupo 1103708" xmlns="http://www.w3.org/2000/svg" xmlns:xlink="http://www.w3.org/1999/xlink" width="198.488" height="181.936" viewBox="0 0 198.488 181.936">
  <defs>
    <clipPath id="clip-path">
      <rect id="Rect치ngulo_404732" data-name="Rect치ngulo 404732" width="198.488" height="181.936" fill="none"/>
    </clipPath>
  </defs>
  <g id="Grupo_1103707" data-name="Grupo 1103707" transform="translate(0 0)" clip-path="url(#clip-path)">
    <path id="Trazado_889344" data-name="Trazado 889344" d="M49.944,3.576C35.461-3.777,21.2,3.353,21.2,15.832a104.153,104.153,0,0,0,2.943,23.621s40.283-28.523,25.8-35.877" transform="translate(58.991 1.685)"/>
    <path id="Trazado_889345" data-name="Trazado 889345" d="M77.63,36.2c-.185,0-1.07.03-1.07.03l.019-.507c.011-.238.843-23.708-10.954-30.32a19.726,19.726,0,0,0-9.543-2.092c-12.569,0-31.107,8.461-31.538,21.715-.053,1.6.026,3.143.1,4.634.208,3.945.4,7.671-1.793,11.937-2.277,4.429-2.674,18.625,3.506,28.535A19.855,19.855,0,0,0,44.2,79.973h.42l.053.409c.019.132,1.691,13.307,1.108,20.1l-.011.148-.095.113c-.034.038-3.268,3.915-2.084,6.971.73,1.88,3.007,3.113,6.763,3.661a38.156,38.156,0,0,0,5.435.393c15.637,0,26.25-10.024,27.7-11.472A251.374,251.374,0,0,1,78.84,59.336l-.011-.3L79.1,58.9c.072-.038,7.58-3.862,8.291-12.584a9.166,9.166,0,0,0-2.22-7.243A10.014,10.014,0,0,0,77.63,36.2" transform="translate(59.329 9.221)" fill="#fff"/>
    <path id="Trazado_889346" data-name="Trazado 889346" d="M56.063,112.421a38.311,38.311,0,0,1-5.488-.4c-3.9-.571-6.279-1.884-7.062-3.9-1.278-3.3,2.114-7.315,2.148-7.353l.019-.042c.582-6.79-1.089-19.888-1.1-20.017l-.011-.083h-.091c-7.905,0-14.022-3.37-18.163-10.016-6.256-10.02-5.836-24.412-3.525-28.906,2.148-4.176,1.959-7.852,1.755-11.745-.076-1.418-.159-3.018-.106-4.668.443-13.481,19.2-22.082,31.916-22.082a20.127,20.127,0,0,1,9.728,2.141C78.2,12.148,77.234,35.785,77.226,36.023l0,.095c.265-.008.575-.015.677-.015a10.391,10.391,0,0,1,7.826,2.992,9.57,9.57,0,0,1,2.319,7.531c-.722,8.9-8.424,12.853-8.5,12.894l-.057.026V59.6a252.324,252.324,0,0,0,4.649,40.888.374.374,0,0,1-.106.348c-1.184,1.184-12.07,11.582-27.967,11.582M56.351,3.97c-12.422,0-30.736,8.318-31.16,21.352-.053,1.615.034,3.2.1,4.6.212,4,.409,7.777-1.834,12.13s-2.621,18.364,3.495,28.16a19.487,19.487,0,0,0,17.52,9.66H44.9a.382.382,0,0,1,.374.329l.053.412c.015.117,1.695,13.348,1.108,20.176l-.011.14a.4.4,0,0,1-.087.219l-.1.113c-.03.034-3.121,3.745-2.02,6.589.681,1.744,2.856,2.9,6.468,3.423a37.915,37.915,0,0,0,5.379.39c15.077,0,25.562-9.536,27.29-11.219a254.51,254.51,0,0,1-4.618-40.816l-.011-.3a.381.381,0,0,1,.212-.356l.272-.136c.072-.034,7.395-3.813,8.083-12.274a8.819,8.819,0,0,0-2.122-6.952,9.634,9.634,0,0,0-7.27-2.754c-.182,0-1.055.03-1.059.03h-.011a.4.4,0,0,1-.269-.11.376.376,0,0,1-.11-.28l.019-.511c.011-.238.756-23.519-10.757-29.972A19.371,19.371,0,0,0,56.351,3.97" transform="translate(59.06 8.943)" fill="#000100"/>
    <path id="Trazado_889347" data-name="Trazado 889347" d="M27.958,9.433a.451.451,0,0,0-.386.507.44.44,0,0,0,.514.382,16.575,16.575,0,0,1,11.979,3.915.46.46,0,0,0,.3.11.441.441,0,0,0,.344-.155.446.446,0,0,0-.042-.635A17.21,17.21,0,0,0,27.958,9.433" transform="translate(76.706 26.035)"/>
    <path id="Trazado_889348" data-name="Trazado 889348" d="M33.134,10.064A21.165,21.165,0,0,1,23.057,12.95h-.049a.451.451,0,0,0-.454.446.482.482,0,0,0,.5.454,21.677,21.677,0,0,0,10.572-3.034.443.443,0,0,0,.136-.617.465.465,0,0,0-.632-.136" transform="translate(62.755 27.81)"/>
    <path id="Trazado_889349" data-name="Trazado 889349" d="M26.788,15.276A3.339,3.339,0,0,0,24.336,17a.447.447,0,0,0,.189.605.456.456,0,0,0,.613-.189,2.489,2.489,0,0,1,1.717-1.252c.908-.061,2,.715,3.105,2.239a.452.452,0,0,0,.367.185.46.46,0,0,0,.269-.083.445.445,0,0,0,.106-.624c-1.32-1.823-2.648-2.7-3.915-2.61" transform="translate(67.57 42.486)"/>
    <path id="Trazado_889350" data-name="Trazado 889350" d="M29.425,12.272a.7.7,0,0,0-.083.1,1.926,1.926,0,0,0,.885,2.595,1.988,1.988,0,0,0,2.727-.511,1.811,1.811,0,0,0-.374-2.186Z" transform="translate(81.019 34.146)"/>
    <path id="Trazado_889351" data-name="Trazado 889351" d="M23.339,12.272a.674.674,0,0,0-.079.1,1.931,1.931,0,0,0,.881,2.595,2,2,0,0,0,2.735-.511,1.822,1.822,0,0,0-.378-2.186Z" transform="translate(64.1 34.146)"/>
    <path id="Trazado_889352" data-name="Trazado 889352" d="M36.858,17.468c-.057.061-5.3,6.022-9.422,2.954a.46.46,0,0,0-.635.091.444.444,0,0,0,.087.628A5.178,5.178,0,0,0,30.027,22.2c3.877,0,7.478-4.1,7.523-4.149a.446.446,0,0,0-.053-.632.457.457,0,0,0-.639.049" transform="translate(74.312 48.169)"/>
    <path id="Trazado_889353" data-name="Trazado 889353" d="M57.455,19.527C49.326,34.759,27.838,35.542,27.623,35.55a.448.448,0,1,0,.015.9h.011c.223-.008,22.233-.8,30.615-16.5a.453.453,0,0,0-.193-.605.463.463,0,0,0-.617.189" transform="translate(75.627 53.667)"/>
    <path id="Trazado_889354" data-name="Trazado 889354" d="M40.779,13.608a3.965,3.965,0,0,0-4.724.034l.545.719a3.034,3.034,0,0,1,3.665-.011,6.645,6.645,0,0,1,2.209,7.27,4.774,4.774,0,0,1-2.3,3.151,5.5,5.5,0,0,1-3.866.2l-.3.847a6.9,6.9,0,0,0,2.08.318,5.5,5.5,0,0,0,2.508-.567,5.632,5.632,0,0,0,2.757-3.707,7.551,7.551,0,0,0-2.572-8.253" transform="translate(100.185 35.741)"/>
    <path id="Trazado_889355" data-name="Trazado 889355" d="M40.012,13.562c.136,1.577-.163,2.686-.878,3.306a3.13,3.13,0,0,1-2.455.514l-.2.874a4.294,4.294,0,0,0,.874.083,3.628,3.628,0,0,0,2.379-.794c.953-.817,1.35-2.182,1.191-4.059Z" transform="translate(101.49 37.524)"/>
    <path id="Trazado_889356" data-name="Trazado 889356" d="M59.006,7.925a17.454,17.454,0,0,0-13-7.8C37.348-.559,31.746,1.389,28.353,10.07S31.667,26.4,42.292,26.4s11.4,12.108,11.4,16.779c0,5.473,2.534,2.3,5.81,2.909,1,.189,3.922-1.316,8.337,3.121,2.981,3,1.29,8.476,1,9.411-1.2,3.862-3.869,7.936-7.731,9.067-1.4,1.207-1.381,7.939,1.29,10.568a77.7,77.7,0,0,0,13.56-9.346c2.379-2.164,14.332-18.25,11.249-35.676-3.9-21.991-12.127-25.3-28.2-25.3" transform="translate(76.432 -0.001)"/>
    <path id="Trazado_889357" data-name="Trazado 889357" d="M116.057,34.49h-3.336V29.206c0-2.943-3.775-6.1-6.706-5.519-4.327,3.136-34.746,2.8-37.28.189a5.369,5.369,0,0,0-5.409,5.329V34.49h-.961C40.525,34.49,22,50.282,18.874,71.566l-6.5,44.277h151.3l-3.858-41.978c-2.042-22.3-21.019-39.375-43.759-39.375" transform="translate(34.436 65.715)" fill="#8722e2"/>
    <path id="Trazado_889358" data-name="Trazado 889358" d="M163.953,116.5H12.655a.372.372,0,0,1-.284-.129.365.365,0,0,1-.091-.306l6.5-44.277c3.128-21.318,21.984-37.4,43.865-37.4h.582V29.486a5.754,5.754,0,0,1,5.787-5.708.372.372,0,0,1,.269.113c2.213,2.277,32.31,3.018,36.792-.231a.367.367,0,0,1,.148-.064,5.906,5.906,0,0,1,4.739,1.494,6.014,6.014,0,0,1,2.417,4.4v4.906h2.958c23.084,0,42.061,17.074,44.141,39.72l3.851,41.978a.375.375,0,0,1-.095.287.385.385,0,0,1-.28.125m-150.859-.756H163.537L159.725,74.18c-2.043-22.252-20.694-39.031-43.389-39.031H113a.377.377,0,0,1-.378-.378V29.486a5.313,5.313,0,0,0-2.141-3.809,5.273,5.273,0,0,0-4.036-1.354c-4.38,2.924-34.012,3.06-37.571.212a5,5,0,0,0-4.894,4.951V34.77a.376.376,0,0,1-.374.378h-.961c-21.507,0-40.041,15.8-43.12,36.754Z" transform="translate(34.156 65.434)" fill="#000100"/>
    <path id="Trazado_889359" data-name="Trazado 889359" d="M61.92,34.194c-.821-4.815-1.411-8.291-2.776-8.783-1-.359-2.111-.881-3.287-1.437a41.667,41.667,0,0,0-6.926-2.746,8.337,8.337,0,0,0-2.217-.325,9.081,9.081,0,0,0-3.7.953A16.015,16.015,0,0,1,39.85,22.9c-2.217.439-3.336,1.657-3.62,2.565a1.238,1.238,0,0,0,.25,1.3c.571.571,2.164.908,4.255.908.431,0,.707-.015.711-.015l2.451-.136-2.22,1.029c-.049.023-5.1,2.364-7.864,3.949a12.746,12.746,0,0,0-4.528,4.21c-.178.386-.583,2.186-.866,3.385-1.736,2.761-5.749,10.337-3.412,12.229a1.9,1.9,0,0,0,1.2.492c1.9,0,3.68-3.707,4.206-5.137l.125-.344.371.038c.076,0,.148.011.219.011,1.717,0,3.279-2,3.291-2.027l.477-.62.337.7c2.084,4.391.794,5.511-3.472,9.218-1.581,1.373-3.552,3.083-5.988,5.481-5.137,5.061-4.255,6.9-3.238,9.025a7.032,7.032,0,0,1,.919,3.185c0,6.154,1.778,46.362,1.99,51.048H62.056c-.972-9.176-5.208-20.936-8.953-30.918-3.8-10.122-7.077-18.859-6.067-23.024,1.834-7.546,6.941-10.977,11.045-13.73,4.161-2.791,7.444-5,6.1-10.3-1.078-4.24-1.736-8.117-2.266-11.23" transform="translate(60.529 58.159)" fill="#fff"/>
    <path id="Trazado_889360" data-name="Trazado 889360" d="M62.333,124.055H25.719a.375.375,0,0,1-.374-.363c-.023-.443-1.993-44.531-1.993-51.063a6.72,6.72,0,0,0-.881-3.018c-1.036-2.171-2.012-4.214,3.313-9.46,2.44-2.4,4.407-4.108,5.988-5.485C36,51,37.127,50.014,35.164,45.883l-.064-.148-.1.132c-.008.015-1.668,2.175-3.593,2.175-.079,0-.155,0-.235-.011l-.1-.011-.023.068c-.019.057-2.008,5.386-4.565,5.386a2.267,2.267,0,0,1-1.434-.575c-2.984-2.417,2.742-11.782,3.3-12.671l.091-.4a27.267,27.267,0,0,1,.783-3,13.042,13.042,0,0,1,4.683-4.38c2.731-1.566,7.686-3.866,7.894-3.96l.431-.2-.48.026c-.061,0-.329.015-.734.015-2.228,0-3.873-.371-4.52-1.017a1.616,1.616,0,0,1-.344-1.687c.31-1.006,1.524-2.349,3.9-2.822a15.657,15.657,0,0,0,3.1-1.021,9.426,9.426,0,0,1,3.843-.983,8.942,8.942,0,0,1,2.319.337A42.192,42.192,0,0,1,56.3,23.911c1.169.552,2.269,1.07,3.249,1.422,1.573.567,2.148,3.945,3.022,9.059v.015c.526,3.09,1.18,6.937,2.258,11.2,1.407,5.568-2.145,7.951-6.256,10.708-4.051,2.72-9.089,6.1-10.886,13.507-.987,4.051,2.273,12.732,6.044,22.785,3.843,10.239,8.019,21.912,8.983,31.024a.367.367,0,0,1-.1.3.372.372,0,0,1-.28.125M26.082,123.3H61.913c-1.04-8.964-5.129-20.384-8.889-30.407C49.2,82.706,45.906,73.923,46.946,69.649c1.869-7.69,7.039-11.162,11.2-13.953,4.195-2.818,7.224-4.849,5.95-9.9-1.089-4.3-1.744-8.155-2.273-11.26l0-.019c-.734-4.323-1.369-8.057-2.53-8.473-1.01-.363-2.13-.889-3.313-1.449a41.2,41.2,0,0,0-6.865-2.723,7.9,7.9,0,0,0-2.118-.31,8.751,8.751,0,0,0-3.556.919A16.153,16.153,0,0,1,40.2,23.548c-2.054.409-3.079,1.5-3.325,2.3a.878.878,0,0,0,.151.927c.367.371,1.63.8,3.987.8.382,0,.639-.011.685-.015l2.455-.136h.023a.379.379,0,0,1,.159.722l-2.22,1.029c-.208.095-5.129,2.383-7.833,3.934a12.325,12.325,0,0,0-4.373,4.04c-.14.3-.5,1.834-.734,2.852l-.106.461a.382.382,0,0,1-.049.113c-2.527,4.006-5.277,10.3-3.495,11.737a1.529,1.529,0,0,0,.957.4c1.558,0,3.268-3.295,3.854-4.891l.125-.34a.374.374,0,0,1,.356-.25h.042l.371.038c1.547.129,3.151-1.846,3.166-1.865l.48-.624a.433.433,0,0,1,.34-.148.372.372,0,0,1,.3.216l.337.7c2.209,4.652.753,5.916-3.563,9.664-1.589,1.384-3.552,3.086-5.969,5.469-4.944,4.864-4.161,6.506-3.166,8.586a7.435,7.435,0,0,1,.957,3.351c0,6.2,1.785,46.414,1.974,50.67" transform="translate(60.253 57.881)" fill="#000100"/>
    <path id="Trazado_889361" data-name="Trazado 889361" d="M38.9,26.875l.079-.416-.424-.1a18.888,18.888,0,0,1-6.846-3.866l-.182-.148-.235.061c-.038.011-3.782.938-3.782.938l-.257.84s3.147-.609,4.051-.851a20.645,20.645,0,0,0,6.631,3.786,7.562,7.562,0,0,0,.734,5.106.465.465,0,0,0,.628.125.442.442,0,0,0,.132-.62,7.12,7.12,0,0,1-.53-4.857" transform="translate(75.836 62.179)"/>
    <path id="Trazado_889362" data-name="Trazado 889362" d="M37.61,29.127c-1.823-1.725-5.5-4.369-7.75-4.112-1.944.223-6.033,2.947-6.2,3.064a.444.444,0,0,0-.125.624.459.459,0,0,0,.632.117c1.127-.753,4.376-2.75,5.8-2.912,1.573-.185,4.894,1.861,7.013,3.866a34.625,34.625,0,0,1,4.388,5.409.475.475,0,0,0,.39.208A.485.485,0,0,0,42,35.319a.449.449,0,0,0,.14-.62,35.406,35.406,0,0,0-4.528-5.572" transform="translate(65.258 69.557)"/>
    <path id="Trazado_889363" data-name="Trazado 889363" d="M28.08,22.595a.455.455,0,0,0-.6.223.447.447,0,0,0,.223.594c6.46,2.863,12.6,10.738,12.667,10.818a.432.432,0,0,0,.359.174A.468.468,0,0,0,41,34.316a.448.448,0,0,0,.083-.632c-.253-.329-6.339-8.132-13.008-11.09" transform="translate(76.346 62.756)"/>
    <path id="Trazado_889364" data-name="Trazado 889364" d="M36.665,24.059c-4.944-1.505-12.679,5.534-13,5.833a.446.446,0,0,0-.026.635.471.471,0,0,0,.651.019c.072-.068,7.659-6.994,12.108-5.628,4.588,1.4,10.833,7.694,10.9,7.754a.45.45,0,0,0,.325.14.466.466,0,0,0,.318-.129.449.449,0,0,0,.008-.635c-.265-.265-6.472-6.521-11.279-7.989" transform="translate(65.427 66.357)"/>
    <path id="Trazado_889365" data-name="Trazado 889365" d="M59.015,110.023H2.52a2.454,2.454,0,0,1-2.455-2.455V21.6H73.751v73.69c-5.753,5.753-8.983,8.98-14.736,14.736" transform="translate(0.181 60.093)" fill="#fff"/>
    <path id="Trazado_889366" data-name="Trazado 889366" d="M59.2,110.449H2.7a2.7,2.7,0,0,1-2.7-2.7V21.777a.246.246,0,0,1,.25-.246H73.936a.245.245,0,0,1,.246.246v73.69a.234.234,0,0,1-.072.174l-14.74,14.736a.241.241,0,0,1-.17.072M.492,22.023v85.726A2.215,2.215,0,0,0,2.7,109.957H59.1l14.6-14.593V22.023Z" transform="translate(0 59.909)" fill="#000100"/>
    <path id="Trazado_889367" data-name="Trazado 889367" d="M73.752,28.825H.066V21.457A2.455,2.455,0,0,1,2.521,19H71.3a2.455,2.455,0,0,1,2.455,2.459Z" transform="translate(0.184 52.861)" fill="#3a1d71"/>
    <path id="Trazado_889368" data-name="Trazado 889368" d="M73.936,29.252H.25A.246.246,0,0,1,0,29.006V21.637a2.706,2.706,0,0,1,2.7-2.7H71.481a2.708,2.708,0,0,1,2.7,2.7v7.368a.245.245,0,0,1-.246.246M.492,28.76h73.2V21.637a2.216,2.216,0,0,0-2.213-2.213H2.7A2.216,2.216,0,0,0,.492,21.637Z" transform="translate(0 52.68)" fill="#000100"/>
    <path id="Trazado_889369" data-name="Trazado 889369" d="M3.5,21.2a1.229,1.229,0,1,1-1.226-1.229A1.231,1.231,0,0,1,3.5,21.2" transform="translate(2.891 55.571)" fill="#fff"/>
    <path id="Trazado_889370" data-name="Trazado 889370" d="M5.121,21.2A1.229,1.229,0,1,1,3.9,19.972,1.228,1.228,0,0,1,5.121,21.2" transform="translate(7.407 55.571)" fill="#fff"/>
    <path id="Trazado_889371" data-name="Trazado 889371" d="M6.742,21.2a1.227,1.227,0,1,1-1.229-1.229A1.229,1.229,0,0,1,6.742,21.2" transform="translate(11.928 55.571)" fill="#fff"/>
    <path id="Trazado_889372" data-name="Trazado 889372" d="M30.387,41.078H15.651V55.814Z" transform="translate(43.548 114.298)" fill="#f9bb4f"/>
    <path id="Trazado_889373" data-name="Trazado 889373" d="M15.832,56.241a.212.212,0,0,1-.095-.019A.248.248,0,0,1,15.586,56V41.259a.243.243,0,0,1,.246-.246H30.568a.257.257,0,0,1,.231.151.261.261,0,0,1-.057.269L16,56.169a.226.226,0,0,1-.17.072M16.074,41.5v13.9l13.9-13.9Z" transform="translate(43.367 114.117)" fill="#000100"/>
    <rect id="Rect치ngulo_404731" data-name="Rect치ngulo 404731" width="68.78" height="34.386" transform="translate(10.069 98.881)" fill="#f0c518"/>
    <path id="Trazado_889374" data-name="Trazado 889374" d="M71.62,60.955H2.84a.242.242,0,0,1-.242-.246V26.323a.242.242,0,0,1,.242-.246H71.62a.242.242,0,0,1,.242.246V60.709a.242.242,0,0,1-.242.246M3.09,60.463H71.378V26.569H3.09Z" transform="translate(7.229 72.558)" fill="#000100"/>
    <path id="Trazado_889375" data-name="Trazado 889375" d="M12.223,28.09H4.976V47.74H7.567V40.046H12.2A7.622,7.622,0,0,0,17.318,38.5,5.508,5.508,0,0,0,19.1,34.1a5.588,5.588,0,0,0-1.827-4.361,7.277,7.277,0,0,0-5.053-1.645m3.185,8.859a4.652,4.652,0,0,1-3.185.98H7.567v-7.72h4.8a4.36,4.36,0,0,1,3.037,1.1,3.694,3.694,0,0,1,1.108,2.81,3.58,3.58,0,0,1-1.108,2.833" transform="translate(13.845 78.159)" fill="#fff"/>
    <path id="Trazado_889376" data-name="Trazado 889376" d="M22.084,36.54H12.178V28.09H9.587V47.74h2.591V38.658h9.906V47.74h2.6V28.09h-2.6Z" transform="translate(26.675 78.158)" fill="#fff"/>
    <path id="Trazado_889377" data-name="Trazado 889377" d="M27.1,29.735a7.27,7.27,0,0,0-5.053-1.645H14.8V47.74h2.595V40.046h4.626A7.615,7.615,0,0,0,27.138,38.5,5.511,5.511,0,0,0,28.927,34.1,5.591,5.591,0,0,0,27.1,29.735m-1.865,7.213a4.662,4.662,0,0,1-3.189.98H17.391v-7.72h4.8a4.363,4.363,0,0,1,3.041,1.1,3.706,3.706,0,0,1,1.1,2.81,3.591,3.591,0,0,1-1.1,2.833" transform="translate(41.169 78.159)" fill="#fff"/>
  </g>
</svg>
