<svg xmlns="http://www.w3.org/2000/svg" xmlns:xlink="http://www.w3.org/1999/xlink" width="249.047" height="195.83" viewBox="0 0 249.047 195.83">
  <defs>
    <clipPath id="clip-path">
      <rect id="Rectángulo_404586" data-name="Rectángulo 404586" width="249.047" height="195.83" fill="none"/>
    </clipPath>
  </defs>
  <g id="Grupo_1102361" data-name="Grupo 1102361" transform="translate(0 0)">
    <g id="Grupo_1102360" data-name="Grupo 1102360" transform="translate(0 0)" clip-path="url(#clip-path)">
      <path id="Trazado_889051" data-name="Trazado 889051" d="M154.556,165.125H28.93a5.233,5.233,0,0,1-5.234-5.238V5.593h136.1V159.887a5.24,5.24,0,0,1-5.238,5.238" transform="translate(81.311 19.19)" fill="#fff"/>
      <path id="Trazado_889052" data-name="Trazado 889052" d="M154.084,165.907H30.358c-3.753,0-6.8-2.185-6.8-4.875V5.932c0-.244.275-.439.616-.439h136.1c.337,0,.616.195.616.439v155.1c0,2.69-3.053,4.875-6.807,4.875M24.788,6.375V161.032c0,2.2,2.5,3.993,5.57,3.993H154.084c3.067,0,5.575-1.79,5.575-3.993V6.375Z" transform="translate(80.831 18.847)" fill="#000100"/>
      <path id="Trazado_889053" data-name="Trazado 889053" d="M159.794,19.319H23.7V6.831a5.231,5.231,0,0,1,5.238-5.238H154.556a5.234,5.234,0,0,1,5.238,5.238Z" transform="translate(81.311 5.464)" fill="#ff6142"/>
      <path id="Trazado_889054" data-name="Trazado 889054" d="M160.275,20.1H24.172c-.341,0-.616-.195-.616-.439V6.368c0-2.69,3.049-4.875,6.8-4.875H154.084c3.753,0,6.807,2.185,6.807,4.875V19.662c0,.244-.279.439-.616.439M24.788,19.219H159.659V6.368c0-2.2-2.508-3.993-5.575-3.993H30.358c-3.067,0-5.57,1.795-5.57,3.993Z" transform="translate(80.831 5.121)" fill="#000100"/>
      <path id="Trazado_889055" data-name="Trazado 889055" d="M30.184,5.309a2.216,2.216,0,1,1-2.216-2.216,2.219,2.219,0,0,1,2.216,2.216" transform="translate(88.37 10.612)" fill="#fff"/>
      <path id="Trazado_889056" data-name="Trazado 889056" d="M32.684,5.309a2.216,2.216,0,1,1-2.216-2.216,2.219,2.219,0,0,1,2.216,2.216" transform="translate(96.948 10.612)" fill="#fff"/>
      <path id="Trazado_889057" data-name="Trazado 889057" d="M35.184,5.309a2.216,2.216,0,1,1-2.216-2.216,2.219,2.219,0,0,1,2.216,2.216" transform="translate(105.527 10.612)" fill="#fff"/>
      <rect id="Rectángulo_404540" data-name="Rectángulo 404540" width="50.58" height="3.324" transform="translate(147.048 45.276)" fill="#3478ce"/>
      <rect id="Rectángulo_404541" data-name="Rectángulo 404541" width="23.806" height="3.324" transform="translate(147.048 80.728)" fill="#3478ce"/>
      <rect id="Rectángulo_404542" data-name="Rectángulo 404542" width="41.656" height="3.324" transform="translate(147.053 107.316)" fill="#3478ce"/>
      <rect id="Rectángulo_404543" data-name="Rectángulo 404543" width="31.242" height="3.324" transform="translate(164.903 89.59)" fill="#3478ce"/>
      <rect id="Rectángulo_404544" data-name="Rectángulo 404544" width="17.854" height="3.324" transform="translate(157.462 98.453)" fill="#3478ce"/>
      <rect id="Rectángulo_404545" data-name="Rectángulo 404545" width="23.801" height="3.324" transform="translate(173.828 116.179)" fill="#3478ce"/>
      <rect id="Rectángulo_404546" data-name="Rectángulo 404546" width="20.828" height="3.324" transform="translate(147.048 54.139)" fill="#3478ce"/>
      <rect id="Rectángulo_404547" data-name="Rectángulo 404547" width="16.365" height="3.324" transform="translate(190.197 71.865)" fill="#3478ce"/>
      <rect id="Rectángulo_404548" data-name="Rectángulo 404548" width="17.854" height="3.324" transform="translate(208.047 45.276)" fill="#3478ce"/>
      <rect id="Rectángulo_404549" data-name="Rectángulo 404549" width="14.876" height="3.324" transform="translate(178.29 54.139)" fill="#3478ce"/>
      <rect id="Rectángulo_404550" data-name="Rectángulo 404550" width="14.872" height="3.324" transform="translate(181.272 80.728)" fill="#3478ce"/>
      <rect id="Rectángulo_404551" data-name="Rectángulo 404551" width="14.872" height="3.324" transform="translate(199.127 107.316)" fill="#3478ce"/>
      <rect id="Rectángulo_404552" data-name="Rectángulo 404552" width="17.854" height="3.324" transform="translate(208.047 116.179)" fill="#3478ce"/>
      <rect id="Rectángulo_404553" data-name="Rectángulo 404553" width="34.22" height="3.324" transform="translate(185.73 98.453)" fill="#3478ce"/>
      <rect id="Rectángulo_404554" data-name="Rectángulo 404554" width="50.58" height="3.324" transform="translate(147.048 133.905)" fill="#3478ce"/>
      <rect id="Rectángulo_404555" data-name="Rectángulo 404555" width="23.806" height="3.324" transform="translate(147.048 169.356)" fill="#3478ce"/>
      <rect id="Rectángulo_404556" data-name="Rectángulo 404556" width="20.828" height="3.324" transform="translate(147.048 142.768)" fill="#3478ce"/>
      <rect id="Rectángulo_404557" data-name="Rectángulo 404557" width="16.365" height="3.324" transform="translate(190.197 160.493)" fill="#3478ce"/>
      <rect id="Rectángulo_404558" data-name="Rectángulo 404558" width="17.854" height="3.324" transform="translate(208.047 133.905)" fill="#3478ce"/>
      <rect id="Rectángulo_404559" data-name="Rectángulo 404559" width="14.876" height="3.324" transform="translate(178.29 142.768)" fill="#3478ce"/>
      <rect id="Rectángulo_404560" data-name="Rectángulo 404560" width="14.872" height="3.324" transform="translate(181.272 169.356)" fill="#3478ce"/>
      <rect id="Rectángulo_404561" data-name="Rectángulo 404561" width="4.312" height="3.324" transform="translate(120.314 36.413)"/>
      <rect id="Rectángulo_404562" data-name="Rectángulo 404562" width="4.312" height="3.324" transform="translate(120.314 45.276)"/>
      <rect id="Rectángulo_404563" data-name="Rectángulo 404563" width="4.312" height="3.324" transform="translate(120.314 54.139)"/>
      <rect id="Rectángulo_404564" data-name="Rectángulo 404564" width="4.312" height="3.324" transform="translate(120.314 63.002)"/>
      <rect id="Rectángulo_404565" data-name="Rectángulo 404565" width="4.312" height="3.324" transform="translate(120.314 71.865)"/>
      <rect id="Rectángulo_404566" data-name="Rectángulo 404566" width="4.312" height="3.324" transform="translate(120.314 80.728)"/>
      <rect id="Rectángulo_404567" data-name="Rectángulo 404567" width="4.312" height="3.324" transform="translate(120.314 89.59)"/>
      <rect id="Rectángulo_404568" data-name="Rectángulo 404568" width="4.312" height="3.324" transform="translate(120.314 98.453)"/>
      <rect id="Rectángulo_404569" data-name="Rectángulo 404569" width="4.312" height="3.324" transform="translate(120.314 107.316)"/>
      <rect id="Rectángulo_404570" data-name="Rectángulo 404570" width="4.312" height="3.324" transform="translate(120.314 116.179)"/>
      <rect id="Rectángulo_404571" data-name="Rectángulo 404571" width="4.312" height="3.324" transform="translate(120.314 125.042)"/>
      <rect id="Rectángulo_404572" data-name="Rectángulo 404572" width="4.312" height="3.324" transform="translate(120.314 133.905)"/>
      <rect id="Rectángulo_404573" data-name="Rectángulo 404573" width="4.312" height="3.324" transform="translate(120.314 142.768)"/>
      <rect id="Rectángulo_404574" data-name="Rectángulo 404574" width="4.312" height="3.324" transform="translate(120.314 151.631)"/>
      <rect id="Rectángulo_404575" data-name="Rectángulo 404575" width="4.312" height="3.324" transform="translate(120.314 160.493)"/>
      <rect id="Rectángulo_404576" data-name="Rectángulo 404576" width="4.312" height="3.324" transform="translate(120.314 169.356)"/>
      <rect id="Rectángulo_404577" data-name="Rectángulo 404577" width="44.629" height="3.324" transform="translate(132.172 36.413)" fill="#3478ce"/>
      <rect id="Rectángulo_404578" data-name="Rectángulo 404578" width="32.731" height="3.324" transform="translate(147.048 71.865)" fill="#3478ce"/>
      <rect id="Rectángulo_404579" data-name="Rectángulo 404579" width="14.876" height="3.324" transform="translate(132.172 63.002)" fill="#3478ce"/>
      <rect id="Rectángulo_404580" data-name="Rectángulo 404580" width="22.317" height="3.324" transform="translate(132.172 89.59)" fill="#3478ce"/>
      <rect id="Rectángulo_404581" data-name="Rectángulo 404581" width="14.876" height="3.324" transform="translate(132.172 98.453)" fill="#3478ce"/>
      <rect id="Rectángulo_404582" data-name="Rectángulo 404582" width="16.365" height="3.324" transform="translate(147.048 116.179)" fill="#3478ce"/>
      <rect id="Rectángulo_404583" data-name="Rectángulo 404583" width="44.629" height="3.324" transform="translate(132.172 125.042)" fill="#3478ce"/>
      <rect id="Rectángulo_404584" data-name="Rectángulo 404584" width="32.731" height="3.324" transform="translate(147.048 160.493)" fill="#3478ce"/>
      <rect id="Rectángulo_404585" data-name="Rectángulo 404585" width="14.876" height="3.324" transform="translate(132.172 151.631)" fill="#3478ce"/>
      <path id="Trazado_889058" data-name="Trazado 889058" d="M34.039,27.622,11.195,12.48c-.713,15.067-2.207,33.355-2.207,33.355,4.95,4.205,20.234,6.988,20.234,6.988l8.411-6.093c-5.686-4.684-3.594-19.108-3.594-19.108" transform="translate(30.842 42.823)" fill="#fff"/>
      <path id="Trazado_889059" data-name="Trazado 889059" d="M29.566,53.614l-.08-.009c-.629-.115-15.461-2.858-20.442-7.086a.439.439,0,0,1-.155-.372C8.9,45.965,10.4,27.694,11.1,12.8a.443.443,0,0,1,.687-.35L34.627,27.6a.426.426,0,0,1,.191.43c-.013.142-1.985,14.229,3.443,18.7a.433.433,0,0,1,.16.355.443.443,0,0,1-.182.346l-8.415,6.093a.43.43,0,0,1-.257.089M9.789,45.987c4.68,3.753,17.947,6.377,19.671,6.709l7.813-5.663c-4.937-4.768-3.629-16.8-3.368-18.847L11.943,13.624C11.269,27.464,9.962,43.86,9.789,45.987" transform="translate(30.497 42.476)" fill="#000100"/>
      <path id="Trazado_889060" data-name="Trazado 889060" d="M38.917,4.776c-25.747.86-23.531,20.4-23.531,20.4-5.225.279-7.52,4.728-6.709,10.077A7.191,7.191,0,0,0,13.485,40.9c1.338,19.162,18.156,24.741,26.079,21.063s13.25-8.211,14.726-13.538,2.49-18.612,3.953-24.7C59.8,17.2,59.94,4.072,38.917,4.776" transform="translate(29.229 16.294)" fill="#fff"/>
      <path id="Trazado_889061" data-name="Trazado 889061" d="M34.632,63.8a20.216,20.216,0,0,1-10.051-2.832c-3.793-2.242-10.259-7.724-11.172-19.405a7.523,7.523,0,0,1-4.826-5.9c-.492-3.217.111-6.053,1.693-7.99a7.158,7.158,0,0,1,4.981-2.561,18.686,18.686,0,0,1,4.369-12.847c4.086-4.737,10.689-7.285,19.627-7.587l.013.443-.013-.443c8.4-.275,14.278,1.6,17.535,5.579,3.736,4.569,3,10.684,2.233,13.919-.7,2.9-1.3,7.533-1.888,12.014a116.368,116.368,0,0,1-2.069,12.7c-1.458,5.234-6.5,9.887-14.974,13.822a13.031,13.031,0,0,1-5.46,1.095M40.867,5.535c-.518,0-1.046.009-1.586.027C30.613,5.85,24.223,8.3,20.306,12.829a18.079,18.079,0,0,0-4.13,12.638.432.432,0,0,1-.106.332.408.408,0,0,1-.31.155,6.451,6.451,0,0,0-4.8,2.273c-1.414,1.742-1.95,4.334-1.5,7.3a6.7,6.7,0,0,0,4.5,5.291.442.442,0,0,1,.315.394c.8,11.473,7.086,16.822,10.764,18.989,4.835,2.854,10.733,3.532,14.686,1.7,8.234-3.824,13.108-8.282,14.491-13.254a115.382,115.382,0,0,0,2.047-12.572c.581-4.507,1.192-9.169,1.9-12.111C58.89,20.89,59.6,15.085,56.1,10.813c-2.867-3.505-7.985-5.278-15.235-5.278" transform="translate(28.883 15.951)" fill="#000100"/>
      <path id="Trazado_889062" data-name="Trazado 889062" d="M80.646,10.771S64.675-10.34,38.365,6.8C24.836,15.61,22.727,29.25,26.689,40.284c-.479,1.2-1.462,4.015-9.133,4.263-9.762.306-9.621,6.94-9.209,12.541C8.67,61.506.1,62.548.1,62.548S11.094,79.857,29.831,78.523c0,0-2.508-4.932-1.693-8.291.9-3.691,3.3-5.185,4.538-8.03a13.4,13.4,0,0,0,1.068-4.715c1.91,3.386,5.739,5.991,7.866,2.4-.7,3.2,1.369,12.324,5.047,12.324,2.083,0-.386-16.64.944-17.012s3.745,9.142,5.309,9.111C55.48,64.312,55.8,45.6,59,39.633c1.812-3.372,5.353-9.435,5.353-9.435-1.356,3.1-2.061,9.022-2.061,9.022l5.424-.412a34.6,34.6,0,0,0,8.508-12.8,16.65,16.65,0,0,1,.687,12.749c7.689-2.663,10.219.953,10.219.953S84.647,61.582,82.321,66.82c-3.829,8.619,7.254-6.962,7.254-20.943,0-8.677,18.328-18.532-8.929-35.106" transform="translate(0.343 0.31)" fill="#000100"/>
      <path id="Trazado_889063" data-name="Trazado 889063" d="M28.143,79.348C10.6,79.348.177,63.267.07,63.1a.463.463,0,0,1-.031-.43.457.457,0,0,1,.35-.248c.08-.013,8.145-1.041,7.857-4.99-.279-3.749-.35-7.622,1.963-10.192,1.609-1.786,4.117-2.708,7.675-2.823,7.064-.226,8.18-2.6,8.677-3.829-3.634-10.285-2.4-24.528,11.9-33.847C64.073-9.932,80.222,9.411,81.285,10.745c20.331,12.39,15.537,21.275,11.686,28.419-1.343,2.49-2.615,4.844-2.615,7.024,0,10.791-6.687,23.207-8.189,23.819a.64.64,0,0,1-.589-.111c-.244-.253-.346-.629.678-2.942,2.163-4.866,4.507-24.67,4.751-26.8-.514-.585-3.089-2.929-9.607-.669a.442.442,0,0,1-.554-.589A16.282,16.282,0,0,0,76.588,27.5a35.469,35.469,0,0,1-8.229,11.938.459.459,0,0,1-.266.12l-5.424.412a.374.374,0,0,1-.355-.137.457.457,0,0,1-.12-.359c.022-.164.332-2.747.935-5.38-1.121,1.954-2.486,4.356-3.4,6.058-1.52,2.832-2.4,8.77-3.168,14.008-1.055,7.166-1.684,10.906-3.31,10.906h-.018c-1.028,0-1.883-1.937-3.191-5.078a19.435,19.435,0,0,0-1.937-3.962c-.257.869-.1,4.236.027,6.745.261,5.557.359,9-.514,9.922a.838.838,0,0,1-.62.275,3.52,3.52,0,0,1-2.712-1.551c-1.9-2.366-2.925-6.953-2.907-9.825a3.09,3.09,0,0,1-2.087.771c-1.808-.018-3.629-1.52-4.888-3.257a12.923,12.923,0,0,1-.984,3.585,15.938,15.938,0,0,1-1.963,3.133,12.723,12.723,0,0,0-2.548,4.821c-.767,3.155,1.635,7.937,1.657,7.981a.431.431,0,0,1-.009.421.454.454,0,0,1-.355.226c-.7.049-1.387.071-2.061.071M1.209,63.191c2.016,2.836,11.748,15.271,26.934,15.271.448,0,.9-.009,1.352-.031-.656-1.449-2.127-5.185-1.44-7.99A13.377,13.377,0,0,1,30.749,65.3a14.847,14.847,0,0,0,1.861-2.956,13.05,13.05,0,0,0,1.037-4.573.434.434,0,0,1,.341-.4.449.449,0,0,1,.487.213c1.281,2.278,3.266,3.882,4.83,3.9h.022a2.593,2.593,0,0,0,2.242-1.511.458.458,0,0,1,.545-.182.447.447,0,0,1,.27.51c-.487,2.22.5,7.959,2.592,10.565A2.7,2.7,0,0,0,47,72.085c.665-.465.4-5.978.248-9.271-.284-5.965-.248-7.494.576-7.724,1.028-.257,1.715,1.369,3.04,4.56.687,1.657,1.839,4.431,2.389,4.533.935,0,1.835-6.107,2.433-10.148.784-5.313,1.671-11.327,3.266-14.3,1.795-3.341,5.322-9.39,5.362-9.452a.454.454,0,0,1,.581-.173.447.447,0,0,1,.208.576,38.245,38.245,0,0,0-1.954,8.362l4.719-.359a34.459,34.459,0,0,0,8.278-12.514.44.44,0,0,1,.394-.3.374.374,0,0,1,.43.257,17.36,17.36,0,0,1,1,12.235c7.241-2.189,9.758,1.245,9.869,1.4a.448.448,0,0,1,.075.3c-.1.9-2.513,22-4.839,27.24-.093.2-.173.39-.244.558,2.154-3.408,6.647-12.723,6.647-21.683,0-2.406,1.321-4.857,2.716-7.445,3.869-7.175,8.256-15.311-11.433-27.28a.6.6,0,0,1-.124-.111C80,10.506,64.6-9.223,38.952,7.484,25,16.568,23.863,30.465,27.448,40.445a.428.428,0,0,1,0,.315c-.527,1.329-1.711,4.29-9.532,4.542-3.3.1-5.606.935-7.042,2.53-2.083,2.318-2.012,5.832-1.742,9.536.3,4.037-5.792,5.451-7.919,5.823" transform="translate(0.001 -0.001)" fill="#000100"/>
      <path id="Trazado_889064" data-name="Trazado 889064" d="M86.764,34.123c-.146-1.657-.718-3.293-3.811-4.826,7.963-5.025,4.112-10.95.7-7.214-3.089,3.377-7.157,3.488-10.884,5.61C67.049,30.95,64.009,40.407,54.1,40.407c-10.024,0-10,19.684,2.774,18.368,8.025-.824,10.87-1,22.911-4.272,5.4-1.467,4.21-5.393,4.21-5.393s3.616-5.171,3.443-7.946-.523-5.322-.674-7.042" transform="translate(160.957 71.742)" fill="#fff"/>
      <path id="Trazado_889065" data-name="Trazado 889065" d="M56.035,59.623a8.57,8.57,0,0,1-7.423-3.8,11.818,11.818,0,0,1-.567-11.539A7.043,7.043,0,0,1,54.44,40.3c6.253,0,9.647-3.838,12.922-7.556a23.4,23.4,0,0,1,5.522-5.1,25.865,25.865,0,0,1,4.294-1.83c2.371-.851,4.613-1.648,6.488-3.691a3.137,3.137,0,0,1,3.164-1.223A2.387,2.387,0,0,1,88.4,22.984c.1.824.084,3.634-4.241,6.612,2.716,1.547,3.239,3.231,3.381,4.83.053.6.133,1.294.213,2.069.164,1.485.346,3.168.465,4.981.164,2.646-2.779,7.135-3.412,8.065a4.4,4.4,0,0,1-.461,2.947,6.3,6.3,0,0,1-4.108,2.783C68.811,58.378,65.58,58.71,58.508,59.432l-1.25.129a11.538,11.538,0,0,1-1.223.062M86.169,21.694a2.694,2.694,0,0,0-1.852,1.028c-2.021,2.2-4.476,3.084-6.842,3.931a25.08,25.08,0,0,0-4.148,1.768,22.735,22.735,0,0,0-5.3,4.914c-3.248,3.683-6.931,7.853-13.587,7.853a6.186,6.186,0,0,0-5.61,3.514,10.875,10.875,0,0,0,.518,10.627,7.854,7.854,0,0,0,7.817,3.35l1.25-.133c7.028-.718,10.237-1.041,21.59-4.13a5.476,5.476,0,0,0,3.558-2.344,3.545,3.545,0,0,0,.346-2.495.433.433,0,0,1,.062-.381c.035-.053,3.527-5.074,3.368-7.662-.12-1.8-.3-3.47-.461-4.945-.084-.776-.164-1.485-.217-2.083-.12-1.369-.505-2.951-3.563-4.467a.443.443,0,0,1-.248-.377.452.452,0,0,1,.2-.4c3.589-2.264,4.662-4.671,4.471-6.169a1.511,1.511,0,0,0-.962-1.338,1.2,1.2,0,0,0-.394-.062" transform="translate(160.618 71.4)" fill="#000100"/>
      <path id="Trazado_889066" data-name="Trazado 889066" d="M60.614,24.359c-.022.018-1.564,1.378-5.606.3a.574.574,0,0,0-.691.394.561.561,0,0,0,.4.682,12.356,12.356,0,0,0,3.151.448,5.154,5.154,0,0,0,3.541-1.033.551.551,0,0,0,0-.776.573.573,0,0,0-.793-.018" transform="translate(186.324 83.066)"/>
      <path id="Trazado_889067" data-name="Trazado 889067" d="M60.747,25.741c-.013.018-1.555,1.378-5.6.3a.573.573,0,0,0-.691.394.555.555,0,0,0,.4.682,12.3,12.3,0,0,0,3.151.448,5.167,5.167,0,0,0,3.541-1.033.555.555,0,0,0,0-.776.584.584,0,0,0-.8-.018" transform="translate(186.806 87.809)"/>
      <path id="Trazado_889068" data-name="Trazado 889068" d="M60.037,27.3c-.018.013-1.555,1.374-5.6.3a.574.574,0,0,0-.691.39.561.561,0,0,0,.4.682,12.352,12.352,0,0,0,3.146.448,5.154,5.154,0,0,0,3.541-1.028.547.547,0,0,0,0-.776.574.574,0,0,0-.8-.018" transform="translate(184.361 93.157)"/>
      <path id="Trazado_889069" data-name="Trazado 889069" d="M23.914,10.884a.553.553,0,0,0,.6-.514.561.561,0,0,0-.523-.6,51.21,51.21,0,0,0-9.8.443.555.555,0,0,0-.474.629.563.563,0,0,0,.558.479l.084-.013a49.952,49.952,0,0,1,9.554-.425" transform="translate(47.051 33.3)"/>
      <path id="Trazado_889070" data-name="Trazado 889070" d="M25.408,11.257A58.311,58.311,0,0,0,18,9.887a.553.553,0,1,0-.151,1.095,60.893,60.893,0,0,1,7.17,1.316.6.6,0,0,0,.195.031.552.552,0,0,0,.195-1.072" transform="translate(59.569 33.902)"/>
      <path id="Trazado_889071" data-name="Trazado 889071" d="M18.039,14.988a10.963,10.963,0,0,0-2.969-.908.868.868,0,0,0-.8.4,1.316,1.316,0,0,0,.177,1.3,6.755,6.755,0,0,0,6.217,3.545,13.766,13.766,0,0,0,5.632-1.387l2.393-1.25-2.7.2c-2.508.195-5.681-1.028-7.95-1.9m2.623,3.222a5.609,5.609,0,0,1-5.22-2.956,22.4,22.4,0,0,1,2.185.771,33.113,33.113,0,0,0,5.792,1.79,10.659,10.659,0,0,1-2.756.394" transform="translate(48.57 48.313)"/>
      <path id="Trazado_889072" data-name="Trazado 889072" d="M20.013,12.411c-.922-.337-2.074.009-3.408,1.033a.545.545,0,0,0-.1.78.568.568,0,0,0,.793.1c.966-.749,1.79-1.055,2.309-.873a1.47,1.47,0,0,1,.758,1.006.568.568,0,0,0,.554.443l.111,0a.555.555,0,0,0,.443-.656,2.57,2.57,0,0,0-1.462-1.826" transform="translate(56.229 42.156)"/>
      <path id="Trazado_889073" data-name="Trazado 889073" d="M15.686,10.712a1.369,1.369,0,0,0-1.121,1.582,1.4,1.4,0,0,0,1.746.877,1.369,1.369,0,0,0,1.117-1.582,1.4,1.4,0,0,0-1.742-.877" transform="translate(49.86 36.592)"/>
      <path id="Trazado_889074" data-name="Trazado 889074" d="M18.74,10.972a1.373,1.373,0,0,0-1.126,1.578,1.4,1.4,0,0,0,1.75.882,1.377,1.377,0,0,0,1.121-1.582,1.407,1.407,0,0,0-1.746-.877" transform="translate(60.33 37.484)"/>
      <path id="Trazado_889075" data-name="Trazado 889075" d="M33.59,5.367C26.335-1.125,16.4-.181,14.229,3.395c-1.352,2.22,1.932,6.944,7.237,8.3s6.479.39,11.65,1.037a32.5,32.5,0,0,1,8.863,2.73s-1.134-3.6-8.389-10.09" transform="translate(47.781 2.041)" fill="#f0c518"/>
      <path id="Trazado_889076" data-name="Trazado 889076" d="M42.322,16.243a.438.438,0,0,1-.195-.049A32.382,32.382,0,0,0,33.4,13.5a35.782,35.782,0,0,0-4.852-.253,23.322,23.322,0,0,1-6.847-.8,11.093,11.093,0,0,1-7.516-5.889A3.389,3.389,0,0,1,14.191,3.5c.873-1.431,2.836-2.477,5.393-2.858A18.6,18.6,0,0,1,34.225,5.373c7.263,6.5,8.473,10.139,8.522,10.29a.447.447,0,0,1-.425.581m-13.29-3.878a34.131,34.131,0,0,1,4.48.261A31.229,31.229,0,0,1,41.4,14.891c-.833-1.485-2.92-4.524-7.759-8.858A17.658,17.658,0,0,0,19.713,1.526c-2.256.337-4.041,1.245-4.764,2.437A2.54,2.54,0,0,0,15,6.228a10.334,10.334,0,0,0,6.913,5.366,21.374,21.374,0,0,0,6.625.771Z" transform="translate(47.437 1.702)" fill="#000100"/>
      <path id="Trazado_889077" data-name="Trazado 889077" d="M35.336.632C4.564.632,9.372,40.985,9.372,40.985c2.109-25.073,16.432-28.264,28-30.019C47.651,9.411,45.276.632,35.336.632" transform="translate(31.224 2.167)" fill="#f0c518"/>
      <path id="Trazado_889078" data-name="Trazado 889078" d="M9.705,41.775a.446.446,0,0,1-.443-.394c-.027-.208-2.433-21.563,7.937-33.24C21.684,3.093,27.9.532,35.669.532c5.717,0,8.916,2.779,9.124,5.517.168,2.22-1.591,4.879-7.019,5.7C24.892,13.7,12.147,17.6,10.144,41.372a.445.445,0,0,1-.43.4ZM35.669,1.418c-7.507,0-13.5,2.459-17.81,7.307-7.046,7.937-8.03,20.544-7.968,27.51,3.35-19.933,15.492-23.5,27.75-25.357,3.979-.607,6.439-2.477,6.266-4.759s-3.12-4.7-8.238-4.7" transform="translate(30.891 1.824)" fill="#000100"/>
      <path id="Trazado_889079" data-name="Trazado 889079" d="M81.838,26.333C58.706,17.377,46.183,20.089,27.89,20.7,10.142,21.286,2.3,37.186,2.3,57.522v69.791H106.659V87.992c0-20.34-8.3-55.264-24.82-61.659" transform="translate(7.903 68.072)" fill="#a854f3"/>
      <path id="Trazado_889080" data-name="Trazado 889080" d="M107,128.1H2.643a.441.441,0,0,1-.439-.443V57.865c0-22.8,9.723-36.728,26.017-37.273,3.009-.1,5.867-.253,8.637-.4,13.986-.775,26.07-1.445,45.484,6.071,16.379,6.337,25.1,40.122,25.1,62.076v39.32a.442.442,0,0,1-.443.443M3.086,127.213H106.56V88.336c0-21.156-8.739-55.136-24.541-61.251C62.8,19.644,50.8,20.313,36.907,21.071c-2.774.151-5.641.31-8.659.412C12.259,22.015,3.086,35.274,3.086,57.865Z" transform="translate(7.563 67.729)" fill="#000100"/>
      <path id="Trazado_889081" data-name="Trazado 889081" d="M37.839,21.619c-9.962-3.1-25.135-3.284-25.135-3.284a9.391,9.391,0,0,0-4.626,7.52s9.115,4.693,24.271,1.276a39.643,39.643,0,0,1,14.411-.31s-1.835-3-8.92-5.2" transform="translate(27.716 62.914)" fill="#a854f3"/>
      <path id="Trazado_889082" data-name="Trazado 889082" d="M21.836,29.176c-8.468,0-13.343-2.437-13.618-2.584a.437.437,0,0,1-.239-.425,9.771,9.771,0,0,1,4.866-7.888.487.487,0,0,1,.2-.044c.155,0,15.359.222,25.268,3.306,7.157,2.233,9.084,5.265,9.16,5.393a.441.441,0,0,1-.456.665,39.756,39.756,0,0,0-14.229.31,49.871,49.871,0,0,1-10.95,1.267M8.892,25.928c1.6.718,10.321,4.139,23.695,1.117a40.367,40.367,0,0,1,13.374-.5c-1.064-1.019-3.4-2.752-7.91-4.161-9.337-2.907-23.491-3.235-24.9-3.262a8.864,8.864,0,0,0-4.259,6.8" transform="translate(27.375 62.57)" fill="#000100"/>
      <path id="Trazado_889083" data-name="Trazado 889083" d="M155.757,36.016,94.466,48.757c-27.3-13.254-75.472-27.9-75.472-27.9L33.76,76.888s49.069,9.479,59.04,9.479,63.955-16.884,63.955-16.884c1.325-15.045-1-33.466-1-33.466" transform="translate(65.177 71.551)" fill="#a854f3"/>
      <path id="Trazado_889084" data-name="Trazado 889084" d="M93.144,87.153c-9.9,0-57.121-9.107-59.124-9.492a.443.443,0,0,1-.355-.518.431.431,0,0,1,.518-.35c.5.1,49.145,9.474,58.96,9.474,9.421,0,59.3-15.457,63.538-16.782,1.139-13.432-.62-29.633-.962-32.6L94.9,49.534a.48.48,0,0,1-.284-.04C67.659,36.4,19.688,21.762,19.205,21.616a.443.443,0,1,1,.261-.846c.479.146,48.356,14.757,75.4,27.865l61.141-12.714a.465.465,0,0,1,.355.075.47.47,0,0,1,.182.3c.018.186,2.309,18.643.993,33.564a.444.444,0,0,1-.306.381c-2.207.691-54.161,16.91-64.087,16.91" transform="translate(64.833 71.207)" fill="#000100"/>
    </g>
  </g>
</svg>
